<?xml version="1.0" encoding="utf-8"?>
<!-- Generator: Adobe Illustrator 19.0.0, SVG Export Plug-In . SVG Version: 6.00 Build 0)  -->
<svg version="1.1" id="Camada_1" xmlns="http://www.w3.org/2000/svg" xmlns:xlink="http://www.w3.org/1999/xlink" x="0px" y="0px"
	 viewBox="-2096 1266.7 926.5 348.3" style="enable-background:new -2096 1266.7 926.5 348.3;" xml:space="preserve">
<style type="text/css">
	.st0{fill:#CB3089;}
	.st1{fill:#F5C280;}
</style>
<g>
	<g>
		<path class="st0" d="M-1823.6,1373.5v-84.9h33.2c13,0,22.7,3.5,29.1,10.5s9.6,17.7,9.6,32c0,7.8-1.2,14.6-3.5,20.5
			c-2.4,5.9-5.8,10.7-10.3,14.3c-3.4,2.7-7.2,4.6-11.5,5.8c-4.3,1.2-10.3,1.8-18.1,1.8H-1823.6z M-1806.5,1358.1h14
			c8.1,0,14-2.1,17.6-6.4c3.6-4.2,5.4-11.1,5.4-20.7c0-9.5-1.7-16.5-5.1-20.9c-3.4-4.5-8.7-6.7-15.8-6.7h-16.1V1358.1z"/>
		<path class="st0" d="M-1737.8,1373.5v-84.9h41.1c9.3,0,16.1,2,20.6,5.9c4.5,4,6.7,10,6.7,18.1c0,5.2-1.1,9.5-3.3,13
			c-2.2,3.5-5.3,5.8-9.4,7.1c3.7,1.3,6.3,3.3,7.9,6c1.6,2.7,2.4,6.9,2.7,12.6l0.3,10c0,0.1,0,0.2,0,0.3c0.1,5.1,1.2,8.1,3.3,9.2v2.6
			h-19.1c-0.6-1.2-1.1-2.7-1.4-4.4c-0.3-1.7-0.5-3.8-0.6-6.3l-0.2-8.9c-0.2-5.3-1.2-8.8-3-10.7s-5-2.8-9.7-2.8h-18.5v33H-1737.8z
			 M-1720.3,1325.7h20.5c4.5,0,7.7-0.9,9.8-2.7c2.1-1.8,3.1-4.6,3.1-8.5c0-3.7-1-6.5-3.1-8.4c-2-1.9-5.1-2.9-9.1-2.9h-21.3V1325.7z"
			/>
		<path class="st0" d="M-1657.2,1331.1c0-13.7,3.7-24.6,11.2-32.6c7.5-8,17.5-12.1,30.2-12.1c12.7,0,22.8,4,30.3,12.1
			s11.3,18.9,11.3,32.6c0,13.7-3.8,24.5-11.3,32.6s-17.6,12.1-30.3,12.1c-12.7,0-22.8-4-30.2-12.1
			C-1653.5,1355.6-1657.2,1344.8-1657.2,1331.1z M-1639.4,1331.1c0,9.3,2.1,16.6,6.2,21.8c4.1,5.2,9.9,7.7,17.4,7.7
			c7.5,0,13.4-2.6,17.6-7.7c4.2-5.2,6.3-12.4,6.3-21.8s-2.1-16.6-6.3-21.8c-4.2-5.2-10-7.7-17.6-7.7c-7.5,0-13.3,2.6-17.4,7.7
			C-1637.4,1314.5-1639.4,1321.7-1639.4,1331.1z"/>
		<path class="st0" d="M-1543,1343.3v30.2h-17.5v-84.9h37.7c8.9,0,15.7,2.3,20.3,6.9c4.6,4.6,6.9,11.4,6.9,20.4
			c0,8.8-2.2,15.5-6.7,20.3c-4.5,4.7-10.9,7.1-19.2,7.1H-1543z M-1542.9,1327.9h16.9c4.6,0,7.9-1,10-2.9c2.1-1.9,3.1-5.1,3.1-9.4
			c0-4-1-7.1-3.1-9.2s-5.1-3.1-9.1-3.1h-17.8V1327.9z"/>
		<path class="st0" d="M-1485.7,1347.2h17.2c0.7,4.6,2.6,8.1,5.7,10.3s7.7,3.4,13.7,3.4c5.1,0,8.9-0.9,11.5-2.7
			c2.6-1.8,3.9-4.5,3.9-8c0-5.1-7.4-9.4-22.2-12.8c-0.2,0-0.4-0.1-0.5-0.1c-0.4-0.1-1-0.2-1.8-0.4c-7.9-1.7-13.6-3.7-16.9-5.8
			c-3-1.9-5.3-4.5-6.9-7.7c-1.6-3.2-2.4-7.1-2.4-11.5c0-8.3,2.8-14.6,8.4-19c5.6-4.4,13.7-6.6,24.3-6.6c9.9,0,17.7,2.3,23.2,7
			c5.6,4.7,8.5,11.3,8.8,19.8h-16.8c-0.3-4.1-1.9-7.2-4.7-9.4c-2.8-2.2-6.9-3.2-12.2-3.2c-4.6,0-8.1,0.9-10.6,2.7
			c-2.5,1.8-3.7,4.3-3.7,7.6c0,4.5,4.8,7.9,14.5,10.1c2.6,0.6,4.6,1.1,6.1,1.4c6.2,1.6,10.6,2.8,13.2,3.7c2.6,0.9,4.8,1.9,6.8,2.9
			c3.5,1.9,6.1,4.5,7.8,7.6s2.6,7,2.6,11.4c0,8.8-3,15.7-8.9,20.5c-6,4.9-14.3,7.3-25.2,7.3c-10.7,0-19.1-2.5-25.1-7.4
			S-1485.2,1356.4-1485.7,1347.2z"/>
	</g>
	<g>
		<g>
			<path class="st1" d="M-1830.4,1366.7v-84.9h33.2c13,0,22.7,3.5,29.1,10.5s9.6,17.7,9.6,32c0,7.8-1.2,14.6-3.5,20.5
				c-2.4,5.9-5.8,10.7-10.3,14.3c-3.4,2.7-7.2,4.6-11.5,5.8c-4.3,1.2-10.3,1.8-18.1,1.8H-1830.4z M-1813.3,1351.3h14
				c8.1,0,14-2.1,17.6-6.4c3.6-4.2,5.4-11.1,5.4-20.7c0-9.5-1.7-16.5-5.1-20.9c-3.4-4.5-8.7-6.7-15.8-6.7h-16.1V1351.3z"/>
			<path class="st1" d="M-1744.6,1366.7v-84.9h41.1c9.3,0,16.1,2,20.6,5.9c4.5,4,6.7,10,6.7,18.1c0,5.2-1.1,9.5-3.3,13
				c-2.2,3.5-5.3,5.8-9.4,7.1c3.7,1.3,6.3,3.3,7.9,6c1.6,2.7,2.4,6.9,2.7,12.6l0.3,10c0,0.1,0,0.2,0,0.3c0.1,5.1,1.2,8.1,3.3,9.2
				v2.6h-19.1c-0.6-1.2-1.1-2.7-1.4-4.4c-0.3-1.7-0.5-3.8-0.6-6.3l-0.2-8.9c-0.2-5.3-1.2-8.8-3-10.7s-5-2.8-9.7-2.8h-18.5v33
				H-1744.6z M-1727.1,1318.9h20.5c4.5,0,7.7-0.9,9.8-2.7c2.1-1.8,3.1-4.6,3.1-8.5c0-3.7-1-6.5-3.1-8.4c-2-1.9-5.1-2.9-9.1-2.9
				h-21.3V1318.9z"/>
			<path class="st1" d="M-1664,1324.3c0-13.7,3.7-24.6,11.2-32.6c7.5-8,17.5-12.1,30.2-12.1c12.7,0,22.8,4,30.3,12.1
				s11.3,18.9,11.3,32.6c0,13.7-3.8,24.5-11.3,32.6s-17.6,12.1-30.3,12.1c-12.7,0-22.8-4-30.2-12.1
				C-1660.3,1348.8-1664,1338-1664,1324.3z M-1646.2,1324.3c0,9.3,2.1,16.6,6.2,21.8c4.1,5.2,9.9,7.7,17.4,7.7
				c7.5,0,13.4-2.6,17.6-7.7c4.2-5.2,6.3-12.4,6.3-21.8s-2.1-16.6-6.3-21.8c-4.2-5.2-10-7.7-17.6-7.7c-7.5,0-13.3,2.6-17.4,7.7
				C-1644.2,1307.7-1646.2,1314.9-1646.2,1324.3z"/>
			<path class="st1" d="M-1549.8,1336.5v30.2h-17.5v-84.9h37.7c8.9,0,15.7,2.3,20.3,6.9c4.6,4.6,6.9,11.4,6.9,20.4
				c0,8.8-2.2,15.5-6.7,20.3c-4.5,4.7-10.9,7.1-19.2,7.1H-1549.8z M-1549.7,1321.1h16.9c4.6,0,7.9-1,10-2.9c2.1-1.9,3.1-5.1,3.1-9.4
				c0-4-1-7.1-3.1-9.2s-5.1-3.1-9.1-3.1h-17.8V1321.1z"/>
			<path class="st1" d="M-1492.5,1340.4h17.2c0.7,4.6,2.6,8.1,5.7,10.3s7.7,3.4,13.7,3.4c5.1,0,8.9-0.9,11.5-2.7
				c2.6-1.8,3.9-4.5,3.9-8c0-5.1-7.4-9.4-22.2-12.8c-0.2,0-0.4-0.1-0.5-0.1c-0.4-0.1-1-0.2-1.8-0.4c-7.9-1.7-13.6-3.7-16.9-5.8
				c-3-1.9-5.3-4.5-6.9-7.7c-1.6-3.2-2.4-7.1-2.4-11.5c0-8.3,2.8-14.6,8.4-19c5.6-4.4,13.7-6.6,24.3-6.6c9.9,0,17.7,2.3,23.2,7
				c5.6,4.7,8.5,11.3,8.8,19.8h-16.8c-0.3-4.1-1.9-7.2-4.7-9.4c-2.8-2.2-6.9-3.2-12.2-3.2c-4.6,0-8.1,0.9-10.6,2.7
				c-2.5,1.8-3.7,4.3-3.7,7.6c0,4.5,4.8,7.9,14.5,10.1c2.6,0.6,4.6,1.1,6.1,1.4c6.2,1.6,10.6,2.8,13.2,3.7c2.6,0.9,4.8,1.9,6.8,2.9
				c3.5,1.9,6.1,4.5,7.8,7.6s2.6,7,2.6,11.4c0,8.8-3,15.7-8.9,20.5c-6,4.9-14.3,7.3-25.2,7.3c-10.7,0-19.1-2.5-25.1-7.4
				S-1492,1349.6-1492.5,1340.4z"/>
		</g>
	</g>
</g>
<g>
	<g>
		<path class="st0" d="M-2082.9,1519.4l10.6,0c0.3,1.2,0.9,2.1,1.9,2.7s2.3,0.9,3.9,0.9c3,0,5.1-0.6,6.3-1.9s1.8-3.6,1.8-7.1v-3.2
			c-1,1.7-2.3,3-4,3.9s-3.7,1.2-6.1,1.2c-4.7,0-8.4-1.7-11.2-5c-2.8-3.3-4.2-7.8-4.2-13.3c0-5.8,1.4-10.5,4.1-13.9
			c2.8-3.4,6.5-5.2,11.1-5.2c2.4,0,4.5,0.5,6.2,1.4c1.7,0.9,3.1,2.3,4.2,4.3v-4.3h9.2v33.7c0,3.8-0.4,6.7-1.1,8.7
			c-0.7,2-1.9,3.7-3.6,5c-1.5,1.1-3.3,2-5.6,2.6c-2.2,0.6-4.8,0.9-7.7,0.9c-4.8,0-8.6-1-11.4-3
			C-2081.2,1525.8-2082.7,1523-2082.9,1519.4z M-2074.1,1497.3c0,3.4,0.7,6,2,7.8c1.4,1.8,3.3,2.7,5.8,2.7c2.5,0,4.5-0.9,5.8-2.7
			c1.3-1.8,2-4.5,2-7.9c0-3.3-0.7-5.8-2.1-7.7c-1.4-1.8-3.3-2.7-5.9-2.7c-2.5,0-4.4,0.9-5.7,2.8
			C-2073.5,1491.4-2074.1,1494-2074.1,1497.3z"/>
		<path class="st0" d="M-2019.9,1511.5c-1.2,1.9-2.8,3.3-4.8,4.3c-2,1-4.3,1.5-6.9,1.5c-3.5,0-6.2-1-8.1-3s-2.8-4.8-2.8-8.5
			c0-3.4,0.9-6,2.8-7.8s5-3,9.4-3.7c1-0.2,2.3-0.3,3.9-0.5c4.1-0.5,6.1-1.7,6.1-3.6c0-1.5-0.5-2.5-1.4-3.1c-0.9-0.6-2.4-0.9-4.5-0.9
			c-1.9,0-3.4,0.4-4.5,1.2c-1,0.8-1.6,1.9-1.6,3.3v0.5h-9v-0.7c0-3.7,1.3-6.6,3.9-8.7c2.6-2.1,6.2-3.2,10.8-3.2
			c5,0,8.9,0.9,11.6,2.6c2.7,1.7,4,4.3,4,7.6v20.5c0,1.5,0.2,2.6,0.5,3.4c0.3,0.7,0.8,1.3,1.6,1.7v1.6h-10.1
			c-0.3-0.6-0.6-1.3-0.8-2.1C-2019.8,1513.1-2019.9,1512.3-2019.9,1511.5z M-2020.1,1498.2c-1.6,0.7-3.4,1.3-5.4,1.8
			c-2,0.4-3.1,0.7-3.2,0.7c-1.7,0.5-2.9,1.1-3.6,1.8c-0.7,0.7-1,1.7-1,3c0,1.3,0.4,2.4,1.3,3.2c0.9,0.8,2,1.2,3.5,1.2
			c2.6,0,4.7-0.7,6.2-2.2c1.5-1.5,2.2-3.5,2.2-6V1498.2z"/>
		<path class="st0" d="M-2002.4,1515.9v-36.1h9.2v4c1.4-1.7,2.9-2.9,4.5-3.8c1.7-0.8,3.5-1.3,5.5-1.3c2.3,0,4.2,0.4,5.8,1.3
			c1.6,0.9,3,2.2,4.2,4c1.3-1.8,2.8-3.1,4.5-4c1.7-0.9,3.7-1.3,5.8-1.3c3.6,0,6.5,1.1,8.6,3.2s3.2,5,3.2,8.7v25.2h-9.5v-23.2
			c0-1.7-0.5-3.1-1.4-4.1c-0.9-1-2.3-1.4-3.9-1.4c-1.9,0-3.4,0.6-4.5,1.8c-1.1,1.2-1.7,2.9-1.7,5v21.9h-9.4v-23.2
			c0-1.8-0.5-3.1-1.4-4.1c-0.9-1-2.2-1.5-3.9-1.5c-1.9,0-3.4,0.6-4.5,1.9c-1.1,1.2-1.6,2.9-1.6,5.1v21.8H-2002.4z"/>
		<path class="st0" d="M-1920.5,1505h9.6c-1,3.8-2.9,6.8-5.9,8.9s-6.6,3.2-10.8,3.2c-5.2,0-9.4-1.8-12.4-5.3
			c-3.1-3.5-4.6-8.3-4.6-14.3c0-5.9,1.5-10.6,4.5-14c3-3.4,7.1-5.1,12.4-5.1c5.5,0,9.8,1.7,12.8,5c3,3.4,4.5,8.1,4.5,14.3
			c0,0.7,0,1.2,0,1.5c0,0.3,0,0.7-0.1,1h-24.1c0.1,2.8,0.8,5,2.1,6.4c1.3,1.4,3,2.2,5.4,2.2c1.7,0,3-0.3,4.1-1
			C-1921.9,1507.4-1921.1,1506.3-1920.5,1505z M-1934.6,1494.1h14.2c-0.1-2.4-0.7-4.3-1.9-5.6c-1.2-1.3-2.9-1.9-5.2-1.9
			c-2.1,0-3.8,0.6-5,1.9C-1933.7,1489.8-1934.4,1491.7-1934.6,1494.1z"/>
		<path class="st0" d="M-1851.5,1467v48.9h-9.2v-4.9c-1.4,2.1-3,3.6-4.7,4.6c-1.7,1-3.8,1.5-6.1,1.5c-4.4,0-8.1-1.8-10.8-5.3
			s-4.1-8.1-4.1-13.8c0-5.8,1.4-10.4,4.1-14c2.8-3.6,6.3-5.4,10.7-5.4c2.3,0,4.4,0.5,6.2,1.5c1.8,1,3.3,2.4,4.5,4.3V1467H-1851.5z
			 M-1876.7,1497.6c0,3.7,0.7,6.4,2.1,8.4c1.4,1.9,3.4,2.9,5.9,2.9c2.6,0,4.5-1,5.9-2.9c1.4-1.9,2-4.7,2-8.4c0-3.4-0.7-6-2.1-7.9
			c-1.4-1.8-3.4-2.8-6-2.8c-2.4,0-4.3,0.9-5.7,2.8S-1876.7,1494.3-1876.7,1497.6z"/>
		<path class="st0" d="M-1820.6,1505h9.6c-1,3.8-2.9,6.8-5.9,8.9s-6.6,3.2-10.8,3.2c-5.2,0-9.4-1.8-12.4-5.3
			c-3.1-3.5-4.6-8.3-4.6-14.3c0-5.9,1.5-10.6,4.5-14c3-3.4,7.1-5.1,12.4-5.1c5.5,0,9.8,1.7,12.8,5c3,3.4,4.5,8.1,4.5,14.3
			c0,0.7,0,1.2,0,1.5c0,0.3,0,0.7-0.1,1h-24.1c0.1,2.8,0.8,5,2.1,6.4c1.3,1.4,3,2.2,5.4,2.2c1.7,0,3-0.3,4.1-1
			C-1822,1507.4-1821.2,1506.3-1820.6,1505z M-1834.6,1494.1h14.2c-0.1-2.4-0.7-4.3-1.9-5.6c-1.2-1.3-2.9-1.9-5.2-1.9
			c-2.1,0-3.8,0.6-5,1.9C-1833.7,1489.8-1834.4,1491.7-1834.6,1494.1z"/>
		<path class="st0" d="M-1806.1,1504.2h9.6c0.1,1.8,0.8,3.2,2,4.1c1.2,0.9,3.1,1.3,5.6,1.3c1.9,0,3.3-0.3,4.4-0.9s1.5-1.5,1.5-2.7
			c0-1.6-1.9-2.9-5.8-3.7c-1.6-0.3-2.8-0.6-3.8-0.9c-4.7-1.2-8-2.6-9.8-4.3c-1.8-1.6-2.7-3.9-2.7-6.6c0-3.7,1.3-6.6,4-8.8
			c2.7-2.2,6.3-3.2,10.8-3.2c4.8,0,8.6,1.1,11.4,3.2c2.8,2.1,4.2,5.2,4.4,9.1h-9.4c-0.1-1.5-0.6-2.7-1.7-3.6
			c-1.1-0.8-2.6-1.3-4.6-1.3c-1.8,0-3.2,0.3-4.1,0.8c-0.9,0.6-1.3,1.4-1.3,2.5c0,1.4,2.4,2.7,7.2,3.8c1.1,0.2,2,0.4,2.6,0.6
			c4.8,1.1,8.1,2.5,9.8,4.1s2.6,3.8,2.6,6.7c0,4.1-1.4,7.2-4.3,9.4c-2.9,2.1-7.1,3.2-12.6,3.2c-5,0-8.9-1.1-11.7-3.4
			c-2.8-2.2-4.2-5.3-4.2-9.2V1504.2z"/>
		<path class="st0" d="M-1766.7,1475.8v-8.8h9.7v8.8H-1766.7z M-1766.7,1515.9v-36.1h9.7v36.1H-1766.7z"/>
		<path class="st0" d="M-1749.3,1519.4l10.6,0c0.3,1.2,0.9,2.1,1.9,2.7s2.3,0.9,3.9,0.9c3,0,5.1-0.6,6.3-1.9s1.8-3.6,1.8-7.1v-3.2
			c-1,1.7-2.3,3-4,3.9s-3.7,1.2-6.1,1.2c-4.7,0-8.4-1.7-11.2-5c-2.8-3.3-4.2-7.8-4.2-13.3c0-5.8,1.4-10.5,4.1-13.9
			c2.8-3.4,6.5-5.2,11.1-5.2c2.4,0,4.5,0.5,6.2,1.4c1.7,0.9,3.1,2.3,4.2,4.3v-4.3h9.2v33.7c0,3.8-0.4,6.7-1.1,8.7
			c-0.7,2-1.9,3.7-3.6,5c-1.5,1.1-3.3,2-5.6,2.6c-2.2,0.6-4.8,0.9-7.7,0.9c-4.8,0-8.6-1-11.4-3
			C-1747.6,1525.8-1749.1,1523-1749.3,1519.4z M-1740.6,1497.3c0,3.4,0.7,6,2,7.8c1.4,1.8,3.3,2.7,5.8,2.7c2.5,0,4.5-0.9,5.8-2.7
			c1.3-1.8,2-4.5,2-7.9c0-3.3-0.7-5.8-2.1-7.7c-1.4-1.8-3.3-2.7-5.9-2.7c-2.5,0-4.4,0.9-5.7,2.8
			C-1739.9,1491.4-1740.6,1494-1740.6,1497.3z"/>
		<path class="st0" d="M-1707,1515.9v-36.1h9.5v4.3c1.4-1.7,2.9-3.1,4.8-3.9c1.8-0.9,3.9-1.3,6.1-1.3c4,0,7,1,8.9,3.1
			c2,2.1,3,5.2,3,9.3v24.6h-9.7v-21.8c0-2.6-0.4-4.4-1.3-5.5c-0.9-1.1-2.3-1.7-4.3-1.7c-2.3,0-4.1,0.7-5.4,2s-2,3.2-2,5.6v21.4
			H-1707z"/>
		<path class="st0" d="M-1637.7,1488.5l-1.9-2.5c-1-1.3-1.7-2.6-2.1-3.7s-0.6-2.4-0.6-3.7c0-3.5,1.1-6.4,3.4-8.5
			c2.3-2.1,5.4-3.1,9.2-3.1c3.7,0,6.7,1,8.9,2.9c2.2,1.9,3.3,4.5,3.3,7.8c0,2.5-0.6,4.7-1.9,6.7c-1.3,2-3.3,3.8-6,5.5l7,8.6
			c0.7-1.1,1.2-2.3,1.6-3.7c0.4-1.3,0.7-2.9,0.8-4.5h8.6c-0.2,2.9-0.8,5.5-1.8,8c-1,2.5-2.3,4.7-3.9,6.7l8.9,10.8h-11.3l-3.3-4.1
			c-1.9,1.8-4.1,3.1-6.4,4.1c-2.3,0.9-4.8,1.4-7.3,1.4c-4.5,0-8.2-1.3-11.1-4c-2.9-2.7-4.3-6.1-4.3-10.3c0-3.1,0.8-5.8,2.4-8
			C-1644.1,1492.8-1641.4,1490.6-1637.7,1488.5z M-1632.9,1494.6l-2.5,1.8c-1,0.7-1.8,1.6-2.3,2.6c-0.5,1-0.8,2.1-0.8,3.4
			c0,1.9,0.6,3.5,1.9,4.7c1.3,1.3,2.9,1.9,4.8,1.9c1.4,0,2.8-0.3,4.1-0.9c1.3-0.6,2.5-1.4,3.6-2.6L-1632.9,1494.6z M-1630.2,1484.1
			l1.2-0.8c1.1-0.7,1.8-1.5,2.4-2.5c0.5-0.9,0.8-1.9,0.8-3.1c0-1.1-0.3-2-1-2.7s-1.6-1-2.8-1c-1.2,0-2.2,0.3-2.9,1
			c-0.7,0.7-1.1,1.6-1.1,2.7c0,0.6,0.2,1.3,0.5,2c0.3,0.7,0.8,1.5,1.5,2.3L-1630.2,1484.1z"/>
		<path class="st0" d="M-1546.9,1467v48.9h-9.2v-4.9c-1.4,2.1-3,3.6-4.7,4.6c-1.7,1-3.8,1.5-6.1,1.5c-4.4,0-8.1-1.8-10.8-5.3
			s-4.1-8.1-4.1-13.8c0-5.8,1.4-10.4,4.1-14c2.8-3.6,6.3-5.4,10.7-5.4c2.3,0,4.4,0.5,6.2,1.5c1.8,1,3.3,2.4,4.5,4.3V1467H-1546.9z
			 M-1572.1,1497.6c0,3.7,0.7,6.4,2.1,8.4c1.4,1.9,3.4,2.9,5.9,2.9c2.6,0,4.5-1,5.9-2.9c1.3-1.9,2-4.7,2-8.4c0-3.4-0.7-6-2.1-7.9
			c-1.4-1.8-3.4-2.8-6-2.8c-2.4,0-4.3,0.9-5.7,2.8S-1572.1,1494.3-1572.1,1497.6z"/>
		<path class="st0" d="M-1516,1505h9.6c-1,3.8-2.9,6.8-5.9,8.9s-6.6,3.2-10.8,3.2c-5.2,0-9.4-1.8-12.4-5.3
			c-3.1-3.5-4.6-8.3-4.6-14.3c0-5.9,1.5-10.6,4.5-14c3-3.4,7.1-5.1,12.4-5.1c5.5,0,9.8,1.7,12.8,5c3,3.4,4.5,8.1,4.5,14.3
			c0,0.7,0,1.2,0,1.5c0,0.3,0,0.7-0.1,1h-24.1c0.1,2.8,0.8,5,2.1,6.4c1.3,1.4,3,2.2,5.4,2.2c1.7,0,3-0.3,4.1-1
			C-1517.4,1507.4-1516.6,1506.3-1516,1505z M-1530,1494.1h14.2c-0.1-2.4-0.7-4.3-1.9-5.6c-1.2-1.3-2.9-1.9-5.2-1.9
			c-2.1,0-3.8,0.6-5,1.9C-1529.1,1489.8-1529.8,1491.7-1530,1494.1z"/>
		<path class="st0" d="M-1490.6,1515.9l-13-36.1h10.7l7.4,25.9l7.5-25.9h10.2l-12.9,36.1H-1490.6z"/>
		<path class="st0" d="M-1441.2,1505h9.6c-1,3.8-2.9,6.8-5.9,8.9s-6.6,3.2-10.8,3.2c-5.2,0-9.4-1.8-12.4-5.3
			c-3.1-3.5-4.6-8.3-4.6-14.3c0-5.9,1.5-10.6,4.5-14c3-3.4,7.1-5.1,12.4-5.1c5.5,0,9.8,1.7,12.8,5c3,3.4,4.5,8.1,4.5,14.3
			c0,0.7,0,1.2,0,1.5c0,0.3,0,0.7-0.1,1h-24.1c0.1,2.8,0.8,5,2.1,6.4c1.3,1.4,3,2.2,5.4,2.2c1.7,0,3-0.3,4.1-1
			C-1442.7,1507.4-1441.8,1506.3-1441.2,1505z M-1455.3,1494.1h14.2c-0.1-2.4-0.7-4.3-1.9-5.6c-1.2-1.3-2.9-1.9-5.2-1.9
			c-2.1,0-3.8,0.6-5,1.9C-1454.4,1489.8-1455.1,1491.7-1455.3,1494.1z"/>
		<path class="st0" d="M-1424.4,1515.9V1467h9.7v48.9H-1424.4z"/>
		<path class="st0" d="M-1407.8,1497.8c0-6,1.6-10.7,4.9-14.1c3.3-3.4,7.7-5.1,13.4-5.1c5.7,0,10.1,1.7,13.4,5.1
			c3.3,3.4,4.9,8.1,4.9,14.1c0,6-1.6,10.7-4.9,14.2c-3.3,3.4-7.7,5.1-13.4,5.1c-5.7,0-10.2-1.7-13.4-5.1
			C-1406.2,1508.6-1407.8,1503.9-1407.8,1497.8z M-1398,1497.8c0,3.6,0.7,6.4,2.2,8.3c1.5,1.9,3.6,2.9,6.3,2.9c2.7,0,4.8-1,6.2-2.9
			c1.5-1.9,2.2-4.7,2.2-8.3c0-3.6-0.7-6.3-2.2-8.3c-1.5-1.9-3.5-2.9-6.2-2.9c-2.7,0-4.8,1-6.3,2.9
			C-1397.3,1491.5-1398,1494.3-1398,1497.8z"/>
		<path class="st0" d="M-1364.5,1530.4v-50.6h9.2v4.9c1.4-2.1,2.9-3.7,4.7-4.6c1.7-1,3.7-1.5,6.1-1.5c4.4,0,8.1,1.8,10.8,5.3
			c2.8,3.5,4.2,8.1,4.2,13.8c0,5.8-1.4,10.5-4.2,14.1c-2.8,3.6-6.3,5.4-10.7,5.4c-2.3,0-4.4-0.5-6.2-1.5s-3.3-2.4-4.5-4.3v19
			H-1364.5z M-1339.2,1498.1c0-3.6-0.7-6.4-2.1-8.3c-1.4-1.9-3.4-2.9-6-2.9c-2.6,0-4.5,1-5.9,2.9c-1.3,1.9-2,4.7-2,8.3
			c0,3.4,0.7,6,2.1,7.9s3.4,2.8,6,2.8c2.4,0,4.3-1,5.7-2.9C-1339.9,1504-1339.2,1501.4-1339.2,1498.1z"/>
		<path class="st0" d="M-1323,1515.9v-36.1h9.2v4c1.3-1.7,2.9-2.9,4.5-3.8c1.7-0.8,3.5-1.3,5.5-1.3c2.3,0,4.2,0.4,5.8,1.3
			c1.6,0.9,3,2.2,4.2,4c1.3-1.8,2.8-3.1,4.5-4c1.7-0.9,3.7-1.3,5.8-1.3c3.6,0,6.5,1.1,8.6,3.2s3.2,5,3.2,8.7v25.2h-9.5v-23.2
			c0-1.7-0.5-3.1-1.4-4.1s-2.3-1.4-3.9-1.4c-1.9,0-3.4,0.6-4.5,1.8c-1.1,1.2-1.7,2.9-1.7,5v21.9h-9.4v-23.2c0-1.8-0.5-3.1-1.4-4.1
			c-0.9-1-2.2-1.5-3.9-1.5c-1.9,0-3.4,0.6-4.5,1.9c-1.1,1.2-1.6,2.9-1.6,5.1v21.8H-1323z"/>
		<path class="st0" d="M-1241.1,1505h9.6c-1,3.8-2.9,6.8-5.9,8.9s-6.6,3.2-10.8,3.2c-5.2,0-9.4-1.8-12.4-5.3
			c-3.1-3.5-4.6-8.3-4.6-14.3c0-5.9,1.5-10.6,4.5-14c3-3.4,7.1-5.1,12.4-5.1c5.5,0,9.8,1.7,12.8,5c3,3.4,4.5,8.1,4.5,14.3
			c0,0.7,0,1.2,0,1.5c0,0.3,0,0.7-0.1,1h-24.1c0.1,2.8,0.8,5,2.1,6.4c1.3,1.4,3,2.2,5.4,2.2c1.7,0,3-0.3,4.1-1
			C-1242.6,1507.4-1241.7,1506.3-1241.1,1505z M-1255.2,1494.1h14.2c-0.1-2.4-0.7-4.3-1.9-5.6c-1.2-1.3-2.9-1.9-5.2-1.9
			c-2.1,0-3.8,0.6-5,1.9C-1254.3,1489.8-1255,1491.7-1255.2,1494.1z"/>
		<path class="st0" d="M-1224.6,1515.9v-36.1h9.5v4.3c1.3-1.7,2.9-3.1,4.8-3.9c1.8-0.9,3.9-1.3,6.1-1.3c4,0,7,1,8.9,3.1
			c2,2.1,3,5.2,3,9.3v24.6h-9.7v-21.8c0-2.6-0.4-4.4-1.3-5.5c-0.9-1.1-2.3-1.7-4.3-1.7c-2.3,0-4.1,0.7-5.4,2s-2,3.2-2,5.6v21.4
			H-1224.6z"/>
		<path class="st0" d="M-1168,1516.2c-0.9,0-1.9,0.1-3.2,0.1s-2,0.1-2.3,0.1c-3.7,0-6.2-0.7-7.6-2.1c-1.4-1.4-2-4.1-2-8.2v-19.5
			h-4.8v-6.8h4.8v-9.9h9.6v9.9h5.6v6.8h-5.6v20c0,1,0.2,1.6,0.6,1.9c0.4,0.3,1.3,0.4,2.6,0.4h2.4V1516.2z"/>
		<path class="st0" d="M-1909.3,1561.4v36.1h-9.5v-4.3c-1.4,1.7-3,3.1-4.8,3.9s-3.9,1.3-6.2,1.3c-4,0-6.9-1-8.9-3.1
			c-2-2.1-3-5.2-3-9.3v-24.6h9.7v21.8c0,2.6,0.4,4.4,1.3,5.5s2.3,1.6,4.3,1.6c2.3,0,4.1-0.7,5.4-2c1.3-1.4,2-3.2,2-5.6v-21.3
			H-1909.3z"/>
		<path class="st0" d="M-1905.3,1597.5l12.2-18.4l-11.6-17.7h11l6.4,10.9l6.3-10.9h10.7l-11.4,17.5l12.1,18.6h-11.3l-6.7-11.4
			l-6.6,11.4H-1905.3z"/>
		<path class="st0" d="M-1865.4,1609v-3.9c1.9-0.5,3.2-1.4,4.1-2.5c0.9-1.1,1.3-2.5,1.3-4.3v-0.8h-5.4v-10h10.1v9.6
			c0,3.3-0.8,6-2.5,8C-1859.5,1607.1-1862,1608.4-1865.4,1609z"/>
		<path class="st0" d="M-1794.9,1561.4v36.1h-9.5v-4.3c-1.4,1.7-3,3.1-4.8,3.9s-3.9,1.3-6.2,1.3c-4,0-6.9-1-8.9-3.1
			c-2-2.1-3-5.2-3-9.3v-24.6h9.7v21.8c0,2.6,0.4,4.4,1.3,5.5s2.3,1.6,4.3,1.6c2.3,0,4.1-0.7,5.4-2c1.3-1.4,2-3.2,2-5.6v-21.3
			H-1794.9z"/>
		<path class="st0" d="M-1786.3,1557.4v-8.8h9.7v8.8H-1786.3z M-1786.3,1597.5v-36.1h9.7v36.1H-1786.3z"/>
		<path class="st0" d="M-1739.4,1570.1l-1.9-2.5c-1-1.3-1.7-2.6-2.1-3.7s-0.6-2.4-0.6-3.7c0-3.5,1.1-6.4,3.4-8.5
			c2.3-2.1,5.4-3.1,9.2-3.1c3.7,0,6.7,1,8.9,2.9c2.2,1.9,3.3,4.5,3.3,7.8c0,2.5-0.6,4.7-1.9,6.7c-1.3,2-3.3,3.8-6,5.5l7,8.6
			c0.7-1.1,1.2-2.3,1.6-3.7c0.4-1.4,0.7-2.9,0.8-4.5h8.6c-0.2,2.9-0.8,5.5-1.8,8c-1,2.5-2.3,4.7-3.9,6.7l8.9,10.8h-11.3l-3.3-4.1
			c-1.9,1.8-4.1,3.1-6.4,4.1c-2.3,0.9-4.8,1.4-7.3,1.4c-4.5,0-8.2-1.3-11.1-4c-2.9-2.7-4.3-6.1-4.3-10.3c0-3.1,0.8-5.8,2.4-8
			S-1743.1,1572.2-1739.4,1570.1z M-1734.5,1576.2l-2.5,1.8c-1,0.7-1.8,1.6-2.3,2.6c-0.5,1-0.8,2.1-0.8,3.4c0,1.9,0.6,3.5,1.9,4.7
			c1.3,1.3,2.9,1.9,4.8,1.9c1.4,0,2.8-0.3,4.1-0.9s2.5-1.4,3.6-2.6L-1734.5,1576.2z M-1731.9,1565.7l1.2-0.8
			c1.1-0.7,1.8-1.5,2.4-2.5c0.5-0.9,0.8-1.9,0.8-3.1c0-1.1-0.3-2-1-2.7s-1.6-1-2.8-1c-1.2,0-2.2,0.3-2.9,1c-0.7,0.7-1.1,1.6-1.1,2.7
			c0,0.6,0.2,1.3,0.5,2c0.3,0.7,0.8,1.5,1.5,2.3L-1731.9,1565.7z"/>
		<path class="st0" d="M-1681.5,1557.4v-8.8h9.7v8.8H-1681.5z M-1681.5,1597.5v-36.1h9.7v36.1H-1681.5z"/>
		<path class="st0" d="M-1662.9,1597.5v-48.9h9.7v48.9H-1662.9z"/>
		<path class="st0" d="M-1644.2,1597.5v-48.9h9.7v48.9H-1644.2z"/>
		<path class="st0" d="M-1593.6,1561.4v36.1h-9.5v-4.3c-1.4,1.7-3,3.1-4.8,3.9s-3.9,1.3-6.2,1.3c-4,0-6.9-1-8.9-3.1
			c-2-2.1-3-5.2-3-9.3v-24.6h9.7v21.8c0,2.6,0.4,4.4,1.3,5.5s2.3,1.6,4.3,1.6c2.3,0,4.1-0.7,5.4-2s2-3.2,2-5.6v-21.3H-1593.6z"/>
		<path class="st0" d="M-1587.2,1585.8h9.6c0.1,1.8,0.8,3.2,2,4.1c1.2,0.9,3.1,1.3,5.6,1.3c1.9,0,3.3-0.3,4.4-0.9s1.5-1.5,1.5-2.7
			c0-1.6-1.9-2.9-5.8-3.7c-1.6-0.3-2.8-0.6-3.8-0.9c-4.7-1.2-8-2.6-9.8-4.3s-2.7-3.9-2.7-6.6c0-3.7,1.3-6.6,4-8.8s6.3-3.2,10.8-3.2
			c4.8,0,8.6,1.1,11.4,3.2s4.2,5.2,4.4,9.1h-9.4c-0.1-1.5-0.6-2.7-1.7-3.6s-2.6-1.3-4.6-1.3c-1.8,0-3.2,0.3-4.1,0.8
			s-1.3,1.4-1.3,2.5c0,1.4,2.4,2.7,7.2,3.8c1.1,0.2,2,0.4,2.6,0.6c4.8,1.1,8.1,2.5,9.8,4.1s2.6,3.8,2.6,6.7c0,4.1-1.4,7.2-4.3,9.4
			c-2.9,2.1-7.1,3.2-12.6,3.2c-5,0-8.9-1.1-11.7-3.4c-2.8-2.2-4.2-5.3-4.2-9.2V1585.8z"/>
		<path class="st0" d="M-1532,1597.8c-0.9,0-1.9,0.1-3.2,0.1c-1.2,0.1-2,0.1-2.3,0.1c-3.7,0-6.2-0.7-7.6-2.1s-2-4.1-2-8.2v-19.5
			h-4.8v-6.8h4.8v-9.9h9.6v9.9h5.6v6.8h-5.6v20c0,1,0.2,1.6,0.6,1.9c0.4,0.3,1.3,0.4,2.6,0.4h2.4V1597.8z"/>
		<path class="st0" d="M-1526.5,1597.5v-36.1h9v6.2c1.3-2.5,2.7-4.3,4.4-5.5c1.7-1.2,3.7-1.7,6-1.7c0.4,0,0.7,0,0.9,0s0.4,0,0.5,0
			l0,9.8h-3.2c-2.6,0-4.6,0.7-5.9,2.1s-2,3.4-2,6.1v19.1H-1526.5z"/>
		<path class="st0" d="M-1479.7,1593.1c-1.2,1.9-2.8,3.3-4.8,4.3c-2,1-4.3,1.5-6.9,1.5c-3.5,0-6.2-1-8.1-3s-2.8-4.8-2.8-8.5
			c0-3.4,0.9-6,2.8-7.8s5-3,9.4-3.7c1-0.2,2.3-0.3,3.9-0.5c4.1-0.5,6.1-1.7,6.1-3.6c0-1.5-0.5-2.5-1.4-3.1s-2.4-0.9-4.5-0.9
			c-1.9,0-3.4,0.4-4.5,1.2c-1,0.8-1.6,1.9-1.6,3.3v0.5h-9v-0.7c0-3.7,1.3-6.6,3.9-8.7c2.6-2.1,6.2-3.2,10.8-3.2
			c5,0,8.9,0.9,11.6,2.6s4,4.3,4,7.6v20.5c0,1.5,0.2,2.6,0.5,3.4s0.8,1.3,1.6,1.7v1.6h-10.1c-0.3-0.6-0.6-1.3-0.8-2.1
			S-1479.7,1593.9-1479.7,1593.1z M-1479.8,1579.8c-1.6,0.7-3.4,1.3-5.4,1.8c-2,0.4-3.1,0.7-3.2,0.7c-1.7,0.5-2.9,1.1-3.6,1.8
			s-1,1.7-1,3c0,1.3,0.4,2.4,1.3,3.2s2,1.2,3.5,1.2c2.6,0,4.7-0.7,6.2-2.2s2.2-3.5,2.2-6V1579.8z"/>
		<path class="st0" d="M-1446.1,1597.8c-0.9,0-1.9,0.1-3.2,0.1c-1.2,0.1-2,0.1-2.3,0.1c-3.7,0-6.2-0.7-7.6-2.1s-2-4.1-2-8.2v-19.5
			h-4.8v-6.8h4.8v-9.9h9.6v9.9h5.6v6.8h-5.6v20c0,1,0.2,1.6,0.6,1.9c0.4,0.3,1.3,0.4,2.6,0.4h2.4V1597.8z"/>
		<path class="st0" d="M-1440.3,1557.4v-8.8h9.7v8.8H-1440.3z M-1440.3,1597.5v-36.1h9.7v36.1H-1440.3z"/>
		<path class="st0" d="M-1423.9,1579.4c0-6,1.6-10.7,4.9-14.1s7.7-5.1,13.4-5.1c5.7,0,10.1,1.7,13.4,5.1s4.9,8.1,4.9,14.1
			c0,6-1.6,10.7-4.9,14.2s-7.7,5.1-13.4,5.1c-5.7,0-10.2-1.7-13.4-5.1S-1423.9,1585.5-1423.9,1579.4z M-1414.1,1579.4
			c0,3.6,0.7,6.4,2.2,8.3s3.6,2.9,6.3,2.9c2.7,0,4.8-1,6.2-2.9s2.2-4.7,2.2-8.3c0-3.6-0.7-6.3-2.2-8.3s-3.5-2.9-6.2-2.9
			c-2.7,0-4.8,1-6.3,2.9S-1414.1,1575.9-1414.1,1579.4z"/>
		<path class="st0" d="M-1380.7,1597.5v-36.1h9.5v4.3c1.3-1.7,2.9-3.1,4.8-3.9c1.8-0.9,3.9-1.3,6.1-1.3c4,0,7,1,8.9,3.1s3,5.2,3,9.3
			v24.6h-9.7v-21.8c0-2.6-0.4-4.4-1.3-5.5s-2.3-1.7-4.3-1.7c-2.3,0-4.1,0.7-5.4,2s-2,3.2-2,5.6v21.4H-1380.7z"/>
		<path class="st0" d="M-1342.1,1585.8h9.6c0.1,1.8,0.8,3.2,2,4.1c1.2,0.9,3.1,1.3,5.6,1.3c1.9,0,3.3-0.3,4.4-0.9s1.5-1.5,1.5-2.7
			c0-1.6-1.9-2.9-5.8-3.7c-1.6-0.3-2.8-0.6-3.8-0.9c-4.7-1.2-8-2.6-9.8-4.3s-2.7-3.9-2.7-6.6c0-3.7,1.3-6.6,4-8.8s6.3-3.2,10.8-3.2
			c4.8,0,8.6,1.1,11.4,3.2s4.2,5.2,4.4,9.1h-9.4c-0.1-1.5-0.6-2.7-1.7-3.6s-2.6-1.3-4.6-1.3c-1.8,0-3.2,0.3-4.1,0.8
			s-1.3,1.4-1.3,2.5c0,1.4,2.4,2.7,7.2,3.8c1.1,0.2,2,0.4,2.6,0.6c4.8,1.1,8.1,2.5,9.8,4.1s2.6,3.8,2.6,6.7c0,4.1-1.4,7.2-4.3,9.4
			c-2.9,2.1-7.1,3.2-12.6,3.2c-5,0-8.9-1.1-11.7-3.4c-2.8-2.2-4.2-5.3-4.2-9.2V1585.8z"/>
	</g>
	<g>
		<g>
			<path class="st1" d="M-2089.7,1512.6l10.6,0c0.3,1.2,0.9,2.1,1.9,2.7s2.3,0.9,3.9,0.9c3,0,5.1-0.6,6.3-1.9s1.8-3.6,1.8-7.1v-3.2
				c-1,1.7-2.3,3-4,3.9s-3.7,1.2-6.1,1.2c-4.7,0-8.4-1.7-11.2-5c-2.8-3.3-4.2-7.8-4.2-13.3c0-5.8,1.4-10.5,4.1-13.9
				c2.8-3.4,6.5-5.2,11.1-5.2c2.4,0,4.5,0.5,6.2,1.4c1.7,0.9,3.1,2.3,4.2,4.3v-4.3h9.2v33.7c0,3.8-0.4,6.7-1.1,8.7
				c-0.7,2-1.9,3.7-3.6,5c-1.5,1.1-3.3,2-5.6,2.6c-2.2,0.6-4.8,0.9-7.7,0.9c-4.8,0-8.6-1-11.4-3
				C-2088,1519-2089.5,1516.2-2089.7,1512.6z M-2080.9,1490.5c0,3.4,0.7,6,2,7.8c1.4,1.8,3.3,2.7,5.8,2.7c2.5,0,4.5-0.9,5.8-2.7
				c1.3-1.8,2-4.5,2-7.9c0-3.3-0.7-5.8-2.1-7.7c-1.4-1.8-3.3-2.7-5.9-2.7c-2.5,0-4.4,0.9-5.7,2.8
				C-2080.3,1484.6-2080.9,1487.2-2080.9,1490.5z"/>
			<path class="st1" d="M-2026.7,1504.7c-1.2,1.9-2.8,3.3-4.8,4.3c-2,1-4.3,1.5-6.9,1.5c-3.5,0-6.2-1-8.1-3s-2.8-4.8-2.8-8.5
				c0-3.4,0.9-6,2.8-7.8s5-3,9.4-3.7c1-0.2,2.3-0.3,3.9-0.5c4.1-0.5,6.1-1.7,6.1-3.6c0-1.5-0.5-2.5-1.4-3.1
				c-0.9-0.6-2.4-0.9-4.5-0.9c-1.9,0-3.4,0.4-4.5,1.2c-1,0.8-1.6,1.9-1.6,3.3v0.5h-9v-0.7c0-3.7,1.3-6.6,3.9-8.7
				c2.6-2.1,6.2-3.2,10.8-3.2c5,0,8.9,0.9,11.6,2.6c2.7,1.7,4,4.3,4,7.6v20.5c0,1.5,0.2,2.6,0.5,3.4c0.3,0.7,0.8,1.3,1.6,1.7v1.6
				h-10.1c-0.3-0.6-0.6-1.3-0.8-2.1C-2026.6,1506.3-2026.7,1505.5-2026.7,1504.7z M-2026.9,1491.4c-1.6,0.7-3.4,1.3-5.4,1.8
				c-2,0.4-3.1,0.7-3.2,0.7c-1.7,0.5-2.9,1.1-3.6,1.8c-0.7,0.7-1,1.7-1,3c0,1.3,0.4,2.4,1.3,3.2c0.9,0.8,2,1.2,3.5,1.2
				c2.6,0,4.7-0.7,6.2-2.2c1.5-1.5,2.2-3.5,2.2-6V1491.4z"/>
			<path class="st1" d="M-2009.2,1509.1V1473h9.2v4c1.4-1.7,2.9-2.9,4.5-3.8c1.7-0.8,3.5-1.3,5.5-1.3c2.3,0,4.2,0.4,5.8,1.3
				c1.6,0.9,3,2.2,4.2,4c1.3-1.8,2.8-3.1,4.5-4c1.7-0.9,3.7-1.3,5.8-1.3c3.6,0,6.5,1.1,8.6,3.2s3.2,5,3.2,8.7v25.2h-9.5v-23.2
				c0-1.7-0.5-3.1-1.4-4.1c-0.9-1-2.3-1.4-3.9-1.4c-1.9,0-3.4,0.6-4.5,1.8c-1.1,1.2-1.7,2.9-1.7,5v21.9h-9.4V1486
				c0-1.8-0.5-3.1-1.4-4.1c-0.9-1-2.2-1.5-3.9-1.5c-1.9,0-3.4,0.6-4.5,1.9c-1.1,1.2-1.6,2.9-1.6,5.1v21.8H-2009.2z"/>
			<path class="st1" d="M-1927.3,1498.2h9.6c-1,3.8-2.9,6.8-5.9,8.9s-6.6,3.2-10.8,3.2c-5.2,0-9.4-1.8-12.4-5.3
				c-3.1-3.5-4.6-8.3-4.6-14.3c0-5.9,1.5-10.6,4.5-14c3-3.4,7.1-5.1,12.4-5.1c5.5,0,9.8,1.7,12.8,5c3,3.4,4.5,8.1,4.5,14.3
				c0,0.7,0,1.2,0,1.5c0,0.3,0,0.7-0.1,1h-24.1c0.1,2.8,0.8,5,2.1,6.4c1.3,1.4,3,2.2,5.4,2.2c1.7,0,3-0.3,4.1-1
				C-1928.7,1500.6-1927.9,1499.5-1927.3,1498.2z M-1941.4,1487.3h14.2c-0.1-2.4-0.7-4.3-1.9-5.6c-1.2-1.3-2.9-1.9-5.2-1.9
				c-2.1,0-3.8,0.6-5,1.9C-1940.5,1483-1941.2,1484.9-1941.4,1487.3z"/>
			<path class="st1" d="M-1858.3,1460.2v48.9h-9.2v-4.9c-1.4,2.1-3,3.6-4.7,4.6c-1.7,1-3.8,1.5-6.1,1.5c-4.4,0-8.1-1.8-10.8-5.3
				s-4.1-8.1-4.1-13.8c0-5.8,1.4-10.4,4.1-14c2.8-3.6,6.3-5.4,10.7-5.4c2.3,0,4.4,0.5,6.2,1.5c1.8,1,3.3,2.4,4.5,4.3v-17.3H-1858.3z
				 M-1883.5,1490.8c0,3.7,0.7,6.4,2.1,8.4c1.4,1.9,3.4,2.9,5.9,2.9c2.6,0,4.5-1,5.9-2.9c1.4-1.9,2-4.7,2-8.4c0-3.4-0.7-6-2.1-7.9
				c-1.4-1.8-3.4-2.8-6-2.8c-2.4,0-4.3,0.9-5.7,2.8S-1883.5,1487.5-1883.5,1490.8z"/>
			<path class="st1" d="M-1827.4,1498.2h9.6c-1,3.8-2.9,6.8-5.9,8.9s-6.6,3.2-10.8,3.2c-5.2,0-9.4-1.8-12.4-5.3
				c-3.1-3.5-4.6-8.3-4.6-14.3c0-5.9,1.5-10.6,4.5-14c3-3.4,7.1-5.1,12.4-5.1c5.5,0,9.8,1.7,12.8,5c3,3.4,4.5,8.1,4.5,14.3
				c0,0.7,0,1.2,0,1.5c0,0.3,0,0.7-0.1,1h-24.1c0.1,2.8,0.8,5,2.1,6.4c1.3,1.4,3,2.2,5.4,2.2c1.7,0,3-0.3,4.1-1
				C-1828.8,1500.6-1828,1499.5-1827.4,1498.2z M-1841.4,1487.3h14.2c-0.1-2.4-0.7-4.3-1.9-5.6c-1.2-1.3-2.9-1.9-5.2-1.9
				c-2.1,0-3.8,0.6-5,1.9C-1840.5,1483-1841.2,1484.9-1841.4,1487.3z"/>
			<path class="st1" d="M-1812.9,1497.4h9.6c0.1,1.8,0.8,3.2,2,4.1c1.2,0.9,3.1,1.3,5.6,1.3c1.9,0,3.3-0.3,4.4-0.9s1.5-1.5,1.5-2.7
				c0-1.6-1.9-2.9-5.8-3.7c-1.6-0.3-2.8-0.6-3.8-0.9c-4.7-1.2-8-2.6-9.8-4.3c-1.8-1.6-2.7-3.9-2.7-6.6c0-3.7,1.3-6.6,4-8.8
				c2.7-2.2,6.3-3.2,10.8-3.2c4.8,0,8.6,1.1,11.4,3.2c2.8,2.1,4.2,5.2,4.4,9.1h-9.4c-0.1-1.5-0.6-2.7-1.7-3.6
				c-1.1-0.8-2.6-1.3-4.6-1.3c-1.8,0-3.2,0.3-4.1,0.8c-0.9,0.6-1.3,1.4-1.3,2.5c0,1.4,2.4,2.7,7.2,3.8c1.1,0.2,2,0.4,2.6,0.6
				c4.8,1.1,8.1,2.5,9.8,4.1s2.6,3.8,2.6,6.7c0,4.1-1.4,7.2-4.3,9.4c-2.9,2.1-7.1,3.2-12.6,3.2c-5,0-8.9-1.1-11.7-3.4
				c-2.8-2.2-4.2-5.3-4.2-9.2V1497.4z"/>
			<path class="st1" d="M-1773.5,1469v-8.8h9.7v8.8H-1773.5z M-1773.5,1509.1V1473h9.7v36.1H-1773.5z"/>
			<path class="st1" d="M-1756.1,1512.6l10.6,0c0.3,1.2,0.9,2.1,1.9,2.7s2.3,0.9,3.9,0.9c3,0,5.1-0.6,6.3-1.9s1.8-3.6,1.8-7.1v-3.2
				c-1,1.7-2.3,3-4,3.9s-3.7,1.2-6.1,1.2c-4.7,0-8.4-1.7-11.2-5c-2.8-3.3-4.2-7.8-4.2-13.3c0-5.8,1.4-10.5,4.1-13.9
				c2.8-3.4,6.5-5.2,11.1-5.2c2.4,0,4.5,0.5,6.2,1.4c1.7,0.9,3.1,2.3,4.2,4.3v-4.3h9.2v33.7c0,3.8-0.4,6.7-1.1,8.7
				c-0.7,2-1.9,3.7-3.6,5c-1.5,1.1-3.3,2-5.6,2.6c-2.2,0.6-4.8,0.9-7.7,0.9c-4.8,0-8.6-1-11.4-3
				C-1754.4,1519-1755.9,1516.2-1756.1,1512.6z M-1747.4,1490.5c0,3.4,0.7,6,2,7.8c1.4,1.8,3.3,2.7,5.8,2.7c2.5,0,4.5-0.9,5.8-2.7
				c1.3-1.8,2-4.5,2-7.9c0-3.3-0.7-5.8-2.1-7.7c-1.4-1.8-3.3-2.7-5.9-2.7c-2.5,0-4.4,0.9-5.7,2.8
				C-1746.7,1484.6-1747.4,1487.2-1747.4,1490.5z"/>
			<path class="st1" d="M-1713.8,1509.1V1473h9.5v4.3c1.4-1.7,2.9-3.1,4.8-3.9c1.8-0.9,3.9-1.3,6.1-1.3c4,0,7,1,8.9,3.1
				c2,2.1,3,5.2,3,9.3v24.6h-9.7v-21.8c0-2.6-0.4-4.4-1.3-5.5c-0.9-1.1-2.3-1.7-4.3-1.7c-2.3,0-4.1,0.7-5.4,2s-2,3.2-2,5.6v21.4
				H-1713.8z"/>
			<path class="st1" d="M-1644.5,1481.7l-1.9-2.5c-1-1.3-1.7-2.6-2.1-3.7s-0.6-2.4-0.6-3.7c0-3.5,1.1-6.4,3.4-8.5
				c2.3-2.1,5.4-3.1,9.2-3.1c3.7,0,6.7,1,8.9,2.9c2.2,1.9,3.3,4.5,3.3,7.8c0,2.5-0.6,4.7-1.9,6.7c-1.3,2-3.3,3.8-6,5.5l7,8.6
				c0.7-1.1,1.2-2.3,1.6-3.7c0.4-1.3,0.7-2.9,0.8-4.5h8.6c-0.2,2.9-0.8,5.5-1.8,8c-1,2.5-2.3,4.7-3.9,6.7l8.9,10.8h-11.3l-3.3-4.1
				c-1.9,1.8-4.1,3.1-6.4,4.1c-2.3,0.9-4.8,1.4-7.3,1.4c-4.5,0-8.2-1.3-11.1-4c-2.9-2.7-4.3-6.1-4.3-10.3c0-3.1,0.8-5.8,2.4-8
				C-1650.9,1486-1648.2,1483.8-1644.5,1481.7z M-1639.7,1487.8l-2.5,1.8c-1,0.7-1.8,1.6-2.3,2.6c-0.5,1-0.8,2.1-0.8,3.4
				c0,1.9,0.6,3.5,1.9,4.7c1.3,1.3,2.9,1.9,4.8,1.9c1.4,0,2.8-0.3,4.1-0.9c1.3-0.6,2.5-1.4,3.6-2.6L-1639.7,1487.8z M-1637,1477.3
				l1.2-0.8c1.1-0.7,1.8-1.5,2.4-2.5c0.5-0.9,0.8-1.9,0.8-3.1c0-1.1-0.3-2-1-2.7s-1.6-1-2.8-1c-1.2,0-2.2,0.3-2.9,1
				c-0.7,0.7-1.1,1.6-1.1,2.7c0,0.6,0.2,1.3,0.5,2c0.3,0.7,0.8,1.5,1.5,2.3L-1637,1477.3z"/>
			<path class="st1" d="M-1553.7,1460.2v48.9h-9.2v-4.9c-1.4,2.1-3,3.6-4.7,4.6c-1.7,1-3.8,1.5-6.1,1.5c-4.4,0-8.1-1.8-10.8-5.3
				s-4.1-8.1-4.1-13.8c0-5.8,1.4-10.4,4.1-14c2.8-3.6,6.3-5.4,10.7-5.4c2.3,0,4.4,0.5,6.2,1.5c1.8,1,3.3,2.4,4.5,4.3v-17.3H-1553.7z
				 M-1578.9,1490.8c0,3.7,0.7,6.4,2.1,8.4c1.4,1.9,3.4,2.9,5.9,2.9c2.6,0,4.5-1,5.9-2.9c1.3-1.9,2-4.7,2-8.4c0-3.4-0.7-6-2.1-7.9
				c-1.4-1.8-3.4-2.8-6-2.8c-2.4,0-4.3,0.9-5.7,2.8S-1578.9,1487.5-1578.9,1490.8z"/>
			<path class="st1" d="M-1522.8,1498.2h9.6c-1,3.8-2.9,6.8-5.9,8.9s-6.6,3.2-10.8,3.2c-5.2,0-9.4-1.8-12.4-5.3
				c-3.1-3.5-4.6-8.3-4.6-14.3c0-5.9,1.5-10.6,4.5-14c3-3.4,7.1-5.1,12.4-5.1c5.5,0,9.8,1.7,12.8,5c3,3.4,4.5,8.1,4.5,14.3
				c0,0.7,0,1.2,0,1.5c0,0.3,0,0.7-0.1,1h-24.1c0.1,2.8,0.8,5,2.1,6.4c1.3,1.4,3,2.2,5.4,2.2c1.7,0,3-0.3,4.1-1
				C-1524.2,1500.6-1523.4,1499.5-1522.8,1498.2z M-1536.8,1487.3h14.2c-0.1-2.4-0.7-4.3-1.9-5.6c-1.2-1.3-2.9-1.9-5.2-1.9
				c-2.1,0-3.8,0.6-5,1.9C-1535.9,1483-1536.6,1484.9-1536.8,1487.3z"/>
			<path class="st1" d="M-1497.4,1509.1l-13-36.1h10.7l7.4,25.9l7.5-25.9h10.2l-12.9,36.1H-1497.4z"/>
			<path class="st1" d="M-1448,1498.2h9.6c-1,3.8-2.9,6.8-5.9,8.9s-6.6,3.2-10.8,3.2c-5.2,0-9.4-1.8-12.4-5.3
				c-3.1-3.5-4.6-8.3-4.6-14.3c0-5.9,1.5-10.6,4.5-14c3-3.4,7.1-5.1,12.4-5.1c5.5,0,9.8,1.7,12.8,5c3,3.4,4.5,8.1,4.5,14.3
				c0,0.7,0,1.2,0,1.5c0,0.3,0,0.7-0.1,1h-24.1c0.1,2.8,0.8,5,2.1,6.4c1.3,1.4,3,2.2,5.4,2.2c1.7,0,3-0.3,4.1-1
				C-1449.5,1500.6-1448.6,1499.5-1448,1498.2z M-1462.1,1487.3h14.2c-0.1-2.4-0.7-4.3-1.9-5.6c-1.2-1.3-2.9-1.9-5.2-1.9
				c-2.1,0-3.8,0.6-5,1.9C-1461.2,1483-1461.9,1484.9-1462.1,1487.3z"/>
			<path class="st1" d="M-1431.2,1509.1v-48.9h9.7v48.9H-1431.2z"/>
			<path class="st1" d="M-1414.6,1491c0-6,1.6-10.7,4.9-14.1c3.3-3.4,7.7-5.1,13.4-5.1c5.7,0,10.1,1.7,13.4,5.1
				c3.3,3.4,4.9,8.1,4.9,14.1c0,6-1.6,10.7-4.9,14.2c-3.3,3.4-7.7,5.1-13.4,5.1c-5.7,0-10.2-1.7-13.4-5.1
				C-1413,1501.8-1414.6,1497.1-1414.6,1491z M-1404.8,1491c0,3.6,0.7,6.4,2.2,8.3c1.5,1.9,3.6,2.9,6.3,2.9c2.7,0,4.8-1,6.2-2.9
				c1.5-1.9,2.2-4.7,2.2-8.3c0-3.6-0.7-6.3-2.2-8.3c-1.5-1.9-3.5-2.9-6.2-2.9c-2.7,0-4.8,1-6.3,2.9
				C-1404.1,1484.7-1404.8,1487.5-1404.8,1491z"/>
			<path class="st1" d="M-1371.3,1523.6V1473h9.2v4.9c1.4-2.1,2.9-3.7,4.7-4.6c1.7-1,3.7-1.5,6.1-1.5c4.4,0,8.1,1.8,10.8,5.3
				c2.8,3.5,4.2,8.1,4.2,13.8c0,5.8-1.4,10.5-4.2,14.1c-2.8,3.6-6.3,5.4-10.7,5.4c-2.3,0-4.4-0.5-6.2-1.5s-3.3-2.4-4.5-4.3v19
				H-1371.3z M-1346,1491.3c0-3.6-0.7-6.4-2.1-8.3c-1.4-1.9-3.4-2.9-6-2.9c-2.6,0-4.5,1-5.9,2.9c-1.3,1.9-2,4.7-2,8.3
				c0,3.4,0.7,6,2.1,7.9s3.4,2.8,6,2.8c2.4,0,4.3-1,5.7-2.9C-1346.7,1497.2-1346,1494.6-1346,1491.3z"/>
			<path class="st1" d="M-1329.8,1509.1V1473h9.2v4c1.3-1.7,2.9-2.9,4.5-3.8c1.7-0.8,3.5-1.3,5.5-1.3c2.3,0,4.2,0.4,5.8,1.3
				c1.6,0.9,3,2.2,4.2,4c1.3-1.8,2.8-3.1,4.5-4c1.7-0.9,3.7-1.3,5.8-1.3c3.6,0,6.5,1.1,8.6,3.2s3.2,5,3.2,8.7v25.2h-9.5v-23.2
				c0-1.7-0.5-3.1-1.4-4.1s-2.3-1.4-3.9-1.4c-1.9,0-3.4,0.6-4.5,1.8c-1.1,1.2-1.7,2.9-1.7,5v21.9h-9.4V1486c0-1.8-0.5-3.1-1.4-4.1
				c-0.9-1-2.2-1.5-3.9-1.5c-1.9,0-3.4,0.6-4.5,1.9c-1.1,1.2-1.6,2.9-1.6,5.1v21.8H-1329.8z"/>
			<path class="st1" d="M-1247.9,1498.2h9.6c-1,3.8-2.9,6.8-5.9,8.9s-6.6,3.2-10.8,3.2c-5.2,0-9.4-1.8-12.4-5.3
				c-3.1-3.5-4.6-8.3-4.6-14.3c0-5.9,1.5-10.6,4.5-14c3-3.4,7.1-5.1,12.4-5.1c5.5,0,9.8,1.7,12.8,5c3,3.4,4.5,8.1,4.5,14.3
				c0,0.7,0,1.2,0,1.5c0,0.3,0,0.7-0.1,1h-24.1c0.1,2.8,0.8,5,2.1,6.4c1.3,1.4,3,2.2,5.4,2.2c1.7,0,3-0.3,4.1-1
				C-1249.4,1500.6-1248.5,1499.5-1247.9,1498.2z M-1262,1487.3h14.2c-0.1-2.4-0.7-4.3-1.9-5.6c-1.2-1.3-2.9-1.9-5.2-1.9
				c-2.1,0-3.8,0.6-5,1.9C-1261.1,1483-1261.8,1484.9-1262,1487.3z"/>
			<path class="st1" d="M-1231.4,1509.1V1473h9.5v4.3c1.3-1.7,2.9-3.1,4.8-3.9c1.8-0.9,3.9-1.3,6.1-1.3c4,0,7,1,8.9,3.1
				c2,2.1,3,5.2,3,9.3v24.6h-9.7v-21.8c0-2.6-0.4-4.4-1.3-5.5c-0.9-1.1-2.3-1.7-4.3-1.7c-2.3,0-4.1,0.7-5.4,2s-2,3.2-2,5.6v21.4
				H-1231.4z"/>
			<path class="st1" d="M-1174.8,1509.4c-0.9,0-1.9,0.1-3.2,0.1s-2,0.1-2.3,0.1c-3.7,0-6.2-0.7-7.6-2.1c-1.4-1.4-2-4.1-2-8.2v-19.5
				h-4.8v-6.8h4.8v-9.9h9.6v9.9h5.6v6.8h-5.6v20c0,1,0.2,1.6,0.6,1.9c0.4,0.3,1.3,0.4,2.6,0.4h2.4V1509.4z"/>
			<path class="st1" d="M-1916.1,1554.6v36.1h-9.5v-4.3c-1.4,1.7-3,3.1-4.8,3.9s-3.9,1.3-6.2,1.3c-4,0-6.9-1-8.9-3.1
				c-2-2.1-3-5.2-3-9.3v-24.6h9.7v21.8c0,2.6,0.4,4.4,1.3,5.5s2.3,1.6,4.3,1.6c2.3,0,4.1-0.7,5.4-2c1.3-1.4,2-3.2,2-5.6v-21.3
				H-1916.1z"/>
			<path class="st1" d="M-1912.1,1590.7l12.2-18.4l-11.6-17.7h11l6.4,10.9l6.3-10.9h10.7l-11.4,17.5l12.1,18.6h-11.3l-6.7-11.4
				l-6.6,11.4H-1912.1z"/>
			<path class="st1" d="M-1872.2,1602.2v-3.9c1.9-0.5,3.2-1.4,4.1-2.5c0.9-1.1,1.3-2.5,1.3-4.3v-0.8h-5.4v-10h10.1v9.6
				c0,3.3-0.8,6-2.5,8C-1866.3,1600.3-1868.8,1601.6-1872.2,1602.2z"/>
			<path class="st1" d="M-1801.7,1554.6v36.1h-9.5v-4.3c-1.4,1.7-3,3.1-4.8,3.9s-3.9,1.3-6.2,1.3c-4,0-6.9-1-8.9-3.1
				c-2-2.1-3-5.2-3-9.3v-24.6h9.7v21.8c0,2.6,0.4,4.4,1.3,5.5s2.3,1.6,4.3,1.6c2.3,0,4.1-0.7,5.4-2c1.3-1.4,2-3.2,2-5.6v-21.3
				H-1801.7z"/>
			<path class="st1" d="M-1793.1,1550.6v-8.8h9.7v8.8H-1793.1z M-1793.1,1590.7v-36.1h9.7v36.1H-1793.1z"/>
			<path class="st1" d="M-1746.2,1563.3l-1.9-2.5c-1-1.3-1.7-2.6-2.1-3.7s-0.6-2.4-0.6-3.7c0-3.5,1.1-6.4,3.4-8.5
				c2.3-2.1,5.4-3.1,9.2-3.1c3.7,0,6.7,1,8.9,2.9c2.2,1.9,3.3,4.5,3.3,7.8c0,2.5-0.6,4.7-1.9,6.7c-1.3,2-3.3,3.8-6,5.5l7,8.6
				c0.7-1.1,1.2-2.3,1.6-3.7c0.4-1.4,0.7-2.9,0.8-4.5h8.6c-0.2,2.9-0.8,5.5-1.8,8c-1,2.5-2.3,4.7-3.9,6.7l8.9,10.8h-11.3l-3.3-4.1
				c-1.9,1.8-4.1,3.1-6.4,4.1c-2.3,0.9-4.8,1.4-7.3,1.4c-4.5,0-8.2-1.3-11.1-4c-2.9-2.7-4.3-6.1-4.3-10.3c0-3.1,0.8-5.8,2.4-8
				S-1749.9,1565.4-1746.2,1563.3z M-1741.3,1569.4l-2.5,1.8c-1,0.7-1.8,1.6-2.3,2.6c-0.5,1-0.8,2.1-0.8,3.4c0,1.9,0.6,3.5,1.9,4.7
				c1.3,1.3,2.9,1.9,4.8,1.9c1.4,0,2.8-0.3,4.1-0.9s2.5-1.4,3.6-2.6L-1741.3,1569.4z M-1738.7,1558.9l1.2-0.8
				c1.1-0.7,1.8-1.5,2.4-2.5c0.5-0.9,0.8-1.9,0.8-3.1c0-1.1-0.3-2-1-2.7s-1.6-1-2.8-1c-1.2,0-2.2,0.3-2.9,1
				c-0.7,0.7-1.1,1.6-1.1,2.7c0,0.6,0.2,1.3,0.5,2c0.3,0.7,0.8,1.5,1.5,2.3L-1738.7,1558.9z"/>
			<path class="st1" d="M-1688.3,1550.6v-8.8h9.7v8.8H-1688.3z M-1688.3,1590.7v-36.1h9.7v36.1H-1688.3z"/>
			<path class="st1" d="M-1669.7,1590.7v-48.9h9.7v48.9H-1669.7z"/>
			<path class="st1" d="M-1651,1590.7v-48.9h9.7v48.9H-1651z"/>
			<path class="st1" d="M-1600.4,1554.6v36.1h-9.5v-4.3c-1.4,1.7-3,3.1-4.8,3.9s-3.9,1.3-6.2,1.3c-4,0-6.9-1-8.9-3.1
				c-2-2.1-3-5.2-3-9.3v-24.6h9.7v21.8c0,2.6,0.4,4.4,1.3,5.5s2.3,1.6,4.3,1.6c2.3,0,4.1-0.7,5.4-2s2-3.2,2-5.6v-21.3H-1600.4z"/>
			<path class="st1" d="M-1594,1579h9.6c0.1,1.8,0.8,3.2,2,4.1c1.2,0.9,3.1,1.3,5.6,1.3c1.9,0,3.3-0.3,4.4-0.9s1.5-1.5,1.5-2.7
				c0-1.6-1.9-2.9-5.8-3.7c-1.6-0.3-2.8-0.6-3.8-0.9c-4.7-1.2-8-2.6-9.8-4.3s-2.7-3.9-2.7-6.6c0-3.7,1.3-6.6,4-8.8s6.3-3.2,10.8-3.2
				c4.8,0,8.6,1.1,11.4,3.2s4.2,5.2,4.4,9.1h-9.4c-0.1-1.5-0.6-2.7-1.7-3.6s-2.6-1.3-4.6-1.3c-1.8,0-3.2,0.3-4.1,0.8
				s-1.3,1.4-1.3,2.5c0,1.4,2.4,2.7,7.2,3.8c1.1,0.2,2,0.4,2.6,0.6c4.8,1.1,8.1,2.5,9.8,4.1s2.6,3.8,2.6,6.7c0,4.1-1.4,7.2-4.3,9.4
				c-2.9,2.1-7.1,3.2-12.6,3.2c-5,0-8.9-1.1-11.7-3.4c-2.8-2.2-4.2-5.3-4.2-9.2V1579z"/>
			<path class="st1" d="M-1538.8,1591c-0.9,0-1.9,0.1-3.2,0.1c-1.2,0.1-2,0.1-2.3,0.1c-3.7,0-6.2-0.7-7.6-2.1s-2-4.1-2-8.2v-19.5
				h-4.8v-6.8h4.8v-9.9h9.6v9.9h5.6v6.8h-5.6v20c0,1,0.2,1.6,0.6,1.9c0.4,0.3,1.3,0.4,2.6,0.4h2.4V1591z"/>
			<path class="st1" d="M-1533.3,1590.7v-36.1h9v6.2c1.3-2.5,2.7-4.3,4.4-5.5c1.7-1.2,3.7-1.7,6-1.7c0.4,0,0.7,0,0.9,0s0.4,0,0.5,0
				l0,9.8h-3.2c-2.6,0-4.6,0.7-5.9,2.1s-2,3.4-2,6.1v19.1H-1533.3z"/>
			<path class="st1" d="M-1486.5,1586.3c-1.2,1.9-2.8,3.3-4.8,4.3c-2,1-4.3,1.5-6.9,1.5c-3.5,0-6.2-1-8.1-3s-2.8-4.8-2.8-8.5
				c0-3.4,0.9-6,2.8-7.8s5-3,9.4-3.7c1-0.2,2.3-0.3,3.9-0.5c4.1-0.5,6.1-1.7,6.1-3.6c0-1.5-0.5-2.5-1.4-3.1s-2.4-0.9-4.5-0.9
				c-1.9,0-3.4,0.4-4.5,1.2c-1,0.8-1.6,1.9-1.6,3.3v0.5h-9v-0.7c0-3.7,1.3-6.6,3.9-8.7c2.6-2.1,6.2-3.2,10.8-3.2
				c5,0,8.9,0.9,11.6,2.6s4,4.3,4,7.6v20.5c0,1.5,0.2,2.6,0.5,3.4s0.8,1.3,1.6,1.7v1.6h-10.1c-0.3-0.6-0.6-1.3-0.8-2.1
				S-1486.5,1587.1-1486.5,1586.3z M-1486.6,1573c-1.6,0.7-3.4,1.3-5.4,1.8c-2,0.4-3.1,0.7-3.2,0.7c-1.7,0.5-2.9,1.1-3.6,1.8
				s-1,1.7-1,3c0,1.3,0.4,2.4,1.3,3.2s2,1.2,3.5,1.2c2.6,0,4.7-0.7,6.2-2.2s2.2-3.5,2.2-6V1573z"/>
			<path class="st1" d="M-1452.9,1591c-0.9,0-1.9,0.1-3.2,0.1c-1.2,0.1-2,0.1-2.3,0.1c-3.7,0-6.2-0.7-7.6-2.1s-2-4.1-2-8.2v-19.5
				h-4.8v-6.8h4.8v-9.9h9.6v9.9h5.6v6.8h-5.6v20c0,1,0.2,1.6,0.6,1.9c0.4,0.3,1.3,0.4,2.6,0.4h2.4V1591z"/>
			<path class="st1" d="M-1447.1,1550.6v-8.8h9.7v8.8H-1447.1z M-1447.1,1590.7v-36.1h9.7v36.1H-1447.1z"/>
			<path class="st1" d="M-1430.7,1572.6c0-6,1.6-10.7,4.9-14.1s7.7-5.1,13.4-5.1c5.7,0,10.1,1.7,13.4,5.1s4.9,8.1,4.9,14.1
				c0,6-1.6,10.7-4.9,14.2s-7.7,5.1-13.4,5.1c-5.7,0-10.2-1.7-13.4-5.1S-1430.7,1578.7-1430.7,1572.6z M-1420.9,1572.6
				c0,3.6,0.7,6.4,2.2,8.3s3.6,2.9,6.3,2.9c2.7,0,4.8-1,6.2-2.9s2.2-4.7,2.2-8.3c0-3.6-0.7-6.3-2.2-8.3s-3.5-2.9-6.2-2.9
				c-2.7,0-4.8,1-6.3,2.9S-1420.9,1569.1-1420.9,1572.6z"/>
			<path class="st1" d="M-1387.5,1590.7v-36.1h9.5v4.3c1.3-1.7,2.9-3.1,4.8-3.9c1.8-0.9,3.9-1.3,6.1-1.3c4,0,7,1,8.9,3.1
				s3,5.2,3,9.3v24.6h-9.7v-21.8c0-2.6-0.4-4.4-1.3-5.5s-2.3-1.7-4.3-1.7c-2.3,0-4.1,0.7-5.4,2s-2,3.2-2,5.6v21.4H-1387.5z"/>
			<path class="st1" d="M-1348.9,1579h9.6c0.1,1.8,0.8,3.2,2,4.1c1.2,0.9,3.1,1.3,5.6,1.3c1.9,0,3.3-0.3,4.4-0.9s1.5-1.5,1.5-2.7
				c0-1.6-1.9-2.9-5.8-3.7c-1.6-0.3-2.8-0.6-3.8-0.9c-4.7-1.2-8-2.6-9.8-4.3s-2.7-3.9-2.7-6.6c0-3.7,1.3-6.6,4-8.8s6.3-3.2,10.8-3.2
				c4.8,0,8.6,1.1,11.4,3.2s4.2,5.2,4.4,9.1h-9.4c-0.1-1.5-0.6-2.7-1.7-3.6s-2.6-1.3-4.6-1.3c-1.8,0-3.2,0.3-4.1,0.8
				s-1.3,1.4-1.3,2.5c0,1.4,2.4,2.7,7.2,3.8c1.1,0.2,2,0.4,2.6,0.6c4.8,1.1,8.1,2.5,9.8,4.1s2.6,3.8,2.6,6.7c0,4.1-1.4,7.2-4.3,9.4
				c-2.9,2.1-7.1,3.2-12.6,3.2c-5,0-8.9-1.1-11.7-3.4c-2.8-2.2-4.2-5.3-4.2-9.2V1579z"/>
		</g>
	</g>
</g>
</svg>
