<?xml version="1.0" encoding="utf-8"?>
<!-- Generator: Adobe Illustrator 19.0.0, SVG Export Plug-In . SVG Version: 6.00 Build 0)  -->
<svg version="1.1" id="Camada_1" xmlns="http://www.w3.org/2000/svg" xmlns:xlink="http://www.w3.org/1999/xlink" x="0px" y="0px"
	 viewBox="-2236 1266.7 645.3 348.3" style="enable-background:new -2236 1266.7 645.3 348.3;" xml:space="preserve">
<style type="text/css">
	.st0{fill:#CB3089;}
	.st1{fill:#F5C280;}
</style>
<g>
	<g>
		<path class="st0" d="M-2085.6,1293.4h20.2l30.6,84.9h-18.3l-5.8-17.5h-32.9l-5.6,17.5h-18.4L-2085.6,1293.4z M-2075.5,1310.4
			l-11.8,36.1h23.6L-2075.5,1310.4z"/>
		<path class="st0" d="M-2026.1,1378.3v-84.9h61.6v14.8h-44.4v18.1h40.6v14.5h-40.6v21.8h46.5v15.7H-2026.1z"/>
		<path class="st0" d="M-1931.5,1378.3v-69.7h-25.2v-15.2h67.6v15.2h-25v69.7H-1931.5z"/>
		<path class="st0" d="M-1879,1378.3v-84.9h41.1c9.3,0,16.1,2,20.6,5.9c4.5,4,6.7,10,6.7,18.1c0,5.2-1.1,9.5-3.3,13
			s-5.3,5.8-9.4,7.1c3.7,1.3,6.3,3.3,7.9,6c1.6,2.7,2.4,6.9,2.7,12.6l0.3,10c0,0.1,0,0.2,0,0.3c0.1,5.1,1.2,8.1,3.3,9.2v2.6h-19.1
			c-0.6-1.2-1.1-2.7-1.4-4.4s-0.5-3.8-0.6-6.3l-0.2-8.9c-0.2-5.3-1.2-8.8-3-10.7s-5-2.8-9.7-2.8h-18.5v33H-1879z M-1861.5,1330.5
			h20.5c4.5,0,7.7-0.9,9.8-2.7c2.1-1.8,3.1-4.6,3.1-8.5c0-3.7-1-6.5-3.1-8.4c-2-1.9-5.1-2.9-9.1-2.9h-21.3V1330.5z"/>
		<path class="st0" d="M-1794.2,1378.3v-84.9h17.5v84.9H-1794.2z"/>
		<path class="st0" d="M-1762.4,1352.1h17.2c0.7,4.6,2.6,8.1,5.7,10.3c3.1,2.2,7.7,3.4,13.7,3.4c5.1,0,8.9-0.9,11.5-2.7
			c2.6-1.8,3.9-4.5,3.9-8c0-5.1-7.4-9.4-22.2-12.8c-0.2,0-0.4-0.1-0.5-0.1c-0.4-0.1-1-0.2-1.8-0.4c-7.9-1.7-13.6-3.7-16.9-5.8
			c-3-1.9-5.3-4.5-6.9-7.7c-1.6-3.2-2.4-7.1-2.4-11.5c0-8.3,2.8-14.6,8.4-19c5.6-4.4,13.7-6.6,24.3-6.6c9.9,0,17.7,2.3,23.2,7
			c5.6,4.7,8.5,11.3,8.8,19.8h-16.8c-0.3-4.1-1.9-7.2-4.7-9.4c-2.8-2.2-6.9-3.2-12.2-3.2c-4.6,0-8.1,0.9-10.6,2.7
			c-2.5,1.8-3.7,4.3-3.7,7.6c0,4.5,4.8,7.9,14.5,10.1c2.6,0.6,4.6,1.1,6.1,1.4c6.2,1.6,10.6,2.8,13.2,3.7c2.6,0.9,4.8,1.9,6.8,2.9
			c3.5,1.9,6,4.5,7.8,7.6s2.6,7,2.6,11.4c0,8.8-3,15.7-8.9,20.5c-6,4.9-14.3,7.3-25.2,7.3c-10.7,0-19.1-2.5-25.1-7.4
			C-1758.7,1368.3-1762,1361.2-1762.4,1352.1z"/>
	</g>
	<g>
		<g>
			<path class="st1" d="M-2092.4,1286.6h20.2l30.6,84.9h-18.3l-5.8-17.5h-32.9l-5.6,17.5h-18.4L-2092.4,1286.6z M-2082.3,1303.6
				l-11.8,36.1h23.6L-2082.3,1303.6z"/>
			<path class="st1" d="M-2032.9,1371.5v-84.9h61.6v14.8h-44.4v18.1h40.6v14.5h-40.6v21.8h46.5v15.7H-2032.9z"/>
			<path class="st1" d="M-1938.3,1371.5v-69.7h-25.2v-15.2h67.6v15.2h-25v69.7H-1938.3z"/>
			<path class="st1" d="M-1885.8,1371.5v-84.9h41.1c9.3,0,16.1,2,20.6,5.9c4.5,4,6.7,10,6.7,18.1c0,5.2-1.1,9.5-3.3,13
				s-5.3,5.8-9.4,7.1c3.7,1.3,6.3,3.3,7.9,6c1.6,2.7,2.4,6.9,2.7,12.6l0.3,10c0,0.1,0,0.2,0,0.3c0.1,5.1,1.2,8.1,3.3,9.2v2.6h-19.1
				c-0.6-1.2-1.1-2.7-1.4-4.4s-0.5-3.8-0.6-6.3l-0.2-8.9c-0.2-5.3-1.2-8.8-3-10.7s-5-2.8-9.7-2.8h-18.5v33H-1885.8z M-1868.3,1323.7
				h20.5c4.5,0,7.7-0.9,9.8-2.7c2.1-1.8,3.1-4.6,3.1-8.5c0-3.7-1-6.5-3.1-8.4c-2-1.9-5.1-2.9-9.1-2.9h-21.3V1323.7z"/>
			<path class="st1" d="M-1801,1371.5v-84.9h17.5v84.9H-1801z"/>
			<path class="st1" d="M-1769.2,1345.3h17.2c0.7,4.6,2.6,8.1,5.7,10.3c3.1,2.2,7.7,3.4,13.7,3.4c5.1,0,8.9-0.9,11.5-2.7
				c2.6-1.8,3.9-4.5,3.9-8c0-5.1-7.4-9.4-22.2-12.8c-0.2,0-0.4-0.1-0.5-0.1c-0.4-0.1-1-0.2-1.8-0.4c-7.9-1.7-13.6-3.7-16.9-5.8
				c-3-1.9-5.3-4.5-6.9-7.7c-1.6-3.2-2.4-7.1-2.4-11.5c0-8.3,2.8-14.6,8.4-19c5.6-4.4,13.7-6.6,24.3-6.6c9.9,0,17.7,2.3,23.2,7
				c5.6,4.7,8.5,11.3,8.8,19.8h-16.8c-0.3-4.1-1.9-7.2-4.7-9.4c-2.8-2.2-6.9-3.2-12.2-3.2c-4.6,0-8.1,0.9-10.6,2.7
				c-2.5,1.8-3.7,4.3-3.7,7.6c0,4.5,4.8,7.9,14.5,10.1c2.6,0.6,4.6,1.1,6.1,1.4c6.2,1.6,10.6,2.8,13.2,3.7c2.6,0.9,4.8,1.9,6.8,2.9
				c3.5,1.9,6,4.5,7.8,7.6s2.6,7,2.6,11.4c0,8.8-3,15.7-8.9,20.5c-6,4.9-14.3,7.3-25.2,7.3c-10.7,0-19.1-2.5-25.1-7.4
				C-1765.5,1361.5-1768.8,1354.4-1769.2,1345.3z"/>
		</g>
	</g>
</g>
<g>
	<g>
		<path class="st0" d="M-2189.4,1566.3v36.1h-9.5v-4.3c-1.4,1.7-3,3.1-4.8,3.9c-1.8,0.9-3.9,1.3-6.2,1.3c-4,0-6.9-1-8.9-3.1
			c-2-2.1-3-5.2-3-9.3v-24.6h9.7v21.8c0,2.6,0.4,4.4,1.3,5.5s2.3,1.6,4.3,1.6c2.3,0,4.1-0.7,5.4-2c1.3-1.4,2-3.2,2-5.6v-21.3
			H-2189.4z"/>
		<path class="st0" d="M-2185.5,1602.4l12.2-18.4l-11.6-17.7h11l6.4,10.9l6.3-10.9h10.7l-11.4,17.5l12.1,18.6h-11.3l-6.7-11.4
			l-6.6,11.4H-2185.5z"/>
		<path class="st0" d="M-2145.5,1613.9v-3.9c1.9-0.5,3.2-1.4,4.1-2.5c0.9-1.1,1.3-2.5,1.3-4.3v-0.8h-5.4v-10h10.1v9.6
			c0,3.3-0.8,6-2.5,8C-2139.7,1612-2142.2,1613.3-2145.5,1613.9z"/>
		<path class="st0" d="M-2075.1,1566.3v36.1h-9.5v-4.3c-1.4,1.7-3,3.1-4.8,3.9c-1.8,0.9-3.9,1.3-6.2,1.3c-4,0-6.9-1-8.9-3.1
			c-2-2.1-3-5.2-3-9.3v-24.6h9.7v21.8c0,2.6,0.4,4.4,1.3,5.5s2.3,1.6,4.3,1.6c2.3,0,4.1-0.7,5.4-2c1.3-1.4,2-3.2,2-5.6v-21.3
			H-2075.1z"/>
		<path class="st0" d="M-2066.4,1562.3v-8.8h9.7v8.8H-2066.4z M-2066.4,1602.4v-36.1h9.7v36.1H-2066.4z"/>
		<path class="st0" d="M-2019.5,1575l-1.9-2.5c-1-1.3-1.7-2.6-2.1-3.7s-0.6-2.4-0.6-3.7c0-3.5,1.1-6.4,3.4-8.5
			c2.3-2.1,5.4-3.1,9.2-3.1c3.7,0,6.7,1,8.9,2.9c2.2,1.9,3.3,4.5,3.3,7.8c0,2.5-0.6,4.7-1.9,6.7c-1.3,2-3.3,3.8-6,5.5l7,8.6
			c0.7-1.1,1.2-2.3,1.6-3.7c0.4-1.4,0.7-2.9,0.8-4.5h8.6c-0.2,2.9-0.8,5.5-1.8,8c-1,2.5-2.3,4.7-3.9,6.7l8.9,10.8h-11.3l-3.3-4.1
			c-1.9,1.8-4.1,3.1-6.4,4.1c-2.3,0.9-4.8,1.4-7.3,1.4c-4.5,0-8.2-1.3-11.1-4c-2.9-2.7-4.3-6.1-4.3-10.3c0-3.1,0.8-5.8,2.4-8
			C-2025.8,1579.2-2023.2,1577.1-2019.5,1575z M-2014.7,1581l-2.5,1.8c-1,0.7-1.8,1.6-2.3,2.6c-0.5,1-0.8,2.1-0.8,3.4
			c0,1.9,0.6,3.5,1.9,4.7c1.3,1.3,2.9,1.9,4.8,1.9c1.4,0,2.8-0.3,4.1-0.9c1.3-0.6,2.5-1.4,3.6-2.6L-2014.7,1581z M-2012,1570.6
			l1.2-0.8c1.1-0.7,1.8-1.5,2.4-2.5c0.5-0.9,0.8-1.9,0.8-3.1c0-1.1-0.3-2-1-2.7s-1.6-1-2.8-1c-1.2,0-2.2,0.3-2.9,1
			c-0.7,0.7-1.1,1.6-1.1,2.7c0,0.6,0.2,1.3,0.5,2c0.3,0.7,0.8,1.5,1.5,2.3L-2012,1570.6z"/>
		<path class="st0" d="M-1961.6,1562.3v-8.8h9.7v8.8H-1961.6z M-1961.6,1602.4v-36.1h9.7v36.1H-1961.6z"/>
		<path class="st0" d="M-1943,1602.4v-48.9h9.7v48.9H-1943z"/>
		<path class="st0" d="M-1924.3,1602.4v-48.9h9.7v48.9H-1924.3z"/>
		<path class="st0" d="M-1873.7,1566.3v36.1h-9.5v-4.3c-1.4,1.7-3,3.1-4.8,3.9c-1.8,0.9-3.9,1.3-6.2,1.3c-4,0-6.9-1-8.9-3.1
			c-2-2.1-3-5.2-3-9.3v-24.6h9.7v21.8c0,2.6,0.4,4.4,1.3,5.5s2.3,1.6,4.3,1.6c2.3,0,4.1-0.7,5.4-2c1.3-1.4,2-3.2,2-5.6v-21.3
			H-1873.7z"/>
		<path class="st0" d="M-1867.3,1590.6h9.6c0.1,1.8,0.8,3.2,2,4.1c1.2,0.9,3.1,1.3,5.6,1.3c1.9,0,3.3-0.3,4.4-0.9s1.5-1.5,1.5-2.7
			c0-1.6-1.9-2.9-5.8-3.7c-1.6-0.3-2.8-0.6-3.8-0.9c-4.7-1.2-8-2.6-9.8-4.3c-1.8-1.6-2.7-3.9-2.7-6.6c0-3.7,1.3-6.6,4-8.8
			c2.7-2.2,6.3-3.2,10.8-3.2c4.8,0,8.6,1.1,11.4,3.2c2.8,2.1,4.2,5.2,4.4,9.1h-9.4c-0.1-1.5-0.6-2.7-1.7-3.6
			c-1.1-0.8-2.6-1.3-4.6-1.3c-1.8,0-3.2,0.3-4.1,0.8c-0.9,0.6-1.3,1.4-1.3,2.5c0,1.4,2.4,2.7,7.2,3.8c1.1,0.2,2,0.4,2.6,0.6
			c4.8,1.1,8.1,2.5,9.8,4.1s2.6,3.8,2.6,6.7c0,4.1-1.4,7.2-4.3,9.4c-2.9,2.1-7.1,3.2-12.6,3.2c-5,0-8.9-1.1-11.7-3.4
			c-2.8-2.2-4.2-5.3-4.2-9.2V1590.6z"/>
		<path class="st0" d="M-1812.2,1602.6c-0.9,0-1.9,0.1-3.2,0.1c-1.2,0.1-2,0.1-2.3,0.1c-3.7,0-6.2-0.7-7.6-2.1c-1.4-1.4-2-4.1-2-8.2
			v-19.5h-4.8v-6.8h4.8v-9.9h9.6v9.9h5.6v6.8h-5.6v20c0,1,0.2,1.6,0.6,1.9c0.4,0.3,1.3,0.4,2.6,0.4h2.4V1602.6z"/>
		<path class="st0" d="M-1806.6,1602.4v-36.1h9v6.2c1.3-2.5,2.7-4.3,4.4-5.5c1.7-1.2,3.7-1.7,6-1.7c0.4,0,0.7,0,0.9,0
			c0.2,0,0.4,0,0.5,0.1l0,9.8h-3.2c-2.6,0-4.6,0.7-5.9,2.1c-1.3,1.4-2,3.4-2,6.1v19.1H-1806.6z"/>
		<path class="st0" d="M-1759.8,1597.9c-1.2,1.9-2.8,3.3-4.8,4.3c-2,1-4.3,1.5-6.9,1.5c-3.5,0-6.2-1-8.1-3s-2.8-4.8-2.8-8.5
			c0-3.4,0.9-6,2.8-7.8s5-3,9.4-3.7c1-0.2,2.3-0.3,3.9-0.5c4.1-0.5,6.1-1.7,6.1-3.6c0-1.5-0.5-2.5-1.4-3.1s-2.4-0.9-4.5-0.9
			c-1.9,0-3.4,0.4-4.5,1.2c-1,0.8-1.6,1.9-1.6,3.3v0.5h-9v-0.7c0-3.7,1.3-6.6,3.9-8.7c2.6-2.1,6.2-3.2,10.8-3.2
			c5,0,8.9,0.9,11.6,2.6c2.7,1.7,4,4.3,4,7.6v20.5c0,1.5,0.2,2.6,0.5,3.4c0.3,0.7,0.8,1.3,1.6,1.7v1.6h-10.1
			c-0.3-0.6-0.6-1.3-0.8-2.1C-1759.7,1599.6-1759.8,1598.8-1759.8,1597.9z M-1760,1584.6c-1.6,0.7-3.4,1.3-5.4,1.8
			c-2,0.4-3.1,0.7-3.2,0.7c-1.7,0.5-2.9,1.1-3.6,1.8c-0.7,0.7-1,1.7-1,3c0,1.3,0.4,2.4,1.3,3.2c0.9,0.8,2,1.2,3.5,1.2
			c2.6,0,4.7-0.7,6.2-2.2c1.5-1.5,2.2-3.5,2.2-6V1584.6z"/>
		<path class="st0" d="M-1726.2,1602.6c-0.9,0-1.9,0.1-3.2,0.1c-1.2,0.1-2,0.1-2.3,0.1c-3.7,0-6.2-0.7-7.6-2.1c-1.4-1.4-2-4.1-2-8.2
			v-19.5h-4.8v-6.8h4.8v-9.9h9.6v9.9h5.6v6.8h-5.6v20c0,1,0.2,1.6,0.6,1.9c0.4,0.3,1.3,0.4,2.6,0.4h2.4V1602.6z"/>
		<path class="st0" d="M-1720.4,1562.3v-8.8h9.7v8.8H-1720.4z M-1720.4,1602.4v-36.1h9.7v36.1H-1720.4z"/>
		<path class="st0" d="M-1704,1584.3c0-6,1.6-10.7,4.9-14.1c3.3-3.4,7.7-5.1,13.4-5.1c5.7,0,10.1,1.7,13.4,5.1
			c3.3,3.4,4.9,8.1,4.9,14.1c0,6-1.6,10.7-4.9,14.2c-3.3,3.4-7.7,5.1-13.4,5.1c-5.7,0-10.2-1.7-13.4-5.1
			C-1702.4,1595-1704,1590.3-1704,1584.3z M-1694.2,1584.3c0,3.6,0.7,6.4,2.2,8.3c1.5,1.9,3.6,2.9,6.3,2.9c2.7,0,4.8-1,6.2-2.9
			c1.5-1.9,2.2-4.7,2.2-8.3c0-3.6-0.7-6.3-2.2-8.3c-1.5-1.9-3.5-2.9-6.2-2.9c-2.7,0-4.8,1-6.3,2.9
			C-1693.4,1578-1694.2,1580.7-1694.2,1584.3z"/>
		<path class="st0" d="M-1660.8,1602.4v-36.1h9.5v4.3c1.3-1.7,2.9-3.1,4.8-3.9c1.8-0.9,3.9-1.3,6.1-1.3c4,0,7,1,8.9,3.1
			c2,2.1,3,5.2,3,9.3v24.6h-9.7v-21.8c0-2.6-0.4-4.4-1.3-5.5c-0.9-1.1-2.3-1.7-4.3-1.7c-2.3,0-4.1,0.7-5.4,2s-2,3.2-2,5.6v21.4
			H-1660.8z"/>
		<path class="st0" d="M-1622.2,1590.6h9.6c0.1,1.8,0.8,3.2,2,4.1c1.2,0.9,3.1,1.3,5.6,1.3c1.9,0,3.3-0.3,4.4-0.9s1.5-1.5,1.5-2.7
			c0-1.6-1.9-2.9-5.8-3.7c-1.6-0.3-2.8-0.6-3.8-0.9c-4.7-1.2-8-2.6-9.8-4.3c-1.8-1.6-2.7-3.9-2.7-6.6c0-3.7,1.3-6.6,4-8.8
			c2.7-2.2,6.3-3.2,10.8-3.2c4.8,0,8.6,1.1,11.4,3.2c2.8,2.1,4.2,5.2,4.4,9.1h-9.4c-0.1-1.5-0.6-2.7-1.7-3.6
			c-1.1-0.8-2.6-1.3-4.6-1.3c-1.8,0-3.2,0.3-4.1,0.8c-0.9,0.6-1.3,1.4-1.3,2.5c0,1.4,2.4,2.7,7.2,3.8c1.1,0.2,2,0.4,2.6,0.6
			c4.8,1.1,8.1,2.5,9.8,4.1s2.6,3.8,2.6,6.7c0,4.1-1.4,7.2-4.3,9.4c-2.9,2.1-7.1,3.2-12.6,3.2c-5,0-8.9-1.1-11.7-3.4
			c-2.8-2.2-4.2-5.3-4.2-9.2V1590.6z"/>
	</g>
	<g>
		<g>
			<path class="st1" d="M-2196.2,1559.5v36.1h-9.5v-4.3c-1.4,1.7-3,3.1-4.8,3.9c-1.8,0.9-3.9,1.3-6.2,1.3c-4,0-6.9-1-8.9-3.1
				c-2-2.1-3-5.2-3-9.3v-24.6h9.7v21.8c0,2.6,0.4,4.4,1.3,5.5s2.3,1.6,4.3,1.6c2.3,0,4.1-0.7,5.4-2c1.3-1.4,2-3.2,2-5.6v-21.3
				H-2196.2z"/>
			<path class="st1" d="M-2192.3,1595.6l12.2-18.4l-11.6-17.7h11l6.4,10.9l6.3-10.9h10.7l-11.4,17.5l12.1,18.6h-11.3l-6.7-11.4
				l-6.6,11.4H-2192.3z"/>
			<path class="st1" d="M-2152.3,1607.1v-3.9c1.9-0.5,3.2-1.4,4.1-2.5c0.9-1.1,1.3-2.5,1.3-4.3v-0.8h-5.4v-10h10.1v9.6
				c0,3.3-0.8,6-2.5,8C-2146.5,1605.2-2149,1606.5-2152.3,1607.1z"/>
			<path class="st1" d="M-2081.9,1559.5v36.1h-9.5v-4.3c-1.4,1.7-3,3.1-4.8,3.9c-1.8,0.9-3.9,1.3-6.2,1.3c-4,0-6.9-1-8.9-3.1
				c-2-2.1-3-5.2-3-9.3v-24.6h9.7v21.8c0,2.6,0.4,4.4,1.3,5.5s2.3,1.6,4.3,1.6c2.3,0,4.1-0.7,5.4-2c1.3-1.4,2-3.2,2-5.6v-21.3
				H-2081.9z"/>
			<path class="st1" d="M-2073.2,1555.5v-8.8h9.7v8.8H-2073.2z M-2073.2,1595.6v-36.1h9.7v36.1H-2073.2z"/>
			<path class="st1" d="M-2026.3,1568.2l-1.9-2.5c-1-1.3-1.7-2.6-2.1-3.7s-0.6-2.4-0.6-3.7c0-3.5,1.1-6.4,3.4-8.5
				c2.3-2.1,5.4-3.1,9.2-3.1c3.7,0,6.7,1,8.9,2.9c2.2,1.9,3.3,4.5,3.3,7.8c0,2.5-0.6,4.7-1.9,6.7c-1.3,2-3.3,3.8-6,5.5l7,8.6
				c0.7-1.1,1.2-2.3,1.6-3.7c0.4-1.4,0.7-2.9,0.8-4.5h8.6c-0.2,2.9-0.8,5.5-1.8,8c-1,2.5-2.3,4.7-3.9,6.7l8.9,10.8h-11.3l-3.3-4.1
				c-1.9,1.8-4.1,3.1-6.4,4.1c-2.3,0.9-4.8,1.4-7.3,1.4c-4.5,0-8.2-1.3-11.1-4c-2.9-2.7-4.3-6.1-4.3-10.3c0-3.1,0.8-5.8,2.4-8
				C-2032.6,1572.4-2030,1570.3-2026.3,1568.2z M-2021.5,1574.2l-2.5,1.8c-1,0.7-1.8,1.6-2.3,2.6c-0.5,1-0.8,2.1-0.8,3.4
				c0,1.9,0.6,3.5,1.9,4.7c1.3,1.3,2.9,1.9,4.8,1.9c1.4,0,2.8-0.3,4.1-0.9c1.3-0.6,2.5-1.4,3.6-2.6L-2021.5,1574.2z M-2018.8,1563.8
				l1.2-0.8c1.1-0.7,1.8-1.5,2.4-2.5c0.5-0.9,0.8-1.9,0.8-3.1c0-1.1-0.3-2-1-2.7s-1.6-1-2.8-1c-1.2,0-2.2,0.3-2.9,1
				c-0.7,0.7-1.1,1.6-1.1,2.7c0,0.6,0.2,1.3,0.5,2c0.3,0.7,0.8,1.5,1.5,2.3L-2018.8,1563.8z"/>
			<path class="st1" d="M-1968.4,1555.5v-8.8h9.7v8.8H-1968.4z M-1968.4,1595.6v-36.1h9.7v36.1H-1968.4z"/>
			<path class="st1" d="M-1949.8,1595.6v-48.9h9.7v48.9H-1949.8z"/>
			<path class="st1" d="M-1931.1,1595.6v-48.9h9.7v48.9H-1931.1z"/>
			<path class="st1" d="M-1880.5,1559.5v36.1h-9.5v-4.3c-1.4,1.7-3,3.1-4.8,3.9c-1.8,0.9-3.9,1.3-6.2,1.3c-4,0-6.9-1-8.9-3.1
				c-2-2.1-3-5.2-3-9.3v-24.6h9.7v21.8c0,2.6,0.4,4.4,1.3,5.5s2.3,1.6,4.3,1.6c2.3,0,4.1-0.7,5.4-2c1.3-1.4,2-3.2,2-5.6v-21.3
				H-1880.5z"/>
			<path class="st1" d="M-1874.1,1583.8h9.6c0.1,1.8,0.8,3.2,2,4.1c1.2,0.9,3.1,1.3,5.6,1.3c1.9,0,3.3-0.3,4.4-0.9s1.5-1.5,1.5-2.7
				c0-1.6-1.9-2.9-5.8-3.7c-1.6-0.3-2.8-0.6-3.8-0.9c-4.7-1.2-8-2.6-9.8-4.3c-1.8-1.6-2.7-3.9-2.7-6.6c0-3.7,1.3-6.6,4-8.8
				c2.7-2.2,6.3-3.2,10.8-3.2c4.8,0,8.6,1.1,11.4,3.2c2.8,2.1,4.2,5.2,4.4,9.1h-9.4c-0.1-1.5-0.6-2.7-1.7-3.6
				c-1.1-0.8-2.6-1.3-4.6-1.3c-1.8,0-3.2,0.3-4.1,0.8c-0.9,0.6-1.3,1.4-1.3,2.5c0,1.4,2.4,2.7,7.2,3.8c1.1,0.2,2,0.4,2.6,0.6
				c4.8,1.1,8.1,2.5,9.8,4.1s2.6,3.8,2.6,6.7c0,4.1-1.4,7.2-4.3,9.4c-2.9,2.1-7.1,3.2-12.6,3.2c-5,0-8.9-1.1-11.7-3.4
				c-2.8-2.2-4.2-5.3-4.2-9.2V1583.8z"/>
			<path class="st1" d="M-1819,1595.8c-0.9,0-1.9,0.1-3.2,0.1c-1.2,0.1-2,0.1-2.3,0.1c-3.7,0-6.2-0.7-7.6-2.1c-1.4-1.4-2-4.1-2-8.2
				v-19.5h-4.8v-6.8h4.8v-9.9h9.6v9.9h5.6v6.8h-5.6v20c0,1,0.2,1.6,0.6,1.9c0.4,0.3,1.3,0.4,2.6,0.4h2.4V1595.8z"/>
			<path class="st1" d="M-1813.4,1595.6v-36.1h9v6.2c1.3-2.5,2.7-4.3,4.4-5.5c1.7-1.2,3.7-1.7,6-1.7c0.4,0,0.7,0,0.9,0
				c0.2,0,0.4,0,0.5,0.1l0,9.8h-3.2c-2.6,0-4.6,0.7-5.9,2.1c-1.3,1.4-2,3.4-2,6.1v19.1H-1813.4z"/>
			<path class="st1" d="M-1766.6,1591.1c-1.2,1.9-2.8,3.3-4.8,4.3c-2,1-4.3,1.5-6.9,1.5c-3.5,0-6.2-1-8.1-3s-2.8-4.8-2.8-8.5
				c0-3.4,0.9-6,2.8-7.8s5-3,9.4-3.7c1-0.2,2.3-0.3,3.9-0.5c4.1-0.5,6.1-1.7,6.1-3.6c0-1.5-0.5-2.5-1.4-3.1s-2.4-0.9-4.5-0.9
				c-1.9,0-3.4,0.4-4.5,1.2c-1,0.8-1.6,1.9-1.6,3.3v0.5h-9v-0.7c0-3.7,1.3-6.6,3.9-8.7c2.6-2.1,6.2-3.2,10.8-3.2
				c5,0,8.9,0.9,11.6,2.6c2.7,1.7,4,4.3,4,7.6v20.5c0,1.5,0.2,2.6,0.5,3.4c0.3,0.7,0.8,1.3,1.6,1.7v1.6h-10.1
				c-0.3-0.6-0.6-1.3-0.8-2.1C-1766.5,1592.8-1766.6,1592-1766.6,1591.1z M-1766.8,1577.8c-1.6,0.7-3.4,1.3-5.4,1.8
				c-2,0.4-3.1,0.7-3.2,0.7c-1.7,0.5-2.9,1.1-3.6,1.8c-0.7,0.7-1,1.7-1,3c0,1.3,0.4,2.4,1.3,3.2c0.9,0.8,2,1.2,3.5,1.2
				c2.6,0,4.7-0.7,6.2-2.2c1.5-1.5,2.2-3.5,2.2-6V1577.8z"/>
			<path class="st1" d="M-1733,1595.8c-0.9,0-1.9,0.1-3.2,0.1c-1.2,0.1-2,0.1-2.3,0.1c-3.7,0-6.2-0.7-7.6-2.1c-1.4-1.4-2-4.1-2-8.2
				v-19.5h-4.8v-6.8h4.8v-9.9h9.6v9.9h5.6v6.8h-5.6v20c0,1,0.2,1.6,0.6,1.9c0.4,0.3,1.3,0.4,2.6,0.4h2.4V1595.8z"/>
			<path class="st1" d="M-1727.2,1555.5v-8.8h9.7v8.8H-1727.2z M-1727.2,1595.6v-36.1h9.7v36.1H-1727.2z"/>
			<path class="st1" d="M-1710.8,1577.5c0-6,1.6-10.7,4.9-14.1c3.3-3.4,7.7-5.1,13.4-5.1c5.7,0,10.1,1.7,13.4,5.1
				c3.3,3.4,4.9,8.1,4.9,14.1c0,6-1.6,10.7-4.9,14.2c-3.3,3.4-7.7,5.1-13.4,5.1c-5.7,0-10.2-1.7-13.4-5.1
				C-1709.2,1588.2-1710.8,1583.5-1710.8,1577.5z M-1701,1577.5c0,3.6,0.7,6.4,2.2,8.3c1.5,1.9,3.6,2.9,6.3,2.9c2.7,0,4.8-1,6.2-2.9
				c1.5-1.9,2.2-4.7,2.2-8.3c0-3.6-0.7-6.3-2.2-8.3c-1.5-1.9-3.5-2.9-6.2-2.9c-2.7,0-4.8,1-6.3,2.9
				C-1700.2,1571.2-1701,1573.9-1701,1577.5z"/>
			<path class="st1" d="M-1667.6,1595.6v-36.1h9.5v4.3c1.3-1.7,2.9-3.1,4.8-3.9c1.8-0.9,3.9-1.3,6.1-1.3c4,0,7,1,8.9,3.1
				c2,2.1,3,5.2,3,9.3v24.6h-9.7v-21.8c0-2.6-0.4-4.4-1.3-5.5c-0.9-1.1-2.3-1.7-4.3-1.7c-2.3,0-4.1,0.7-5.4,2s-2,3.2-2,5.6v21.4
				H-1667.6z"/>
			<path class="st1" d="M-1629,1583.8h9.6c0.1,1.8,0.8,3.2,2,4.1c1.2,0.9,3.1,1.3,5.6,1.3c1.9,0,3.3-0.3,4.4-0.9s1.5-1.5,1.5-2.7
				c0-1.6-1.9-2.9-5.8-3.7c-1.6-0.3-2.8-0.6-3.8-0.9c-4.7-1.2-8-2.6-9.8-4.3c-1.8-1.6-2.7-3.9-2.7-6.6c0-3.7,1.3-6.6,4-8.8
				c2.7-2.2,6.3-3.2,10.8-3.2c4.8,0,8.6,1.1,11.4,3.2c2.8,2.1,4.2,5.2,4.4,9.1h-9.4c-0.1-1.5-0.6-2.7-1.7-3.6
				c-1.1-0.8-2.6-1.3-4.6-1.3c-1.8,0-3.2,0.3-4.1,0.8c-0.9,0.6-1.3,1.4-1.3,2.5c0,1.4,2.4,2.7,7.2,3.8c1.1,0.2,2,0.4,2.6,0.6
				c4.8,1.1,8.1,2.5,9.8,4.1s2.6,3.8,2.6,6.7c0,4.1-1.4,7.2-4.3,9.4c-2.9,2.1-7.1,3.2-12.6,3.2c-5,0-8.9-1.1-11.7-3.4
				c-2.8-2.2-4.2-5.3-4.2-9.2V1583.8z"/>
		</g>
	</g>
</g>
</svg>
