<?xml version="1.0" encoding="utf-8"?>
<!-- Generator: Adobe Illustrator 19.0.0, SVG Export Plug-In . SVG Version: 6.00 Build 0)  -->
<svg version="1.1" id="Camada_1" xmlns="http://www.w3.org/2000/svg" xmlns:xlink="http://www.w3.org/1999/xlink" x="0px" y="0px"
	 viewBox="0 0 398.8 797.5" enable-background="new 0 0 398.8 797.5" xml:space="preserve">
<g id="XMLID_3_">
	<g id="XMLID_193_">
		<path id="XMLID_199_" fill="#DC0396" d="M50.4,611.5l-0.2,150.8c0,16.6,13.5,30.1,30.1,30.1h271.4c16.6,0,30.1-13.5,30.1-30.1
			V611.5c0-16.6-13.5-30.1-30.1-30.1H80.5C63.9,581.4,50.4,594.9,50.4,611.5z M321.8,611.5v150.8H110.6V611.5H321.8z"/>
		<path id="XMLID_198_" fill="#DC0396" d="M191,717.7l-33.2-33.2l-11.1,11.1L191,740l95.1-95.1l-11.1-11.1L191,717.7z"/>
	</g>
	<g id="XMLID_167_">
		<g id="XMLID_178_">
			<g id="XMLID_179_">
				<path id="XMLID_184_" fill="#F5C280" d="M33.8,594.9l-0.2,150.8c0,16.6,13.5,30.1,30.1,30.1h271.4c16.6,0,30.1-13.5,30.1-30.1
					V594.9c0-16.6-13.5-30.1-30.1-30.1H63.9C47.3,564.8,33.8,578.3,33.8,594.9z M305.2,594.9v150.8H94V594.9H305.2z"/>
				<path id="XMLID_180_" fill="#F5C280" d="M174.4,701.1l-33.2-33.2L130,679.1l44.3,44.3l95.1-95.1l-11.1-11.1L174.4,701.1z"/>
			</g>
		</g>
	</g>
</g>
<g id="XMLID_9_" opacity="0.5">
	<g id="XMLID_168_">
		<path id="XMLID_172_" fill="#DC0396" d="M291.3,24.6l-150.6-0.3c-16.6,0-30.1,13.5-30.1,30.1v271.4c0,16.6,13.5,30.1,30.1,30.1
			h150.6c16.6,0,30.1-13.5,30.1-30.1V54.5C321.4,37.9,307.9,24.6,291.3,24.6z M291.3,295.7H140.7V84.6h150.6V295.7z"/>
	</g>
	<g id="XMLID_150_">
		<g id="XMLID_156_">
			<g id="XMLID_157_">
				<path id="XMLID_158_" fill="#F5C280" d="M274.7,8L124.1,7.7c-16.6,0-30.1,13.5-30.1,30.1v271.4c0,16.6,13.5,30.1,30.1,30.1
					h150.6c16.6,0,30.1-13.5,30.1-30.1V37.9C304.8,21.3,291.3,8,274.7,8z M274.7,279.1H124.1V68h150.6V279.1z"/>
			</g>
		</g>
	</g>
</g>
<g id="XMLID_10_">
	<g id="XMLID_123_">
		<polygon id="XMLID_125_" fill="#DC0396" points="381.8,58 349,24.3 216,156.5 83.8,24.3 50.2,58 183.2,190.1 50.2,322.3 83.8,356 
			216,223.8 349,356 381.8,322.3 249.7,190.1 		"/>
	</g>
	<g id="XMLID_103_">
		<g id="XMLID_116_">
			<polygon id="XMLID_117_" fill="#F5C280" points="365.2,41.4 332.4,7.7 199.4,139.9 67.2,7.7 33.6,41.4 166.6,173.5 33.6,305.7 
				67.2,339.4 199.4,207.2 332.4,339.4 365.2,305.7 233.1,173.5 			"/>
		</g>
	</g>
</g>
</svg>
