<?xml version="1.0" encoding="utf-8"?>
<!-- Generator: Adobe Illustrator 19.0.0, SVG Export Plug-In . SVG Version: 6.00 Build 0)  -->
<svg version="1.1" id="Camada_1" xmlns="http://www.w3.org/2000/svg" xmlns:xlink="http://www.w3.org/1999/xlink" x="0px" y="0px"
	 viewBox="-2512.6 1340.7 200 200" style="enable-background:new -2512.6 1340.7 200 200;" xml:space="preserve">
<style type="text/css">
	.st0{clip-path:url(#XMLID_4_);fill:#323D91;}
	.st1{clip-path:url(#XMLID_7_);}
	.st2{fill:#CB3089;}
	.st3{fill:#F5C280;}
</style>
<g id="XMLID_1168_">
	<g id="XMLID_1172_">
		<g>
			<g>
				<defs>
					<rect id="XMLID_55_" x="-2496.6" y="1356.7" width="200" height="200"/>
				</defs>
				<clipPath id="XMLID_3_">
					<use xlink:href="#XMLID_55_"  style="overflow:visible;"/>
				</clipPath>
			</g>
			<g>
				<defs>
					<rect id="XMLID_53_" x="-2496.6" y="1356.7" width="200" height="200"/>
				</defs>
				<clipPath id="XMLID_4_">
					<use xlink:href="#XMLID_53_"  style="overflow:visible;"/>
				</clipPath>
				<path class="st0" d="M-2339.6,1488.9l-37.8-18.8c-1.4-0.6-2.9-0.9-4.5-0.9h-6.3v-50c0-6.9-5.6-12.5-12.5-12.5
					c-6.9,0-12.5,5.6-12.5,12.5v89.5l-28.6-6c-0.7-0.1-1.3-0.3-2-0.3c-2.6,0-4.9,1.1-6.6,2.8l-6.6,6.7l41.2,41.2
					c2.3,2.3,5.4,3.7,8.8,3.7h56.6c6.3,0,11.1-4.6,12-10.7l6.3-43.9c0.1-0.6,0.2-1.2,0.2-1.7
					C-2332.1,1495.2-2335.2,1490.7-2339.6,1488.9z"/>
			</g>
			<g>
				<defs>
					<rect id="XMLID_51_" x="-2496.6" y="1356.7" width="200" height="200"/>
				</defs>
				<clipPath id="XMLID_5_">
					<use xlink:href="#XMLID_51_"  style="overflow:visible;"/>
				</clipPath>
			</g>
		</g>
		<g>
			<g>
				<g id="XMLID_47_">
					<defs>
						<rect id="XMLID_48_" x="-2512.6" y="1340.7" width="200" height="200"/>
					</defs>
					<clipPath id="XMLID_6_">
						<use xlink:href="#XMLID_48_"  style="overflow:visible;"/>
					</clipPath>
				</g>
			</g>
			<g>
				<g id="XMLID_43_">
					<defs>
						<rect id="XMLID_44_" x="-2512.6" y="1340.7" width="200" height="200"/>
					</defs>
					<clipPath id="XMLID_7_">
						<use xlink:href="#XMLID_44_"  style="overflow:visible;"/>
					</clipPath>
					<g id="XMLID_45_" class="st1">
						<g>
							<path class="st2" d="M-2355.6,1472.9l-37.8-18.8c-1.4-0.6-2.9-0.9-4.5-0.9h-6.3v-50c0-6.9-5.6-12.5-12.5-12.5
								c-6.9,0-12.5,5.6-12.5,12.5v89.5l-28.6-6c-0.7-0.1-1.3-0.3-2-0.3c-2.6,0-4.9,1.1-6.6,2.8l-6.6,6.7l41.2,41.2
								c2.3,2.3,5.4,3.7,8.8,3.7h56.6c6.3,0,11.1-4.6,12-10.7l6.3-43.9c0.1-0.6,0.2-1.2,0.2-1.7
								C-2348.1,1479.2-2351.2,1474.7-2355.6,1472.9z"/>
						</g>
					</g>
				</g>
			</g>
			<g>
				<g id="XMLID_39_">
					<defs>
						<rect id="XMLID_40_" x="-2512.6" y="1340.7" width="200" height="200"/>
					</defs>
					<clipPath id="XMLID_8_">
						<use xlink:href="#XMLID_40_"  style="overflow:visible;"/>
					</clipPath>
				</g>
			</g>
		</g>
	</g>
	<g id="XMLID_1170_">
		<g>
			<path class="st2" d="M-2429.6,1442.3v-31.2c0-11.5,9.3-20.8,20.8-20.8s20.8,9.3,20.8,20.8v31.2c10.1-6.8,16.7-18.2,16.7-31.2
				c0-20.8-16.8-37.5-37.5-37.5s-37.5,16.8-37.5,37.5C-2446.3,1424.2-2439.7,1435.6-2429.6,1442.3z"/>
		</g>
		<g>
			<path class="st3" d="M-2437.6,1434.3v-31.2c0-11.5,9.3-20.8,20.8-20.8s20.8,9.3,20.8,20.8v31.2c10.1-6.8,16.7-18.2,16.7-31.2
				c0-20.8-16.8-37.5-37.5-37.5s-37.5,16.8-37.5,37.5C-2454.3,1416.2-2447.7,1427.6-2437.6,1434.3z"/>
		</g>
	</g>
</g>
</svg>
