<?xml version="1.0" encoding="utf-8"?>
<!-- Generator: Adobe Illustrator 20.1.0, SVG Export Plug-In . SVG Version: 6.00 Build 0)  -->
<svg version="1.1" id="Camada_1" xmlns="http://www.w3.org/2000/svg" xmlns:xlink="http://www.w3.org/1999/xlink" x="0px" y="0px"
	 viewBox="0 0 977.1 683.6" style="enable-background:new 0 0 977.1 683.6;" xml:space="preserve">
<style type="text/css">
	.st0{fill:#DC0396;}
	.st1{fill:#F5C280;}
</style>
<g>
	<g>
		<path class="st0" d="M6.8,185.9c0-54.1,9.4-94.5,28.2-121.4c18.8-26.9,47.3-40.3,85.4-40.3c37.9,0,66.4,13.5,85.4,40.5
			c19,27,28.5,67.6,28.5,121.6s-9.4,94.4-28.2,121.1c-18.8,26.7-47.4,40-85.6,40c-38.1,0-66.5-13.4-85.4-40.2
			C16.2,280.4,6.8,239.9,6.8,185.9z M72.1,185.9c0,38.2,3.8,66,11.5,83.3c7.7,17.3,20,25.9,36.8,25.9c16.8,0,29.1-8.7,36.9-26.1
			c7.8-17.4,11.6-45.1,11.6-83.1c0-38.1-3.9-65.8-11.6-83.1c-7.8-17.3-20.1-25.9-36.9-25.9c-16.8,0-29.1,8.6-36.8,25.8
			C75.9,119.9,72.1,147.6,72.1,185.9z"/>
		<path class="st0" d="M249.8,380.6l109-373.8h30.1L279.5,380.6H249.8z"/>
		<path class="st0" d="M403.2,243h60.4c0.1,17.6,4.4,30.8,12.7,39.7c8.3,8.9,20.7,13.3,37.1,13.3c15.8,0,28-4.1,36.6-12.4
			c8.6-8.3,12.9-20.2,12.9-35.7c0-15.5-5-27.3-15.1-35.3c-10-8-24.9-12-44.7-12c-1,0-2.6,0.1-4.7,0.2c-2.1,0.1-3.7,0.2-4.7,0.2
			v-43.5h6.8c18.2,0,31.6-3.5,40.3-10.7c8.7-7.1,13.1-18,13.1-32.6c0-12.2-3.7-21.8-11.1-28.9c-7.4-7.1-17.5-10.7-30.2-10.7
			c-13.9,0-24.7,4.1-32.3,12.3c-7.6,8.2-11.4,19.9-11.4,34.9v2.6h-59.3c0.7-32.2,10.2-56.9,28.5-74.2c18.2-17.2,44-25.8,77.2-25.8
			c31.5,0,56.5,7.7,74.9,23.1s27.7,36.1,27.7,62.2c0,13.8-3.2,25.9-9.4,36.3c-6.3,10.4-15.7,19-28.3,25.7
			c16.1,7,28.3,16.7,36.6,29.1c8.3,12.4,12.4,27.1,12.4,44.3c0,31.5-10.3,56.5-31,74.9c-20.7,18.5-48.9,27.7-84.6,27.7
			c-35.3,0-62.5-9-81.6-26.9c-19.1-17.9-28.7-43.5-28.7-76.6V243z"/>
	</g>
	<g>
		<g>
			<path class="st1" d="M0,179.1C0,125,9.4,84.6,28.2,57.7c18.8-26.9,47.3-40.3,85.4-40.3c37.9,0,66.4,13.5,85.4,40.5
				c19,27,28.5,67.6,28.5,121.6s-9.4,94.4-28.2,121.1c-18.8,26.7-47.4,40-85.6,40c-38.1,0-66.5-13.4-85.4-40.2
				C9.4,273.6,0,233.1,0,179.1z M65.3,179.1c0,38.2,3.8,66,11.5,83.3c7.7,17.3,20,25.9,36.8,25.9c16.8,0,29.1-8.7,36.9-26.1
				c7.8-17.4,11.6-45.1,11.6-83.1c0-38.1-3.9-65.8-11.6-83.1c-7.8-17.3-20.1-25.9-36.9-25.9c-16.8,0-29.1,8.6-36.8,25.8
				C69.1,113.1,65.3,140.8,65.3,179.1z"/>
			<path class="st1" d="M243,373.8L352,0h30.1L272.7,373.8H243z"/>
			<path class="st1" d="M396.4,236.2h60.4c0.1,17.6,4.4,30.8,12.7,39.7c8.3,8.9,20.7,13.3,37.1,13.3c15.8,0,28-4.1,36.6-12.4
				c8.6-8.3,12.9-20.2,12.9-35.7c0-15.5-5-27.3-15.1-35.3c-10-8-24.9-12-44.7-12c-1,0-2.6,0.1-4.7,0.2c-2.1,0.1-3.7,0.2-4.7,0.2
				v-43.5h6.8c18.2,0,31.6-3.5,40.3-10.7c8.7-7.1,13.1-18,13.1-32.6c0-12.2-3.7-21.8-11.1-28.9c-7.4-7.1-17.5-10.7-30.2-10.7
				c-13.9,0-24.7,4.1-32.3,12.3c-7.6,8.2-11.4,19.9-11.4,34.9v2.6h-59.3c0.7-32.2,10.2-56.9,28.5-74.2c18.2-17.2,44-25.8,77.2-25.8
				c31.5,0,56.5,7.7,74.9,23.1s27.7,36.1,27.7,62.2c0,13.8-3.2,25.9-9.4,36.3c-6.3,10.4-15.7,19-28.3,25.7
				c16.1,7,28.3,16.7,36.6,29.1c8.3,12.4,12.4,27.1,12.4,44.3c0,31.5-10.3,56.5-31,74.9c-20.7,18.5-48.9,27.7-84.6,27.7
				c-35.3,0-62.5-9-81.6-26.9c-19.1-17.9-28.7-43.5-28.7-76.6V236.2z"/>
		</g>
	</g>
</g>
<g>
	<g>
		<path class="st0" d="M69.7,634.1h18.9c-0.8,9.1-4.1,16.3-10,21.6c-5.8,5.3-13.4,7.9-22.5,7.9c-10.4,0-18.6-3.4-24.5-10.2
			c-5.9-6.8-8.9-16.2-8.9-28.2c0-12,3-21.3,9.1-28.1c6-6.8,14.4-10.2,24.9-10.2c9.3,0,16.7,2.5,22.3,7.4s8.7,11.8,9.4,20.6H69.5
			c-0.5-3.8-1.9-6.7-4-8.8c-2.2-2-5-3-8.5-3c-4.7,0-8.3,1.9-10.6,5.6c-2.4,3.7-3.5,9.3-3.5,16.8c0,6.9,1.2,12.2,3.7,15.9
			c2.4,3.7,5.9,5.6,10.5,5.6c3.6,0,6.4-1.1,8.6-3.2C67.7,641.5,69.1,638.3,69.7,634.1z"/>
		<path class="st0" d="M97.2,625.2c0-11.9,3.2-21.3,9.7-28.1c6.5-6.8,15.3-10.2,26.6-10.2c11.2,0,20.1,3.4,26.6,10.2
			c6.5,6.8,9.7,16.2,9.7,28.1c0,12-3.2,21.3-9.7,28.1c-6.5,6.8-15.3,10.2-26.6,10.2c-11.3,0-20.2-3.4-26.6-10.2
			S97.2,637.1,97.2,625.2z M116.6,625.2c0,7.1,1.5,12.6,4.4,16.5c2.9,3.9,7.1,5.8,12.5,5.8c5.3,0,9.4-1.9,12.4-5.8
			c2.9-3.9,4.4-9.4,4.4-16.5c0-7.1-1.5-12.5-4.4-16.4s-7-5.8-12.4-5.8c-5.4,0-9.6,1.9-12.5,5.8C118.1,612.6,116.6,618.1,116.6,625.2
			z"/>
		<path class="st0" d="M183.5,661.1V564h19.2v97.1H183.5z"/>
		<path class="st0" d="M220.6,661.1V564h19.2v97.1H220.6z"/>
		<path class="st0" d="M301.2,639.3h19.1c-1.9,7.6-5.8,13.5-11.7,17.8c-5.9,4.3-13,6.4-21.5,6.4c-10.4,0-18.6-3.5-24.7-10.4
			s-9.1-16.4-9.1-28.3c0-11.7,3-21,9-27.8c6-6.8,14.1-10.2,24.5-10.2c11,0,19.5,3.3,25.4,10c6,6.7,9,16.1,9,28.4c0,1.4,0,2.4,0,3.1
			c0,0.7-0.1,1.3-0.2,1.9h-47.9c0.3,5.6,1.6,9.9,4.1,12.7c2.5,2.9,6.1,4.3,10.7,4.3c3.3,0,6-0.6,8.1-1.9
			C298.3,644.1,300,642.1,301.2,639.3z M273.3,617.7h28.2c-0.2-4.8-1.5-8.5-3.9-11c-2.4-2.5-5.8-3.8-10.3-3.8
			c-4.2,0-7.5,1.3-9.9,3.8C275.1,609.3,273.7,612.9,273.3,617.7z"/>
		<path class="st0" d="M377.3,634.1h18.9c-0.8,9.1-4.1,16.3-10,21.6c-5.8,5.3-13.4,7.9-22.5,7.9c-10.4,0-18.6-3.4-24.5-10.2
			c-5.9-6.8-8.9-16.2-8.9-28.2c0-12,3-21.3,9.1-28.1c6-6.8,14.4-10.2,24.9-10.2c9.3,0,16.7,2.5,22.3,7.4s8.7,11.8,9.4,20.6H377
			c-0.5-3.8-1.9-6.7-4-8.8c-2.2-2-5-3-8.5-3c-4.7,0-8.3,1.9-10.6,5.6c-2.4,3.7-3.5,9.3-3.5,16.8c0,6.9,1.2,12.2,3.7,15.9
			c2.4,3.7,5.9,5.6,10.5,5.6c3.6,0,6.4-1.1,8.6-3.2C375.2,641.5,376.6,638.3,377.3,634.1z"/>
		<path class="st0" d="M440.2,661.6c-1.8,0-3.9,0.1-6.3,0.2s-4,0.2-4.6,0.2c-7.3,0-12.4-1.4-15.1-4.1c-2.7-2.7-4.1-8.2-4.1-16.2
			v-38.8h-9.5v-13.4h9.5v-19.6h19v19.6h11.1v13.4h-11.1v39.7c0,1.9,0.4,3.1,1.3,3.7c0.8,0.6,2.5,0.9,5.1,0.9h4.7V661.6z"/>
		<path class="st0" d="M495.4,639.3h19.1c-1.9,7.6-5.8,13.5-11.7,17.8c-5.9,4.3-13,6.4-21.5,6.4c-10.4,0-18.6-3.5-24.7-10.4
			s-9.1-16.4-9.1-28.3c0-11.7,3-21,9-27.8c6-6.8,14.1-10.2,24.5-10.2c11,0,19.5,3.3,25.4,10c6,6.7,9,16.1,9,28.4c0,1.4,0,2.4,0,3.1
			c0,0.7-0.1,1.3-0.2,1.9h-47.9c0.3,5.6,1.6,9.9,4.1,12.7c2.5,2.9,6.1,4.3,10.7,4.3c3.3,0,6-0.6,8.1-1.9
			C492.5,644.1,494.2,642.1,495.4,639.3z M467.5,617.7h28.2c-0.2-4.8-1.5-8.5-3.9-11c-2.4-2.5-5.8-3.8-10.3-3.8
			c-4.2,0-7.5,1.3-9.9,3.8C469.3,609.3,467.9,612.9,467.5,617.7z"/>
		<path class="st0" d="M594,564v97.1h-18.2v-9.7c-2.8,4.2-5.9,7.2-9.3,9.2c-3.5,2-7.5,2.9-12.2,2.9c-8.8,0-16-3.5-21.5-10.5
			c-5.5-7-8.2-16.2-8.2-27.5c0-11.4,2.7-20.7,8.2-27.8c5.5-7.1,12.5-10.7,21.2-10.7c4.6,0,8.7,1,12.4,2.9c3.6,1.9,6.6,4.7,9,8.4V564
			H594z M543.9,624.8c0,7.3,1.4,12.8,4.1,16.6c2.7,3.8,6.7,5.7,11.8,5.7c5.1,0,9-1.9,11.7-5.7c2.7-3.8,4-9.3,4-16.6
			c0-6.8-1.4-12-4.2-15.7c-2.8-3.7-6.8-5.5-11.9-5.5c-4.8,0-8.6,1.9-11.3,5.6S543.9,618.2,543.9,624.8z"/>
		<path class="st0" d="M698.9,661.1V564h18.7v51l22.8-25.5h23.1l-25,26.6l26.5,45.1h-23l-17.1-30.5l-7.3,7.8v22.7H698.9z"/>
		<path class="st0" d="M817.4,639.3h19.1c-1.9,7.6-5.8,13.5-11.7,17.8c-5.9,4.3-13,6.4-21.5,6.4c-10.4,0-18.6-3.5-24.7-10.4
			s-9.1-16.4-9.1-28.3c0-11.7,3-21,9-27.8c6-6.8,14.1-10.2,24.5-10.2c11,0,19.5,3.3,25.4,10c6,6.7,9,16.1,9,28.4c0,1.4,0,2.4,0,3.1
			c0,0.7-0.1,1.3-0.2,1.9h-47.9c0.3,5.6,1.6,9.9,4.1,12.7c2.5,2.9,6.1,4.3,10.7,4.3c3.3,0,6-0.6,8.1-1.9
			C814.5,644.1,816.2,642.1,817.4,639.3z M789.5,617.7h28.2c-0.2-4.8-1.5-8.5-3.9-11c-2.4-2.5-5.8-3.8-10.3-3.8
			c-4.2,0-7.5,1.3-9.9,3.8C791.3,609.3,789.9,612.9,789.5,617.7z"/>
		<path class="st0" d="M853,689.8v-15.5c0.6,0.1,1.3,0.2,1.9,0.2s1.5,0.1,2.6,0.1c3.8,0,6.6-0.9,8.5-2.7c1.9-1.8,2.8-4.4,2.8-8
			c0-0.3,0-0.6-0.1-1c-0.1-0.4-0.2-0.7-0.3-1l-25.8-72.5h21.1l15.1,51.7l14.7-51.7h20.2L884.2,674c-2.2,6.3-4.9,10.6-8.2,13
			c-3.3,2.3-8.2,3.5-14.8,3.5c-1.2,0-2.5,0-3.8-0.1C856,690.1,854.5,690,853,689.8z"/>
		<path class="st0" d="M918.7,637.8h19.1c0.2,3.6,1.5,6.4,4,8.1c2.5,1.8,6.2,2.7,11.1,2.7c3.7,0,6.6-0.6,8.7-1.9
			c2-1.3,3.1-3,3.1-5.3c0-3.3-3.8-5.7-11.5-7.3c-3.1-0.7-5.6-1.2-7.4-1.7c-9.3-2.4-15.8-5.2-19.4-8.4c-3.6-3.3-5.4-7.6-5.4-13.2
			c0-7.3,2.6-13.2,7.9-17.4c5.3-4.3,12.5-6.4,21.5-6.4c9.6,0,17.1,2.1,22.6,6.4c5.5,4.3,8.4,10.3,8.7,18h-18.7
			c-0.1-3-1.3-5.4-3.5-7.1c-2.2-1.7-5.2-2.5-9.1-2.5c-3.6,0-6.4,0.5-8.1,1.6c-1.8,1.1-2.7,2.7-2.7,4.9c0,2.9,4.8,5.4,14.3,7.6
			c2.2,0.5,3.9,0.9,5.2,1.2c9.5,2.2,16.1,4.9,19.5,8.1c3.5,3.2,5.2,7.6,5.2,13.4c0,8.1-2.9,14.3-8.6,18.6c-5.7,4.3-14.1,6.4-25,6.4
			c-9.9,0-17.6-2.2-23.2-6.7c-5.6-4.4-8.4-10.5-8.4-18.3V637.8z"/>
	</g>
	<g>
		<g>
			<path class="st1" d="M62.9,627.3h18.9c-0.8,9.1-4.1,16.3-10,21.6c-5.8,5.3-13.4,7.9-22.5,7.9c-10.4,0-18.6-3.4-24.5-10.2
				c-5.9-6.8-8.9-16.2-8.9-28.2c0-12,3-21.3,9.1-28.1c6-6.8,14.4-10.2,24.9-10.2c9.3,0,16.7,2.5,22.3,7.4s8.7,11.8,9.4,20.6H62.7
				c-0.5-3.8-1.9-6.7-4-8.8c-2.2-2-5-3-8.5-3c-4.7,0-8.3,1.9-10.6,5.6c-2.4,3.7-3.5,9.3-3.5,16.8c0,6.9,1.2,12.2,3.7,15.9
				c2.4,3.7,5.9,5.6,10.5,5.6c3.6,0,6.4-1.1,8.6-3.2C60.9,634.7,62.3,631.5,62.9,627.3z"/>
			<path class="st1" d="M90.4,618.4c0-11.9,3.2-21.3,9.7-28.1c6.5-6.8,15.3-10.2,26.6-10.2c11.2,0,20.1,3.4,26.6,10.2
				c6.5,6.8,9.7,16.2,9.7,28.1c0,12-3.2,21.3-9.7,28.1c-6.5,6.8-15.3,10.2-26.6,10.2c-11.3,0-20.2-3.4-26.6-10.2
				S90.4,630.3,90.4,618.4z M109.8,618.4c0,7.1,1.5,12.6,4.4,16.5c2.9,3.9,7.1,5.8,12.5,5.8c5.3,0,9.4-1.9,12.4-5.8
				c2.9-3.9,4.4-9.4,4.4-16.5c0-7.1-1.5-12.5-4.4-16.4s-7-5.8-12.4-5.8c-5.4,0-9.6,1.9-12.5,5.8
				C111.3,605.8,109.8,611.3,109.8,618.4z"/>
			<path class="st1" d="M176.7,654.3v-97.1h19.2v97.1H176.7z"/>
			<path class="st1" d="M213.8,654.3v-97.1H233v97.1H213.8z"/>
			<path class="st1" d="M294.4,632.5h19.1c-1.9,7.6-5.8,13.5-11.7,17.8c-5.9,4.3-13,6.4-21.5,6.4c-10.4,0-18.6-3.5-24.7-10.4
				s-9.1-16.4-9.1-28.3c0-11.7,3-21,9-27.8c6-6.8,14.1-10.2,24.5-10.2c11,0,19.5,3.3,25.4,10c6,6.7,9,16.1,9,28.4c0,1.4,0,2.4,0,3.1
				c0,0.7-0.1,1.3-0.2,1.9h-47.9c0.3,5.6,1.6,9.9,4.1,12.7c2.5,2.9,6.1,4.3,10.7,4.3c3.3,0,6-0.6,8.1-1.9
				C291.5,637.3,293.2,635.3,294.4,632.5z M266.5,610.9h28.2c-0.2-4.8-1.5-8.5-3.9-11c-2.4-2.5-5.8-3.8-10.3-3.8
				c-4.2,0-7.5,1.3-9.9,3.8C268.3,602.5,266.9,606.1,266.5,610.9z"/>
			<path class="st1" d="M370.5,627.3h18.9c-0.8,9.1-4.1,16.3-10,21.6c-5.8,5.3-13.4,7.9-22.5,7.9c-10.4,0-18.6-3.4-24.5-10.2
				c-5.9-6.8-8.9-16.2-8.9-28.2c0-12,3-21.3,9.1-28.1c6-6.8,14.4-10.2,24.9-10.2c9.3,0,16.7,2.5,22.3,7.4s8.7,11.8,9.4,20.6h-19.1
				c-0.5-3.8-1.9-6.7-4-8.8c-2.2-2-5-3-8.5-3c-4.7,0-8.3,1.9-10.6,5.6c-2.4,3.7-3.5,9.3-3.5,16.8c0,6.9,1.2,12.2,3.7,15.9
				c2.4,3.7,5.9,5.6,10.5,5.6c3.6,0,6.4-1.1,8.6-3.2C368.4,634.7,369.8,631.5,370.5,627.3z"/>
			<path class="st1" d="M433.4,654.8c-1.8,0-3.9,0.1-6.3,0.2s-4,0.2-4.6,0.2c-7.3,0-12.4-1.4-15.1-4.1c-2.7-2.7-4.1-8.2-4.1-16.2
				v-38.8h-9.5v-13.4h9.5v-19.6h19v19.6h11.1v13.4h-11.1v39.7c0,1.9,0.4,3.1,1.3,3.7c0.8,0.6,2.5,0.9,5.1,0.9h4.7V654.8z"/>
			<path class="st1" d="M488.6,632.5h19.1c-1.9,7.6-5.8,13.5-11.7,17.8c-5.9,4.3-13,6.4-21.5,6.4c-10.4,0-18.6-3.5-24.7-10.4
				s-9.1-16.4-9.1-28.3c0-11.7,3-21,9-27.8c6-6.8,14.1-10.2,24.5-10.2c11,0,19.5,3.3,25.4,10c6,6.7,9,16.1,9,28.4c0,1.4,0,2.4,0,3.1
				c0,0.7-0.1,1.3-0.2,1.9h-47.9c0.3,5.6,1.6,9.9,4.1,12.7c2.5,2.9,6.1,4.3,10.7,4.3c3.3,0,6-0.6,8.1-1.9
				C485.7,637.3,487.4,635.3,488.6,632.5z M460.7,610.9h28.2c-0.2-4.8-1.5-8.5-3.9-11c-2.4-2.5-5.8-3.8-10.3-3.8
				c-4.2,0-7.5,1.3-9.9,3.8C462.5,602.5,461.1,606.1,460.7,610.9z"/>
			<path class="st1" d="M587.2,557.2v97.1h-18.2v-9.7c-2.8,4.2-5.9,7.2-9.3,9.2c-3.5,2-7.5,2.9-12.2,2.9c-8.8,0-16-3.5-21.5-10.5
				c-5.5-7-8.2-16.2-8.2-27.5c0-11.4,2.7-20.7,8.2-27.8c5.5-7.1,12.5-10.7,21.2-10.7c4.6,0,8.7,1,12.4,2.9c3.6,1.9,6.6,4.7,9,8.4
				v-34.3H587.2z M537.1,618c0,7.3,1.4,12.8,4.1,16.6c2.7,3.8,6.7,5.7,11.8,5.7c5.1,0,9-1.9,11.7-5.7c2.7-3.8,4-9.3,4-16.6
				c0-6.8-1.4-12-4.2-15.7c-2.8-3.7-6.8-5.5-11.9-5.5c-4.8,0-8.6,1.9-11.3,5.6S537.1,611.4,537.1,618z"/>
			<path class="st1" d="M692.1,654.3v-97.1h18.7v51l22.8-25.5h23.1l-25,26.6l26.5,45.1h-23L718,623.8l-7.3,7.8v22.7H692.1z"/>
			<path class="st1" d="M810.6,632.5h19.1c-1.9,7.6-5.8,13.5-11.7,17.8c-5.9,4.3-13,6.4-21.5,6.4c-10.4,0-18.6-3.5-24.7-10.4
				s-9.1-16.4-9.1-28.3c0-11.7,3-21,9-27.8c6-6.8,14.1-10.2,24.5-10.2c11,0,19.5,3.3,25.4,10c6,6.7,9,16.1,9,28.4c0,1.4,0,2.4,0,3.1
				c0,0.7-0.1,1.3-0.2,1.9h-47.9c0.3,5.6,1.6,9.9,4.1,12.7c2.5,2.9,6.1,4.3,10.7,4.3c3.3,0,6-0.6,8.1-1.9
				C807.7,637.3,809.4,635.3,810.6,632.5z M782.7,610.9h28.2c-0.2-4.8-1.5-8.5-3.9-11c-2.4-2.5-5.8-3.8-10.3-3.8
				c-4.2,0-7.5,1.3-9.9,3.8C784.5,602.5,783.1,606.1,782.7,610.9z"/>
			<path class="st1" d="M846.2,683v-15.5c0.6,0.1,1.3,0.2,1.9,0.2s1.5,0.1,2.6,0.1c3.8,0,6.6-0.9,8.5-2.7c1.9-1.8,2.8-4.4,2.8-8
				c0-0.3,0-0.6-0.1-1c-0.1-0.4-0.2-0.7-0.3-1l-25.8-72.5h21.1l15.1,51.7l14.7-51.7h20.2l-29.5,84.5c-2.2,6.3-4.9,10.6-8.2,13
				c-3.3,2.3-8.2,3.5-14.8,3.5c-1.2,0-2.5,0-3.8-0.1C849.2,683.3,847.7,683.2,846.2,683z"/>
			<path class="st1" d="M911.9,631H931c0.2,3.6,1.5,6.4,4,8.1c2.5,1.8,6.2,2.7,11.1,2.7c3.7,0,6.6-0.6,8.7-1.9c2-1.3,3.1-3,3.1-5.3
				c0-3.3-3.8-5.7-11.5-7.3c-3.1-0.7-5.6-1.2-7.4-1.7c-9.3-2.4-15.8-5.2-19.4-8.4c-3.6-3.3-5.4-7.6-5.4-13.2
				c0-7.3,2.6-13.2,7.9-17.4c5.3-4.3,12.5-6.4,21.5-6.4c9.6,0,17.1,2.1,22.6,6.4c5.5,4.3,8.4,10.3,8.7,18h-18.7
				c-0.1-3-1.3-5.4-3.5-7.1c-2.2-1.7-5.2-2.5-9.1-2.5c-3.6,0-6.4,0.5-8.1,1.6c-1.8,1.1-2.7,2.7-2.7,4.9c0,2.9,4.8,5.4,14.3,7.6
				c2.2,0.5,3.9,0.9,5.2,1.2c9.5,2.2,16.1,4.9,19.5,8.1c3.5,3.2,5.2,7.6,5.2,13.4c0,8.1-2.9,14.3-8.6,18.6c-5.7,4.3-14.1,6.4-25,6.4
				c-9.9,0-17.6-2.2-23.2-6.7c-5.6-4.4-8.4-10.5-8.4-18.3V631z"/>
		</g>
	</g>
</g>
</svg>
