<?xml version="1.0" encoding="utf-8"?>
<!-- Generator: Adobe Illustrator 20.1.0, SVG Export Plug-In . SVG Version: 6.00 Build 0)  -->
<svg version="1.1" id="Camada_1" xmlns="http://www.w3.org/2000/svg" xmlns:xlink="http://www.w3.org/1999/xlink" x="0px" y="0px"
	 viewBox="0 0 1001.9 747.7" style="enable-background:new 0 0 1001.9 747.7;" xml:space="preserve">
<style type="text/css">
	.st0{fill:#DC0396;}
	.st1{fill:#F5C280;}
</style>
<g>
	<g>
		<path class="st0" d="M20.6,240.6c0-54.1,9.4-94.5,28.2-121.4c18.8-26.9,47.3-40.3,85.4-40.3c37.9,0,66.4,13.5,85.4,40.5
			c19,27,28.5,67.6,28.5,121.6s-9.4,94.4-28.2,121.1c-18.8,26.7-47.4,40-85.6,40c-38.1,0-66.5-13.4-85.4-40.2
			C30.1,335.1,20.6,294.7,20.6,240.6z M85.9,240.6c0,38.2,3.8,66,11.5,83.3c7.7,17.3,20,25.9,36.8,25.9c16.8,0,29.1-8.7,36.9-26.1
			c7.8-17.4,11.6-45.1,11.6-83.1c0-38.1-3.9-65.8-11.6-83.1c-7.8-17.3-20.1-25.9-36.9-25.9c-16.8,0-29.1,8.6-36.8,25.8
			C89.7,174.7,85.9,202.4,85.9,240.6z"/>
		<path class="st0" d="M263.7,435.3l109-373.8h30.1L293.3,435.3H263.7z"/>
		<path class="st0" d="M417,297.8h60.4c0.1,17.6,4.4,30.8,12.7,39.7c8.3,8.9,20.7,13.3,37.1,13.3c15.8,0,28-4.1,36.6-12.4
			c8.6-8.3,12.9-20.2,12.9-35.7c0-15.5-5-27.3-15.1-35.3c-10-8-24.9-12-44.7-12c-1,0-2.6,0.1-4.7,0.2c-2.1,0.1-3.7,0.2-4.7,0.2
			v-43.5h6.8c18.2,0,31.6-3.5,40.3-10.7c8.7-7.1,13.1-18,13.1-32.6c0-12.2-3.7-21.8-11.1-28.9c-7.4-7.1-17.5-10.7-30.2-10.7
			c-13.9,0-24.7,4.1-32.3,12.3c-7.6,8.2-11.4,19.9-11.4,34.9v2.6h-59.3c0.7-32.2,10.2-56.9,28.5-74.2c18.2-17.2,44-25.8,77.2-25.8
			c31.5,0,56.5,7.7,74.9,23.1s27.7,36.1,27.7,62.2c0,13.8-3.2,25.9-9.4,36.3c-6.3,10.4-15.7,19-28.3,25.7
			c16.1,7,28.3,16.7,36.6,29.1c8.3,12.4,12.4,27.1,12.4,44.3c0,31.5-10.3,56.5-31,74.9s-48.9,27.7-84.6,27.7
			c-35.3,0-62.5-9-81.6-26.9c-19.1-17.9-28.7-43.5-28.7-76.6V297.8z"/>
	</g>
	<g>
		<g>
			<path class="st1" d="M13.8,233.8c0-54.1,9.4-94.5,28.2-121.4c18.8-26.9,47.3-40.3,85.4-40.3c37.9,0,66.4,13.5,85.4,40.5
				c19,27,28.5,67.6,28.5,121.6s-9.4,94.4-28.2,121.1c-18.8,26.7-47.4,40-85.6,40c-38.1,0-66.5-13.4-85.4-40.2
				C23.3,328.3,13.8,287.9,13.8,233.8z M79.1,233.8c0,38.2,3.8,66,11.5,83.3c7.7,17.3,20,25.9,36.8,25.9c16.8,0,29.1-8.7,36.9-26.1
				c7.8-17.4,11.6-45.1,11.6-83.1c0-38.1-3.9-65.8-11.6-83.1c-7.8-17.3-20.1-25.9-36.9-25.9c-16.8,0-29.1,8.6-36.8,25.8
				C82.9,167.9,79.1,195.6,79.1,233.8z"/>
			<path class="st1" d="M256.9,428.5l109-373.8h30.1L286.5,428.5H256.9z"/>
			<path class="st1" d="M410.2,291h60.4c0.1,17.6,4.4,30.8,12.7,39.7c8.3,8.9,20.7,13.3,37.1,13.3c15.8,0,28-4.1,36.6-12.4
				c8.6-8.3,12.9-20.2,12.9-35.7c0-15.5-5-27.3-15.1-35.3c-10-8-24.9-12-44.7-12c-1,0-2.6,0.1-4.7,0.2c-2.1,0.1-3.7,0.2-4.7,0.2
				v-43.5h6.8c18.2,0,31.6-3.5,40.3-10.7c8.7-7.1,13.1-18,13.1-32.6c0-12.2-3.7-21.8-11.1-28.9c-7.4-7.1-17.5-10.7-30.2-10.7
				c-13.9,0-24.7,4.1-32.3,12.3c-7.6,8.2-11.4,19.9-11.4,34.9v2.6h-59.3c0.7-32.2,10.2-56.9,28.5-74.2c18.2-17.2,44-25.8,77.2-25.8
				c31.5,0,56.5,7.7,74.9,23.1s27.7,36.1,27.7,62.2c0,13.8-3.2,25.9-9.4,36.3c-6.3,10.4-15.7,19-28.3,25.7
				c16.1,7,28.3,16.7,36.6,29.1c8.3,12.4,12.4,27.1,12.4,44.3c0,31.5-10.3,56.5-31,74.9s-48.9,27.7-84.6,27.7
				c-35.3,0-62.5-9-81.6-26.9c-19.1-17.9-28.7-43.5-28.7-76.6V291z"/>
		</g>
	</g>
</g>
<g>
	<g>
		<path class="st0" d="M104.1,644.2v71.7H85.4v-8.5c-2.7,3.5-5.9,6.1-9.5,7.8c-3.6,1.7-7.7,2.6-12.2,2.6c-7.9,0-13.8-2.1-17.7-6.2
			c-3.9-4.1-5.9-10.3-5.9-18.5v-48.8h19.2v43.3c0,5.1,0.9,8.7,2.6,10.9c1.7,2.2,4.5,3.3,8.5,3.3c4.5,0,8.1-1.4,10.7-4.1
			c2.7-2.7,4-6.4,4-11v-42.4H104.1z"/>
		<path class="st0" d="M120.9,715.9v-71.7h18.8v8.5c2.7-3.5,5.8-6.1,9.5-7.8c3.6-1.7,7.7-2.6,12.2-2.6c7.9,0,13.8,2.1,17.8,6.2
			c3.9,4.1,5.9,10.3,5.9,18.6v48.8h-19.2v-43.3c0-5.1-0.9-8.8-2.6-11c-1.7-2.2-4.6-3.3-8.5-3.3c-4.5,0-8.1,1.4-10.7,4.1
			c-2.6,2.7-4,6.4-4,11v42.5H120.9z"/>
		<path class="st0" d="M202.2,715.9v-97.1h19.2v97.1H202.2z"/>
		<path class="st0" d="M235,679.9c0-11.9,3.2-21.3,9.7-28.1c6.5-6.8,15.3-10.2,26.6-10.2c11.2,0,20.1,3.4,26.6,10.2
			c6.5,6.8,9.7,16.2,9.7,28.1c0,12-3.2,21.3-9.7,28.1c-6.5,6.8-15.3,10.2-26.6,10.2c-11.3,0-20.2-3.4-26.6-10.2
			C238.2,701.3,235,691.9,235,679.9z M254.4,679.9c0,7.1,1.5,12.6,4.4,16.5c2.9,3.9,7.1,5.8,12.5,5.8c5.3,0,9.4-1.9,12.4-5.8
			c2.9-3.9,4.4-9.4,4.4-16.5c0-7.1-1.5-12.5-4.4-16.4s-7-5.8-12.4-5.8c-5.4,0-9.6,1.9-12.5,5.8C255.9,667.4,254.4,672.9,254.4,679.9
			z"/>
		<path class="st0" d="M364,688.8h18.9c-0.8,9.1-4.1,16.3-10,21.6c-5.8,5.3-13.4,7.9-22.5,7.9c-10.4,0-18.6-3.4-24.5-10.2
			c-5.9-6.8-8.9-16.2-8.9-28.2c0-12,3-21.3,9.1-28.1c6-6.8,14.4-10.2,24.9-10.2c9.3,0,16.7,2.5,22.3,7.4s8.7,11.8,9.4,20.6h-19.1
			c-0.5-3.8-1.9-6.7-4-8.8c-2.2-2-5-3-8.5-3c-4.7,0-8.3,1.9-10.6,5.6c-2.4,3.7-3.5,9.3-3.5,16.8c0,6.9,1.2,12.2,3.7,15.9
			s5.9,5.6,10.5,5.6c3.6,0,6.4-1.1,8.6-3.2C361.9,696.3,363.3,693.1,364,688.8z"/>
		<path class="st0" d="M395.4,715.9v-97.1h18.7v51l22.8-25.5H460l-25,26.6l26.5,45.1h-23l-17.1-30.5l-7.3,7.8v22.7H395.4z"/>
		<path class="st0" d="M514,694.1h19.1c-1.9,7.6-5.8,13.5-11.7,17.8c-5.9,4.3-13,6.4-21.5,6.4c-10.4,0-18.6-3.5-24.7-10.4
			s-9.1-16.4-9.1-28.3c0-11.7,3-21,9-27.8c6-6.8,14.1-10.2,24.5-10.2c11,0,19.5,3.3,25.4,10c6,6.7,9,16.1,9,28.4c0,1.4,0,2.4,0,3.1
			c0,0.7-0.1,1.3-0.2,1.9h-47.9c0.3,5.6,1.6,9.9,4.1,12.7c2.5,2.9,6.1,4.3,10.7,4.3c3.3,0,6-0.6,8.1-1.9
			C511.1,698.8,512.8,696.8,514,694.1z M486.1,672.5h28.2c-0.2-4.8-1.5-8.5-3.9-11c-2.4-2.5-5.8-3.8-10.3-3.8
			c-4.2,0-7.5,1.3-9.9,3.8C487.9,664,486.5,667.7,486.1,672.5z"/>
		<path class="st0" d="M612.6,618.8v97.1h-18.2v-9.7c-2.8,4.2-5.9,7.2-9.3,9.2c-3.5,2-7.5,2.9-12.2,2.9c-8.8,0-16-3.5-21.5-10.5
			s-8.2-16.2-8.2-27.5c0-11.4,2.7-20.7,8.2-27.8c5.5-7.1,12.5-10.7,21.2-10.7c4.6,0,8.7,1,12.4,2.9c3.6,1.9,6.6,4.7,9,8.4v-34.3
			H612.6z M562.5,679.5c0,7.3,1.4,12.8,4.1,16.6c2.7,3.8,6.7,5.7,11.8,5.7c5.1,0,9-1.9,11.7-5.7c2.7-3.8,4-9.3,4-16.6
			c0-6.8-1.4-12-4.2-15.7c-2.8-3.7-6.8-5.5-11.9-5.5c-4.8,0-8.6,1.9-11.3,5.6C563.9,667.8,562.5,673,562.5,679.5z"/>
		<path class="st0" d="M668.9,715.9v-97.1H688v97.1H668.9z"/>
		<path class="st0" d="M701.7,679.9c0-11.9,3.2-21.3,9.7-28.1c6.5-6.8,15.3-10.2,26.6-10.2c11.2,0,20.1,3.4,26.6,10.2
			c6.5,6.8,9.7,16.2,9.7,28.1c0,12-3.2,21.3-9.7,28.1c-6.5,6.8-15.3,10.2-26.6,10.2c-11.3,0-20.2-3.4-26.6-10.2
			C704.9,701.3,701.7,691.9,701.7,679.9z M721.1,679.9c0,7.1,1.5,12.6,4.4,16.5c2.9,3.9,7.1,5.8,12.5,5.8c5.3,0,9.4-1.9,12.4-5.8
			c2.9-3.9,4.4-9.4,4.4-16.5c0-7.1-1.5-12.5-4.4-16.4s-7-5.8-12.4-5.8c-5.4,0-9.6,1.9-12.5,5.8C722.6,667.4,721.1,672.9,721.1,679.9
			z"/>
		<path class="st0" d="M830.7,688.8h18.9c-0.8,9.1-4.1,16.3-10,21.6c-5.8,5.3-13.4,7.9-22.5,7.9c-10.4,0-18.6-3.4-24.5-10.2
			c-5.9-6.8-8.9-16.2-8.9-28.2c0-12,3-21.3,9.1-28.1c6-6.8,14.4-10.2,25-10.2c9.3,0,16.7,2.5,22.3,7.4c5.6,4.9,8.7,11.8,9.4,20.6
			h-19c-0.5-3.8-1.9-6.7-4-8.8c-2.2-2-5-3-8.5-3c-4.7,0-8.3,1.9-10.6,5.6c-2.4,3.7-3.5,9.3-3.5,16.8c0,6.9,1.2,12.2,3.7,15.9
			c2.4,3.7,5.9,5.6,10.5,5.6c3.6,0,6.4-1.1,8.6-3.2C828.6,696.3,830,693.1,830.7,688.8z"/>
		<path class="st0" d="M862.1,715.9v-97.1h18.7v51l22.8-25.5h23.1l-25,26.6l26.5,45.1h-23L888,685.3l-7.3,7.8v22.7H862.1z"/>
		<path class="st0" d="M932.5,692.5h19.1c0.2,3.6,1.5,6.4,4,8.1c2.5,1.8,6.2,2.7,11.1,2.7c3.7,0,6.6-0.6,8.7-1.9
			c2-1.3,3.1-3,3.1-5.3c0-3.3-3.8-5.7-11.5-7.3c-3.1-0.7-5.6-1.2-7.4-1.7c-9.3-2.4-15.8-5.2-19.4-8.4c-3.6-3.3-5.4-7.6-5.4-13.2
			c0-7.3,2.6-13.2,7.9-17.4c5.3-4.3,12.5-6.4,21.5-6.4c9.6,0,17.1,2.1,22.6,6.4c5.5,4.3,8.4,10.3,8.7,18h-18.7
			c-0.1-3-1.3-5.4-3.5-7.1c-2.2-1.7-5.2-2.5-9.1-2.5c-3.6,0-6.4,0.5-8.1,1.6c-1.8,1.1-2.7,2.7-2.7,4.9c0,2.9,4.8,5.4,14.3,7.6
			c2.2,0.5,3.9,0.9,5.2,1.2c9.5,2.2,16.1,4.9,19.5,8.1c3.5,3.2,5.2,7.6,5.2,13.4c0,8.1-2.9,14.3-8.6,18.6c-5.7,4.3-14.1,6.4-25,6.4
			c-9.9,0-17.6-2.2-23.2-6.7s-8.4-10.5-8.4-18.3V692.5z"/>
	</g>
	<g>
		<g>
			<path class="st1" d="M97.3,637.4v71.7H78.6v-8.5c-2.7,3.5-5.9,6.1-9.5,7.8c-3.6,1.7-7.7,2.6-12.2,2.6c-7.9,0-13.8-2.1-17.7-6.2
				c-3.9-4.1-5.9-10.3-5.9-18.5v-48.8h19.2v43.3c0,5.1,0.9,8.7,2.6,10.9c1.7,2.2,4.5,3.3,8.5,3.3c4.5,0,8.1-1.4,10.7-4.1
				c2.7-2.7,4-6.4,4-11v-42.4H97.3z"/>
			<path class="st1" d="M114.1,709.1v-71.7h18.8v8.5c2.7-3.5,5.8-6.1,9.5-7.8c3.6-1.7,7.7-2.6,12.2-2.6c7.9,0,13.8,2.1,17.8,6.2
				c3.9,4.1,5.9,10.3,5.9,18.6v48.8H159v-43.3c0-5.1-0.9-8.8-2.6-11c-1.7-2.2-4.6-3.3-8.5-3.3c-4.5,0-8.1,1.4-10.7,4.1
				c-2.6,2.7-4,6.4-4,11v42.5H114.1z"/>
			<path class="st1" d="M195.4,709.1V612h19.2v97.1H195.4z"/>
			<path class="st1" d="M228.2,673.1c0-11.9,3.2-21.3,9.7-28.1c6.5-6.8,15.3-10.2,26.6-10.2c11.2,0,20.1,3.4,26.6,10.2
				c6.5,6.8,9.7,16.2,9.7,28.1c0,12-3.2,21.3-9.7,28.1c-6.5,6.8-15.3,10.2-26.6,10.2c-11.3,0-20.2-3.4-26.6-10.2
				C231.4,694.5,228.2,685.1,228.2,673.1z M247.6,673.1c0,7.1,1.5,12.6,4.4,16.5c2.9,3.9,7.1,5.8,12.5,5.8c5.3,0,9.4-1.9,12.4-5.8
				c2.9-3.9,4.4-9.4,4.4-16.5c0-7.1-1.5-12.5-4.4-16.4s-7-5.8-12.4-5.8c-5.4,0-9.6,1.9-12.5,5.8
				C249.1,660.6,247.6,666.1,247.6,673.1z"/>
			<path class="st1" d="M357.2,682h18.9c-0.8,9.1-4.1,16.3-10,21.6c-5.8,5.3-13.4,7.9-22.5,7.9c-10.4,0-18.6-3.4-24.5-10.2
				c-5.9-6.8-8.9-16.2-8.9-28.2c0-12,3-21.3,9.1-28.1c6-6.8,14.4-10.2,24.9-10.2c9.3,0,16.7,2.5,22.3,7.4s8.7,11.8,9.4,20.6h-19.1
				c-0.5-3.8-1.9-6.7-4-8.8c-2.2-2-5-3-8.5-3c-4.7,0-8.3,1.9-10.6,5.6c-2.4,3.7-3.5,9.3-3.5,16.8c0,6.9,1.2,12.2,3.7,15.9
				s5.9,5.6,10.5,5.6c3.6,0,6.4-1.1,8.6-3.2C355.1,689.5,356.5,686.3,357.2,682z"/>
			<path class="st1" d="M388.6,709.1V612h18.7v51l22.8-25.5h23.1l-25,26.6l26.5,45.1h-23l-17.1-30.5l-7.3,7.8v22.7H388.6z"/>
			<path class="st1" d="M507.2,687.3h19.1c-1.9,7.6-5.8,13.5-11.7,17.8c-5.9,4.3-13,6.4-21.5,6.4c-10.4,0-18.6-3.5-24.7-10.4
				s-9.1-16.4-9.1-28.3c0-11.7,3-21,9-27.8c6-6.8,14.1-10.2,24.5-10.2c11,0,19.5,3.3,25.4,10c6,6.7,9,16.1,9,28.4c0,1.4,0,2.4,0,3.1
				c0,0.7-0.1,1.3-0.2,1.9h-47.9c0.3,5.6,1.6,9.9,4.1,12.7c2.5,2.9,6.1,4.3,10.7,4.3c3.3,0,6-0.6,8.1-1.9
				C504.3,692,506,690,507.2,687.3z M479.3,665.7h28.2c-0.2-4.8-1.5-8.5-3.9-11c-2.4-2.5-5.8-3.8-10.3-3.8c-4.2,0-7.5,1.3-9.9,3.8
				C481.1,657.2,479.7,660.9,479.3,665.7z"/>
			<path class="st1" d="M605.8,612v97.1h-18.2v-9.7c-2.8,4.2-5.9,7.2-9.3,9.2c-3.5,2-7.5,2.9-12.2,2.9c-8.8,0-16-3.5-21.5-10.5
				s-8.2-16.2-8.2-27.5c0-11.4,2.7-20.7,8.2-27.8c5.5-7.1,12.5-10.7,21.2-10.7c4.6,0,8.7,1,12.4,2.9c3.6,1.9,6.6,4.7,9,8.4V612
				H605.8z M555.7,672.7c0,7.3,1.4,12.8,4.1,16.6c2.7,3.8,6.7,5.7,11.8,5.7c5.1,0,9-1.9,11.7-5.7c2.7-3.8,4-9.3,4-16.6
				c0-6.8-1.4-12-4.2-15.7c-2.8-3.7-6.8-5.5-11.9-5.5c-4.8,0-8.6,1.9-11.3,5.6C557.1,661,555.7,666.2,555.7,672.7z"/>
			<path class="st1" d="M662.1,709.1V612h19.2v97.1H662.1z"/>
			<path class="st1" d="M694.9,673.1c0-11.9,3.2-21.3,9.7-28.1c6.5-6.8,15.3-10.2,26.6-10.2c11.2,0,20.1,3.4,26.6,10.2
				c6.5,6.8,9.7,16.2,9.7,28.1c0,12-3.2,21.3-9.7,28.1c-6.5,6.8-15.3,10.2-26.6,10.2c-11.3,0-20.2-3.4-26.6-10.2
				C698.1,694.5,694.9,685.1,694.9,673.1z M714.3,673.1c0,7.1,1.5,12.6,4.4,16.5c2.9,3.9,7.1,5.8,12.5,5.8c5.3,0,9.4-1.9,12.4-5.8
				c2.9-3.9,4.4-9.4,4.4-16.5c0-7.1-1.5-12.5-4.4-16.4s-7-5.8-12.4-5.8c-5.4,0-9.6,1.9-12.5,5.8
				C715.8,660.6,714.3,666.1,714.3,673.1z"/>
			<path class="st1" d="M823.9,682h18.9c-0.8,9.1-4.1,16.3-10,21.6c-5.8,5.3-13.4,7.9-22.5,7.9c-10.4,0-18.6-3.4-24.5-10.2
				c-5.9-6.8-8.9-16.2-8.9-28.2c0-12,3-21.3,9.1-28.1c6-6.8,14.4-10.2,25-10.2c9.3,0,16.7,2.5,22.3,7.4c5.6,4.9,8.7,11.8,9.4,20.6
				h-19c-0.5-3.8-1.9-6.7-4-8.8c-2.2-2-5-3-8.5-3c-4.7,0-8.3,1.9-10.6,5.6c-2.4,3.7-3.5,9.3-3.5,16.8c0,6.9,1.2,12.2,3.7,15.9
				c2.4,3.7,5.9,5.6,10.5,5.6c3.6,0,6.4-1.1,8.6-3.2C821.8,689.5,823.2,686.3,823.9,682z"/>
			<path class="st1" d="M855.3,709.1V612H874v51l22.8-25.5h23.1l-25,26.6l26.5,45.1h-23l-17.1-30.5l-7.3,7.8v22.7H855.3z"/>
			<path class="st1" d="M925.7,685.7h19.1c0.2,3.6,1.5,6.4,4,8.1c2.5,1.8,6.2,2.7,11.1,2.7c3.7,0,6.6-0.6,8.7-1.9
				c2-1.3,3.1-3,3.1-5.3c0-3.3-3.8-5.7-11.5-7.3c-3.1-0.7-5.6-1.2-7.4-1.7c-9.3-2.4-15.8-5.2-19.4-8.4c-3.6-3.3-5.4-7.6-5.4-13.2
				c0-7.3,2.6-13.2,7.9-17.4c5.3-4.3,12.5-6.4,21.5-6.4c9.6,0,17.1,2.1,22.6,6.4c5.5,4.3,8.4,10.3,8.7,18H970
				c-0.1-3-1.3-5.4-3.5-7.1c-2.2-1.7-5.2-2.5-9.1-2.5c-3.6,0-6.4,0.5-8.1,1.6c-1.8,1.1-2.7,2.7-2.7,4.9c0,2.9,4.8,5.4,14.3,7.6
				c2.2,0.5,3.9,0.9,5.2,1.2c9.5,2.2,16.1,4.9,19.5,8.1c3.5,3.2,5.2,7.6,5.2,13.4c0,8.1-2.9,14.3-8.6,18.6c-5.7,4.3-14.1,6.4-25,6.4
				c-9.9,0-17.6-2.2-23.2-6.7s-8.4-10.5-8.4-18.3V685.7z"/>
		</g>
	</g>
</g>
</svg>
