<?xml version="1.0" encoding="utf-8"?>
<!-- Generator: Adobe Illustrator 20.1.0, SVG Export Plug-In . SVG Version: 6.00 Build 0)  -->
<svg version="1.1" id="Camada_1" xmlns="http://www.w3.org/2000/svg" xmlns:xlink="http://www.w3.org/1999/xlink" x="0px" y="0px"
	 viewBox="0 0 1001.9 747.7" style="enable-background:new 0 0 1001.9 747.7;" xml:space="preserve">
<style type="text/css">
	.st0{fill:#DC0396;}
	.st1{fill:#F5C280;}
</style>
<g>
	<g>
		<path class="st0" d="M19.3,297.8h60.4c0.1,17.6,4.4,30.8,12.7,39.7c8.3,8.9,20.7,13.3,37.1,13.3c15.8,0,28-4.1,36.6-12.4
			c8.6-8.3,12.9-20.2,12.9-35.7c0-15.5-5-27.3-15.1-35.3c-10-8-24.9-12-44.7-12c-1,0-2.6,0.1-4.7,0.2c-2.1,0.1-3.7,0.2-4.7,0.2
			v-43.5h6.8c18.2,0,31.6-3.5,40.3-10.7c8.7-7.1,13.1-18,13.1-32.6c0-12.2-3.7-21.8-11.1-28.9c-7.4-7.1-17.5-10.7-30.2-10.7
			c-13.9,0-24.7,4.1-32.3,12.3C88.8,150,85,161.6,85,176.7v2.6H25.7c0.7-32.2,10.2-56.9,28.5-74.2c18.2-17.2,44-25.8,77.2-25.8
			c31.5,0,56.5,7.7,74.9,23.1s27.7,36.1,27.7,62.2c0,13.8-3.2,25.9-9.4,36.3c-6.3,10.4-15.7,19-28.3,25.7
			c16.1,7,28.3,16.7,36.6,29.1c8.3,12.4,12.4,27.1,12.4,44.3c0,31.5-10.3,56.5-31,74.9c-20.7,18.5-48.9,27.7-84.6,27.7
			c-35.3,0-62.5-9-81.6-26.9c-19.1-17.9-28.7-43.5-28.7-76.6V297.8z"/>
		<path class="st0" d="M263.7,435.3l109-373.8h30.1L293.3,435.3H263.7z"/>
		<path class="st0" d="M417,297.8h60.4c0.1,17.6,4.4,30.8,12.7,39.7c8.3,8.9,20.7,13.3,37.1,13.3c15.8,0,28-4.1,36.6-12.4
			c8.6-8.3,12.9-20.2,12.9-35.7c0-15.5-5-27.3-15.1-35.3c-10-8-24.9-12-44.7-12c-1,0-2.6,0.1-4.7,0.2c-2.1,0.1-3.7,0.2-4.7,0.2
			v-43.5h6.8c18.2,0,31.6-3.5,40.3-10.7c8.7-7.1,13.1-18,13.1-32.6c0-12.2-3.7-21.8-11.1-28.9c-7.4-7.1-17.5-10.7-30.2-10.7
			c-13.9,0-24.7,4.1-32.3,12.3c-7.6,8.2-11.4,19.9-11.4,34.9v2.6h-59.3c0.7-32.2,10.2-56.9,28.5-74.2c18.2-17.2,44-25.8,77.2-25.8
			c31.5,0,56.5,7.7,74.9,23.1s27.7,36.1,27.7,62.2c0,13.8-3.2,25.9-9.4,36.3c-6.3,10.4-15.7,19-28.3,25.7
			c16.1,7,28.3,16.7,36.6,29.1c8.3,12.4,12.4,27.1,12.4,44.3c0,31.5-10.3,56.5-31,74.9c-20.7,18.5-48.9,27.7-84.6,27.7
			c-35.3,0-62.5-9-81.6-26.9c-19.1-17.9-28.7-43.5-28.7-76.6V297.8z"/>
	</g>
	<g>
		<g>
			<path class="st1" d="M12.5,291h60.4c0.1,17.6,4.4,30.8,12.7,39.7c8.3,8.9,20.7,13.3,37.1,13.3c15.8,0,28-4.1,36.6-12.4
				c8.6-8.3,12.9-20.2,12.9-35.7c0-15.5-5-27.3-15.1-35.3c-10-8-24.9-12-44.7-12c-1,0-2.6,0.1-4.7,0.2c-2.1,0.1-3.7,0.2-4.7,0.2
				v-43.5h6.8c18.2,0,31.6-3.5,40.3-10.7c8.7-7.1,13.1-18,13.1-32.6c0-12.2-3.7-21.8-11.1-28.9c-7.4-7.1-17.5-10.7-30.2-10.7
				c-13.9,0-24.7,4.1-32.3,12.3c-7.6,8.2-11.4,19.9-11.4,34.9v2.6H18.9c0.7-32.2,10.2-56.9,28.5-74.2c18.2-17.2,44-25.8,77.2-25.8
				c31.5,0,56.5,7.7,74.9,23.1s27.7,36.1,27.7,62.2c0,13.8-3.2,25.9-9.4,36.3c-6.3,10.4-15.7,19-28.3,25.7
				c16.1,7,28.3,16.7,36.6,29.1c8.3,12.4,12.4,27.1,12.4,44.3c0,31.5-10.3,56.5-31,74.9c-20.7,18.5-48.9,27.7-84.6,27.7
				c-35.3,0-62.5-9-81.6-26.9c-19.1-17.9-28.7-43.5-28.7-76.6V291z"/>
			<path class="st1" d="M256.9,428.5l109-373.8h30.1L286.5,428.5H256.9z"/>
			<path class="st1" d="M410.2,291h60.4c0.1,17.6,4.4,30.8,12.7,39.7c8.3,8.9,20.7,13.3,37.1,13.3c15.8,0,28-4.1,36.6-12.4
				c8.6-8.3,12.9-20.2,12.9-35.7c0-15.5-5-27.3-15.1-35.3c-10-8-24.9-12-44.7-12c-1,0-2.6,0.1-4.7,0.2c-2.1,0.1-3.7,0.2-4.7,0.2
				v-43.5h6.8c18.2,0,31.6-3.5,40.3-10.7c8.7-7.1,13.1-18,13.1-32.6c0-12.2-3.7-21.8-11.1-28.9c-7.4-7.1-17.5-10.7-30.2-10.7
				c-13.9,0-24.7,4.1-32.3,12.3c-7.6,8.2-11.4,19.9-11.4,34.9v2.6h-59.3c0.7-32.2,10.2-56.9,28.5-74.2c18.2-17.2,44-25.8,77.2-25.8
				c31.5,0,56.5,7.7,74.9,23.1s27.7,36.1,27.7,62.2c0,13.8-3.2,25.9-9.4,36.3c-6.3,10.4-15.7,19-28.3,25.7
				c16.1,7,28.3,16.7,36.6,29.1c8.3,12.4,12.4,27.1,12.4,44.3c0,31.5-10.3,56.5-31,74.9c-20.7,18.5-48.9,27.7-84.6,27.7
				c-35.3,0-62.5-9-81.6-26.9c-19.1-17.9-28.7-43.5-28.7-76.6V291z"/>
		</g>
	</g>
</g>
<g>
	<g>
		<path class="st0" d="M83.6,688.8h18.9c-0.8,9.1-4.1,16.3-10,21.6c-5.8,5.3-13.4,7.9-22.5,7.9c-10.4,0-18.6-3.4-24.5-10.2
			c-5.9-6.8-8.9-16.2-8.9-28.2c0-12,3-21.3,9.1-28.1c6-6.8,14.4-10.2,24.9-10.2c9.3,0,16.7,2.5,22.3,7.4s8.7,11.8,9.4,20.6H83.3
			c-0.5-3.8-1.9-6.7-4-8.8c-2.2-2-5-3-8.5-3c-4.7,0-8.3,1.9-10.6,5.6c-2.4,3.7-3.5,9.3-3.5,16.8c0,6.9,1.2,12.2,3.7,15.9
			c2.4,3.7,5.9,5.6,10.5,5.6c3.6,0,6.4-1.1,8.6-3.2C81.5,696.3,82.9,693.1,83.6,688.8z"/>
		<path class="st0" d="M111,679.9c0-11.9,3.2-21.3,9.7-28.1c6.5-6.8,15.3-10.2,26.6-10.2c11.2,0,20.1,3.4,26.6,10.2
			c6.5,6.8,9.7,16.2,9.7,28.1c0,12-3.2,21.3-9.7,28.1c-6.5,6.8-15.3,10.2-26.6,10.2c-11.3,0-20.2-3.4-26.6-10.2S111,691.9,111,679.9
			z M130.4,679.9c0,7.1,1.5,12.6,4.4,16.5c2.9,3.9,7.1,5.8,12.5,5.8c5.3,0,9.4-1.9,12.4-5.8c2.9-3.9,4.4-9.4,4.4-16.5
			c0-7.1-1.5-12.5-4.4-16.4s-7-5.8-12.4-5.8c-5.4,0-9.6,1.9-12.5,5.8C131.9,667.4,130.4,672.9,130.4,679.9z"/>
		<path class="st0" d="M197.4,715.9v-97.1h19.2v97.1H197.4z"/>
		<path class="st0" d="M234.5,715.9v-97.1h19.2v97.1H234.5z"/>
		<path class="st0" d="M315.1,694.1h19.1c-1.9,7.6-5.8,13.5-11.7,17.8c-5.9,4.3-13,6.4-21.5,6.4c-10.4,0-18.6-3.5-24.7-10.4
			s-9.1-16.4-9.1-28.3c0-11.7,3-21,9-27.8c6-6.8,14.1-10.2,24.5-10.2c11,0,19.5,3.3,25.4,10c6,6.7,9,16.1,9,28.4c0,1.4,0,2.4,0,3.1
			c0,0.7-0.1,1.3-0.2,1.9h-47.9c0.3,5.6,1.6,9.9,4.1,12.7c2.5,2.9,6.1,4.3,10.7,4.3c3.3,0,6-0.6,8.1-1.9
			C312.2,698.8,313.9,696.8,315.1,694.1z M287.1,672.5h28.2c-0.2-4.8-1.5-8.5-3.9-11c-2.4-2.5-5.8-3.8-10.3-3.8
			c-4.2,0-7.5,1.3-9.9,3.8C288.9,664,287.5,667.7,287.1,672.5z"/>
		<path class="st0" d="M391.2,688.8h18.9c-0.8,9.1-4.1,16.3-10,21.6c-5.8,5.3-13.4,7.9-22.5,7.9c-10.4,0-18.6-3.4-24.5-10.2
			c-5.9-6.8-8.9-16.2-8.9-28.2c0-12,3-21.3,9.1-28.1c6-6.8,14.4-10.2,24.9-10.2c9.3,0,16.7,2.5,22.3,7.4s8.7,11.8,9.4,20.6h-19.1
			c-0.5-3.8-1.9-6.7-4-8.8c-2.2-2-5-3-8.5-3c-4.7,0-8.3,1.9-10.6,5.6c-2.4,3.7-3.5,9.3-3.5,16.8c0,6.9,1.2,12.2,3.7,15.9
			c2.4,3.7,5.9,5.6,10.5,5.6c3.6,0,6.4-1.1,8.6-3.2C389.1,696.3,390.5,693.1,391.2,688.8z"/>
		<path class="st0" d="M454,716.4c-1.8,0-3.9,0.1-6.3,0.2s-4,0.2-4.6,0.2c-7.3,0-12.4-1.4-15.1-4.1c-2.7-2.7-4.1-8.2-4.1-16.2v-38.8
			h-9.5v-13.4h9.5v-19.6h19v19.6H454v13.4H443v39.7c0,1.9,0.4,3.1,1.3,3.7c0.8,0.6,2.5,0.9,5.1,0.9h4.7V716.4z"/>
		<path class="st0" d="M509.3,694.1h19.1c-1.9,7.6-5.8,13.5-11.7,17.8c-5.9,4.3-13,6.4-21.5,6.4c-10.4,0-18.6-3.5-24.7-10.4
			s-9.1-16.4-9.1-28.3c0-11.7,3-21,9-27.8c6-6.8,14.1-10.2,24.5-10.2c11,0,19.5,3.3,25.4,10c6,6.7,9,16.1,9,28.4c0,1.4,0,2.4,0,3.1
			c0,0.7-0.1,1.3-0.2,1.9h-47.9c0.3,5.6,1.6,9.9,4.1,12.7c2.5,2.9,6.1,4.3,10.7,4.3c3.3,0,6-0.6,8.1-1.9
			C506.4,698.8,508,696.8,509.3,694.1z M481.3,672.5h28.2c-0.2-4.8-1.5-8.5-3.9-11c-2.4-2.5-5.8-3.8-10.3-3.8
			c-4.2,0-7.5,1.3-9.9,3.8C483.1,664,481.7,667.7,481.3,672.5z"/>
		<path class="st0" d="M607.9,618.8v97.1h-18.2v-9.7c-2.8,4.2-5.9,7.2-9.3,9.2c-3.5,2-7.5,2.9-12.2,2.9c-8.8,0-16-3.5-21.5-10.5
			c-5.5-7-8.2-16.2-8.2-27.5c0-11.4,2.7-20.7,8.2-27.8c5.5-7.1,12.5-10.7,21.2-10.7c4.6,0,8.7,1,12.4,2.9c3.6,1.9,6.6,4.7,9,8.4
			v-34.3H607.9z M557.7,679.5c0,7.3,1.4,12.8,4.1,16.6c2.7,3.8,6.7,5.7,11.8,5.7c5.1,0,9-1.9,11.7-5.7c2.7-3.8,4-9.3,4-16.6
			c0-6.8-1.4-12-4.2-15.7c-2.8-3.7-6.8-5.5-11.9-5.5c-4.8,0-8.6,1.9-11.3,5.6S557.7,673,557.7,679.5z"/>
		<path class="st0" d="M712.7,715.9v-97.1h18.7v51l22.8-25.5h23.1l-25,26.6l26.5,45.1h-23l-17.1-30.5l-7.3,7.8v22.7H712.7z"/>
		<path class="st0" d="M831.3,694.1h19.1c-1.9,7.6-5.8,13.5-11.7,17.8c-5.9,4.3-13,6.4-21.5,6.4c-10.4,0-18.6-3.5-24.7-10.4
			s-9.1-16.4-9.1-28.3c0-11.7,3-21,9-27.8c6-6.8,14.1-10.2,24.5-10.2c11,0,19.5,3.3,25.4,10c6,6.7,9,16.1,9,28.4c0,1.4,0,2.4,0,3.1
			c0,0.7-0.1,1.3-0.2,1.9h-47.9c0.3,5.6,1.6,9.9,4.1,12.7c2.5,2.9,6.1,4.3,10.7,4.3c3.3,0,6-0.6,8.1-1.9
			C828.4,698.8,830.1,696.8,831.3,694.1z M803.3,672.5h28.2c-0.2-4.8-1.5-8.5-3.9-11c-2.4-2.5-5.8-3.8-10.3-3.8
			c-4.2,0-7.5,1.3-9.9,3.8C805.1,664,803.7,667.7,803.3,672.5z"/>
		<path class="st0" d="M866.9,744.6v-15.5c0.6,0.1,1.3,0.2,1.9,0.2s1.5,0.1,2.6,0.1c3.8,0,6.6-0.9,8.5-2.7c1.9-1.8,2.8-4.4,2.8-8
			c0-0.3,0-0.6-0.1-1c-0.1-0.4-0.2-0.7-0.3-1l-25.8-72.5h21.1l15.1,51.7l14.7-51.7h20.2l-29.5,84.5c-2.2,6.3-4.9,10.6-8.2,13
			c-3.3,2.3-8.2,3.5-14.8,3.5c-1.2,0-2.5,0-3.8-0.1C869.8,744.9,868.4,744.8,866.9,744.6z"/>
		<path class="st0" d="M932.5,692.5h19.1c0.2,3.6,1.5,6.4,4,8.1c2.5,1.8,6.2,2.7,11.1,2.7c3.7,0,6.6-0.6,8.7-1.9
			c2-1.3,3.1-3,3.1-5.3c0-3.3-3.8-5.7-11.5-7.3c-3.1-0.7-5.6-1.2-7.4-1.7c-9.3-2.4-15.8-5.2-19.4-8.4c-3.6-3.3-5.4-7.6-5.4-13.2
			c0-7.3,2.6-13.2,7.9-17.4c5.3-4.3,12.5-6.4,21.5-6.4c9.6,0,17.1,2.1,22.6,6.4c5.5,4.3,8.4,10.3,8.7,18h-18.7
			c-0.1-3-1.3-5.4-3.5-7.1c-2.2-1.7-5.2-2.5-9.1-2.5c-3.6,0-6.4,0.5-8.1,1.6c-1.8,1.1-2.7,2.7-2.7,4.9c0,2.9,4.8,5.4,14.3,7.6
			c2.2,0.5,3.9,0.9,5.2,1.2c9.5,2.2,16.1,4.9,19.5,8.1c3.5,3.2,5.2,7.6,5.2,13.4c0,8.1-2.9,14.3-8.6,18.6c-5.7,4.3-14.1,6.4-25,6.4
			c-9.9,0-17.6-2.2-23.2-6.7c-5.6-4.4-8.4-10.5-8.4-18.3V692.5z"/>
	</g>
	<g>
		<g>
			<path class="st1" d="M76.8,682h18.9c-0.8,9.1-4.1,16.3-10,21.6c-5.8,5.3-13.4,7.9-22.5,7.9c-10.4,0-18.6-3.4-24.5-10.2
				c-5.9-6.8-8.9-16.2-8.9-28.2c0-12,3-21.3,9.1-28.1c6-6.8,14.4-10.2,24.9-10.2c9.3,0,16.7,2.5,22.3,7.4s8.7,11.8,9.4,20.6H76.5
				c-0.5-3.8-1.9-6.7-4-8.8c-2.2-2-5-3-8.5-3c-4.7,0-8.3,1.9-10.6,5.6c-2.4,3.7-3.5,9.3-3.5,16.8c0,6.9,1.2,12.2,3.7,15.9
				c2.4,3.7,5.9,5.6,10.5,5.6c3.6,0,6.4-1.1,8.6-3.2C74.7,689.5,76.1,686.3,76.8,682z"/>
			<path class="st1" d="M104.2,673.1c0-11.9,3.2-21.3,9.7-28.1c6.5-6.8,15.3-10.2,26.6-10.2c11.2,0,20.1,3.4,26.6,10.2
				c6.5,6.8,9.7,16.2,9.7,28.1c0,12-3.2,21.3-9.7,28.1c-6.5,6.8-15.3,10.2-26.6,10.2c-11.3,0-20.2-3.4-26.6-10.2
				S104.2,685.1,104.2,673.1z M123.6,673.1c0,7.1,1.5,12.6,4.4,16.5c2.9,3.9,7.1,5.8,12.5,5.8c5.3,0,9.4-1.9,12.4-5.8
				c2.9-3.9,4.4-9.4,4.4-16.5c0-7.1-1.5-12.5-4.4-16.4s-7-5.8-12.4-5.8c-5.4,0-9.6,1.9-12.5,5.8
				C125.1,660.6,123.6,666.1,123.6,673.1z"/>
			<path class="st1" d="M190.6,709.1V612h19.2v97.1H190.6z"/>
			<path class="st1" d="M227.7,709.1V612h19.2v97.1H227.7z"/>
			<path class="st1" d="M308.3,687.3h19.1c-1.9,7.6-5.8,13.5-11.7,17.8c-5.9,4.3-13,6.4-21.5,6.4c-10.4,0-18.6-3.5-24.7-10.4
				s-9.1-16.4-9.1-28.3c0-11.7,3-21,9-27.8c6-6.8,14.1-10.2,24.5-10.2c11,0,19.5,3.3,25.4,10c6,6.7,9,16.1,9,28.4c0,1.4,0,2.4,0,3.1
				c0,0.7-0.1,1.3-0.2,1.9h-47.9c0.3,5.6,1.6,9.9,4.1,12.7c2.5,2.9,6.1,4.3,10.7,4.3c3.3,0,6-0.6,8.1-1.9
				C305.4,692,307.1,690,308.3,687.3z M280.3,665.7h28.2c-0.2-4.8-1.5-8.5-3.9-11c-2.4-2.5-5.8-3.8-10.3-3.8c-4.2,0-7.5,1.3-9.9,3.8
				C282.1,657.2,280.7,660.9,280.3,665.7z"/>
			<path class="st1" d="M384.4,682h18.9c-0.8,9.1-4.1,16.3-10,21.6c-5.8,5.3-13.4,7.9-22.5,7.9c-10.4,0-18.6-3.4-24.5-10.2
				c-5.9-6.8-8.9-16.2-8.9-28.2c0-12,3-21.3,9.1-28.1c6-6.8,14.4-10.2,24.9-10.2c9.3,0,16.7,2.5,22.3,7.4s8.7,11.8,9.4,20.6h-19.1
				c-0.5-3.8-1.9-6.7-4-8.8c-2.2-2-5-3-8.5-3c-4.7,0-8.3,1.9-10.6,5.6c-2.4,3.7-3.5,9.3-3.5,16.8c0,6.9,1.2,12.2,3.7,15.9
				c2.4,3.7,5.9,5.6,10.5,5.6c3.6,0,6.4-1.1,8.6-3.2C382.3,689.5,383.7,686.3,384.4,682z"/>
			<path class="st1" d="M447.2,709.6c-1.8,0-3.9,0.1-6.3,0.2s-4,0.2-4.6,0.2c-7.3,0-12.4-1.4-15.1-4.1c-2.7-2.7-4.1-8.2-4.1-16.2
				v-38.8h-9.5v-13.4h9.5v-19.6h19v19.6h11.1v13.4h-11.1v39.7c0,1.9,0.4,3.1,1.3,3.7c0.8,0.6,2.5,0.9,5.1,0.9h4.7V709.6z"/>
			<path class="st1" d="M502.5,687.3h19.1c-1.9,7.6-5.8,13.5-11.7,17.8c-5.9,4.3-13,6.4-21.5,6.4c-10.4,0-18.6-3.5-24.7-10.4
				s-9.1-16.4-9.1-28.3c0-11.7,3-21,9-27.8c6-6.8,14.1-10.2,24.5-10.2c11,0,19.5,3.3,25.4,10c6,6.7,9,16.1,9,28.4c0,1.4,0,2.4,0,3.1
				c0,0.7-0.1,1.3-0.2,1.9h-47.9c0.3,5.6,1.6,9.9,4.1,12.7c2.5,2.9,6.1,4.3,10.7,4.3c3.3,0,6-0.6,8.1-1.9
				C499.6,692,501.2,690,502.5,687.3z M474.5,665.7h28.2c-0.2-4.8-1.5-8.5-3.9-11c-2.4-2.5-5.8-3.8-10.3-3.8c-4.2,0-7.5,1.3-9.9,3.8
				C476.3,657.2,474.9,660.9,474.5,665.7z"/>
			<path class="st1" d="M601.1,612v97.1h-18.2v-9.7c-2.8,4.2-5.9,7.2-9.3,9.2c-3.5,2-7.5,2.9-12.2,2.9c-8.8,0-16-3.5-21.5-10.5
				c-5.5-7-8.2-16.2-8.2-27.5c0-11.4,2.7-20.7,8.2-27.8c5.5-7.1,12.5-10.7,21.2-10.7c4.6,0,8.7,1,12.4,2.9c3.6,1.9,6.6,4.7,9,8.4
				V612H601.1z M550.9,672.7c0,7.3,1.4,12.8,4.1,16.6c2.7,3.8,6.7,5.7,11.8,5.7c5.1,0,9-1.9,11.7-5.7c2.7-3.8,4-9.3,4-16.6
				c0-6.8-1.4-12-4.2-15.7c-2.8-3.7-6.8-5.5-11.9-5.5c-4.8,0-8.6,1.9-11.3,5.6S550.9,666.2,550.9,672.7z"/>
			<path class="st1" d="M705.9,709.1V612h18.7v51l22.8-25.5h23.1l-25,26.6l26.5,45.1h-23l-17.1-30.5l-7.3,7.8v22.7H705.9z"/>
			<path class="st1" d="M824.5,687.3h19.1c-1.9,7.6-5.8,13.5-11.7,17.8c-5.9,4.3-13,6.4-21.5,6.4c-10.4,0-18.6-3.5-24.7-10.4
				s-9.1-16.4-9.1-28.3c0-11.7,3-21,9-27.8c6-6.8,14.1-10.2,24.5-10.2c11,0,19.5,3.3,25.4,10c6,6.7,9,16.1,9,28.4c0,1.4,0,2.4,0,3.1
				c0,0.7-0.1,1.3-0.2,1.9h-47.9c0.3,5.6,1.6,9.9,4.1,12.7c2.5,2.9,6.1,4.3,10.7,4.3c3.3,0,6-0.6,8.1-1.9
				C821.6,692,823.3,690,824.5,687.3z M796.5,665.7h28.2c-0.2-4.8-1.5-8.5-3.9-11c-2.4-2.5-5.8-3.8-10.3-3.8c-4.2,0-7.5,1.3-9.9,3.8
				C798.3,657.2,796.9,660.9,796.5,665.7z"/>
			<path class="st1" d="M860.1,737.8v-15.5c0.6,0.1,1.3,0.2,1.9,0.2s1.5,0.1,2.6,0.1c3.8,0,6.6-0.9,8.5-2.7c1.9-1.8,2.8-4.4,2.8-8
				c0-0.3,0-0.6-0.1-1c-0.1-0.4-0.2-0.7-0.3-1l-25.8-72.5h21.1l15.1,51.7l14.7-51.7h20.2l-29.5,84.5c-2.2,6.3-4.9,10.6-8.2,13
				c-3.3,2.3-8.2,3.5-14.8,3.5c-1.2,0-2.5,0-3.8-0.1C863,738.1,861.6,738,860.1,737.8z"/>
			<path class="st1" d="M925.7,685.7h19.1c0.2,3.6,1.5,6.4,4,8.1c2.5,1.8,6.2,2.7,11.1,2.7c3.7,0,6.6-0.6,8.7-1.9
				c2-1.3,3.1-3,3.1-5.3c0-3.3-3.8-5.7-11.5-7.3c-3.1-0.7-5.6-1.2-7.4-1.7c-9.3-2.4-15.8-5.2-19.4-8.4c-3.6-3.3-5.4-7.6-5.4-13.2
				c0-7.3,2.6-13.2,7.9-17.4c5.3-4.3,12.5-6.4,21.5-6.4c9.6,0,17.1,2.1,22.6,6.4c5.5,4.3,8.4,10.3,8.7,18H970
				c-0.1-3-1.3-5.4-3.5-7.1c-2.2-1.7-5.2-2.5-9.1-2.5c-3.6,0-6.4,0.5-8.1,1.6c-1.8,1.1-2.7,2.7-2.7,4.9c0,2.9,4.8,5.4,14.3,7.6
				c2.2,0.5,3.9,0.9,5.2,1.2c9.5,2.2,16.1,4.9,19.5,8.1c3.5,3.2,5.2,7.6,5.2,13.4c0,8.1-2.9,14.3-8.6,18.6c-5.7,4.3-14.1,6.4-25,6.4
				c-9.9,0-17.6-2.2-23.2-6.7c-5.6-4.4-8.4-10.5-8.4-18.3V685.7z"/>
		</g>
	</g>
</g>
</svg>
