<?xml version="1.0" encoding="utf-8"?>
<!-- Generator: Adobe Illustrator 19.0.0, SVG Export Plug-In . SVG Version: 6.00 Build 0)  -->
<svg version="1.1" id="Camada_1" xmlns="http://www.w3.org/2000/svg" xmlns:xlink="http://www.w3.org/1999/xlink" x="0px" y="0px"
	 viewBox="-2497 1393.4 124.1 95.6" style="enable-background:new -2497 1393.4 124.1 95.6;" xml:space="preserve">
<style type="text/css">
	.st0{fill:#CB3089;}
	.st1{fill:#F5C280;}
</style>
<g>
	<g>
		<path class="st0" d="M-2467,1475v-38.2h-13.4v-7.9h0.9c4.9,0,8.4-0.8,10.6-2.3c2.2-1.5,3.5-4,3.9-7.6h8.9v55.9H-2467z"/>
		<path class="st0" d="M-2441,1482.4l19.4-66.4h5.4l-19.5,66.4H-2441z"/>
		<path class="st0" d="M-2413.7,1458h10.7c0,3.1,0.8,5.5,2.3,7.1c1.5,1.6,3.7,2.4,6.6,2.4c2.8,0,5-0.7,6.5-2.2
			c1.5-1.5,2.3-3.6,2.3-6.3c0-2.8-0.9-4.8-2.7-6.3c-1.8-1.4-4.4-2.1-7.9-2.1c-0.2,0-0.5,0-0.8,0c-0.4,0-0.7,0-0.8,0v-7.7h1.2
			c3.2,0,5.6-0.6,7.2-1.9c1.5-1.3,2.3-3.2,2.3-5.8c0-2.2-0.7-3.9-2-5.1c-1.3-1.3-3.1-1.9-5.4-1.9c-2.5,0-4.4,0.7-5.7,2.2
			c-1.4,1.5-2,3.5-2,6.2v0.5h-10.5c0.1-5.7,1.8-10.1,5.1-13.2c3.2-3.1,7.8-4.6,13.7-4.6c5.6,0,10,1.4,13.3,4.1s4.9,6.4,4.9,11.1
			c0,2.4-0.6,4.6-1.7,6.4c-1.1,1.8-2.8,3.4-5,4.6c2.9,1.3,5,3,6.5,5.2c1.5,2.2,2.2,4.8,2.2,7.9c0,5.6-1.8,10-5.5,13.3
			s-8.7,4.9-15,4.9c-6.3,0-11.1-1.6-14.5-4.8s-5.1-7.7-5.1-13.6V1458z"/>
	</g>
	<g>
		<g>
			<path class="st1" d="M-2475,1467v-38.2h-13.4v-7.9h0.9c4.9,0,8.4-0.8,10.6-2.3c2.2-1.5,3.5-4,3.9-7.6h8.9v55.9H-2475z"/>
			<path class="st1" d="M-2449,1474.4l19.4-66.4h5.4l-19.5,66.4H-2449z"/>
			<path class="st1" d="M-2421.7,1450h10.7c0,3.1,0.8,5.5,2.3,7.1c1.5,1.6,3.7,2.4,6.6,2.4c2.8,0,5-0.7,6.5-2.2
				c1.5-1.5,2.3-3.6,2.3-6.3c0-2.8-0.9-4.8-2.7-6.3c-1.8-1.4-4.4-2.1-7.9-2.1c-0.2,0-0.5,0-0.8,0c-0.4,0-0.7,0-0.8,0v-7.7h1.2
				c3.2,0,5.6-0.6,7.2-1.9c1.5-1.3,2.3-3.2,2.3-5.8c0-2.2-0.7-3.9-2-5.1c-1.3-1.3-3.1-1.9-5.4-1.9c-2.5,0-4.4,0.7-5.7,2.2
				c-1.4,1.5-2,3.5-2,6.2v0.5h-10.5c0.1-5.7,1.8-10.1,5.1-13.2c3.2-3.1,7.8-4.6,13.7-4.6c5.6,0,10,1.4,13.3,4.1s4.9,6.4,4.9,11.1
				c0,2.4-0.6,4.6-1.7,6.4c-1.1,1.8-2.8,3.4-5,4.6c2.9,1.3,5,3,6.5,5.2c1.5,2.2,2.2,4.8,2.2,7.9c0,5.6-1.8,10-5.5,13.3
				s-8.7,4.9-15,4.9c-6.3,0-11.1-1.6-14.5-4.8s-5.1-7.7-5.1-13.6V1450z"/>
		</g>
	</g>
</g>
</svg>
