<?xml version="1.0" encoding="utf-8"?>
<!-- Generator: Adobe Illustrator 20.1.0, SVG Export Plug-In . SVG Version: 6.00 Build 0)  -->
<svg version="1.1" id="Camada_1" xmlns="http://www.w3.org/2000/svg" xmlns:xlink="http://www.w3.org/1999/xlink" x="0px" y="0px"
	 viewBox="0 0 967.9 690.5" style="enable-background:new 0 0 967.9 690.5;" xml:space="preserve">
<style type="text/css">
	.st0{fill:#DC0396;}
	.st1{fill:#F5C280;}
</style>
<g>
	<g>
		<path class="st0" d="M87.8,338.8V123.7H12.7V79.5h4.8c27.4,0,47.4-4.2,59.9-12.7s19.9-22.7,22.1-42.6h50.3v314.6H87.8z"/>
		<path class="st0" d="M233.9,380.6l109-373.8H373L263.6,380.6H233.9z"/>
		<path class="st0" d="M387.3,243h60.4c0.1,17.6,4.4,30.8,12.7,39.7c8.3,8.9,20.7,13.3,37.1,13.3c15.8,0,28-4.1,36.6-12.4
			s12.9-20.2,12.9-35.7s-5-27.3-15.1-35.3c-10-8-24.9-12-44.7-12c-1,0-2.6,0.1-4.7,0.2c-2.1,0.1-3.7,0.2-4.7,0.2v-43.5h6.8
			c18.2,0,31.6-3.5,40.3-10.7c8.7-7.1,13.1-18,13.1-32.6c0-12.2-3.7-21.8-11.1-28.9c-7.4-7.1-17.5-10.7-30.2-10.7
			c-13.9,0-24.7,4.1-32.3,12.3c-7.6,8.2-11.4,19.9-11.4,34.9v2.6h-59.3c0.7-32.2,10.2-56.9,28.5-74.2c18.2-17.2,44-25.8,77.2-25.8
			c31.5,0,56.5,7.7,74.9,23.1S602,83.6,602,109.7c0,13.8-3.2,25.9-9.4,36.3c-6.3,10.4-15.7,19-28.3,25.7c16.1,7,28.3,16.7,36.6,29.1
			c8.3,12.4,12.4,27.1,12.4,44.3c0,31.5-10.3,56.5-31,74.9s-48.9,27.7-84.6,27.7c-35.3,0-62.5-9-81.6-26.9s-28.7-43.5-28.7-76.6
			L387.3,243L387.3,243z"/>
	</g>
	<g>
		<g>
			<path class="st1" d="M81,332V116.9H5.9V72.7h4.8c27.4,0,47.4-4.2,59.9-12.7s19.9-22.7,22.1-42.6H143V332L81,332L81,332z"/>
			<path class="st1" d="M227.1,373.8L336.1,0h30.1L256.8,373.8H227.1z"/>
			<path class="st1" d="M380.5,236.2h60.4c0.1,17.6,4.4,30.8,12.7,39.7c8.3,8.9,20.7,13.3,37.1,13.3c15.8,0,28-4.1,36.6-12.4
				c8.6-8.3,12.9-20.2,12.9-35.7s-5-27.3-15.1-35.3c-10-8-24.9-12-44.7-12c-1,0-2.6,0.1-4.7,0.2c-2.1,0.1-3.7,0.2-4.7,0.2v-43.5h6.8
				c18.2,0,31.6-3.5,40.3-10.7c8.7-7.1,13.1-18,13.1-32.6c0-12.2-3.7-21.8-11.1-28.9c-7.4-7.1-17.5-10.7-30.2-10.7
				c-13.9,0-24.7,4.1-32.3,12.3c-7.6,8.2-11.4,19.9-11.4,34.9v2.6h-59.3c0.7-32.2,10.2-56.9,28.5-74.2c18.2-17.2,44-25.8,77.2-25.8
				c31.5,0,56.5,7.7,74.9,23.1s27.7,36.1,27.7,62.2c0,13.8-3.2,25.9-9.4,36.3c-6.3,10.4-15.7,19-28.3,25.7
				c16.1,7,28.3,16.7,36.6,29.1c8.3,12.4,12.4,27.1,12.4,44.3c0,31.5-10.3,56.5-31,74.9s-48.9,27.7-84.6,27.7
				c-35.3,0-62.5-9-81.6-26.9s-28.7-43.5-28.7-76.6L380.5,236.2L380.5,236.2z"/>
		</g>
	</g>
</g>
<g>
	<g>
		<path class="st0" d="M53.8,634.1h19c-0.8,9.1-4.1,16.3-10,21.6c-5.8,5.3-13.4,7.9-22.5,7.9c-10.4,0-18.6-3.4-24.5-10.2
			c-5.9-6.8-8.9-16.2-8.9-28.2s3-21.3,9.1-28.1c6-6.8,14.4-10.2,24.9-10.2c9.3,0,16.7,2.5,22.3,7.4s8.7,11.8,9.4,20.6h-19
			c-0.5-3.8-1.9-6.7-4-8.8c-2.2-2-5-3-8.5-3c-4.7,0-8.3,1.9-10.6,5.6c-2.4,3.7-3.5,9.3-3.5,16.8c0,6.9,1.2,12.2,3.7,15.9
			c2.4,3.7,5.9,5.6,10.5,5.6c3.6,0,6.4-1.1,8.6-3.2C51.8,641.6,53.2,638.3,53.8,634.1z"/>
		<path class="st0" d="M81.3,625.2c0-11.9,3.2-21.3,9.7-28.1c6.5-6.8,15.3-10.2,26.6-10.2c11.2,0,20.1,3.4,26.6,10.2
			c6.5,6.8,9.7,16.2,9.7,28.1c0,12-3.2,21.3-9.7,28.1c-6.5,6.8-15.3,10.2-26.6,10.2s-20.2-3.4-26.6-10.2
			C84.6,646.5,81.3,637.1,81.3,625.2z M100.7,625.2c0,7.1,1.5,12.6,4.4,16.5s7.1,5.8,12.5,5.8c5.3,0,9.4-1.9,12.4-5.8
			c2.9-3.9,4.4-9.4,4.4-16.5s-1.5-12.5-4.4-16.4c-2.9-3.8-7-5.8-12.4-5.8s-9.6,1.9-12.5,5.8C102.2,612.7,100.7,618.1,100.7,625.2z"
			/>
		<path class="st0" d="M167.6,661.1V564h19.2v97.1H167.6z"/>
		<path class="st0" d="M204.7,661.1V564h19.2v97.1H204.7z"/>
		<path class="st0" d="M285.3,639.4h19.1c-1.9,7.6-5.8,13.5-11.7,17.8c-5.9,4.3-13,6.4-21.5,6.4c-10.4,0-18.6-3.5-24.7-10.4
			c-6.1-7-9.1-16.4-9.1-28.3c0-11.7,3-21,9-27.8c6-6.8,14.1-10.2,24.5-10.2c11,0,19.5,3.3,25.4,10c6,6.7,9,16.1,9,28.4
			c0,1.4,0,2.4,0,3.1s-0.1,1.3-0.2,1.9h-47.9c0.3,5.6,1.6,9.9,4.1,12.7c2.5,2.9,6.1,4.3,10.7,4.3c3.3,0,6-0.6,8.1-1.9
			C282.4,644.1,284.1,642.1,285.3,639.4z M257.4,617.7h28.2c-0.2-4.8-1.5-8.5-3.9-11s-5.8-3.8-10.3-3.8c-4.2,0-7.5,1.3-9.9,3.8
			C259.2,609.3,257.8,612.9,257.4,617.7z"/>
		<path class="st0" d="M361.4,634.1h18.9c-0.8,9.1-4.1,16.3-10,21.6c-5.8,5.3-13.4,7.9-22.5,7.9c-10.4,0-18.6-3.4-24.5-10.2
			c-5.9-6.8-8.9-16.2-8.9-28.2s3-21.3,9.1-28.1c6-6.8,14.4-10.2,24.9-10.2c9.3,0,16.7,2.5,22.3,7.4c5.6,4.9,8.7,11.8,9.4,20.6H361
			c-0.5-3.8-1.9-6.7-4-8.8c-2.2-2-5-3-8.5-3c-4.7,0-8.3,1.9-10.6,5.6c-2.4,3.7-3.5,9.3-3.5,16.8c0,6.9,1.2,12.2,3.7,15.9
			c2.4,3.7,5.9,5.6,10.5,5.6c3.6,0,6.4-1.1,8.6-3.2C359.3,641.6,360.8,638.3,361.4,634.1z"/>
		<path class="st0" d="M424.3,661.6c-1.8,0-3.9,0.1-6.3,0.2c-2.4,0.1-4,0.2-4.6,0.2c-7.3,0-12.4-1.4-15.1-4.1s-4.1-8.2-4.1-16.2
			v-38.8h-9.5v-13.4h9.5v-19.6h19v19.6h11.1v13.4h-11.1v39.7c0,1.9,0.4,3.1,1.3,3.7c0.8,0.6,2.5,0.9,5.1,0.9h4.7V661.6z"/>
		<path class="st0" d="M479.5,639.4h19.1c-1.9,7.6-5.8,13.5-11.7,17.8c-5.9,4.3-13,6.4-21.5,6.4c-10.4,0-18.6-3.5-24.7-10.4
			c-6.1-7-9.1-16.4-9.1-28.3c0-11.7,3-21,9-27.8c6-6.8,14.1-10.2,24.5-10.2c11,0,19.5,3.3,25.4,10c6,6.7,9,16.1,9,28.4
			c0,1.4,0,2.4,0,3.1s-0.1,1.3-0.2,1.9h-47.9c0.3,5.6,1.6,9.9,4.1,12.7c2.5,2.9,6.1,4.3,10.7,4.3c3.3,0,6-0.6,8.1-1.9
			C476.6,644.1,478.3,642.1,479.5,639.4z M451.6,617.7h28.2c-0.2-4.8-1.5-8.5-3.9-11s-5.8-3.8-10.3-3.8c-4.2,0-7.5,1.3-9.9,3.8
			C453.4,609.3,452,612.9,451.6,617.7z"/>
		<path class="st0" d="M578.1,564v97.1h-18.2v-9.7c-2.8,4.2-5.9,7.2-9.3,9.2c-3.5,2-7.5,2.9-12.2,2.9c-8.8,0-16-3.5-21.5-10.5
			s-8.2-16.1-8.2-27.5s2.7-20.7,8.2-27.9c5.5-7.1,12.5-10.7,21.2-10.7c4.6,0,8.7,1,12.4,2.9c3.6,1.9,6.6,4.7,9,8.4v-34.3L578.1,564
			L578.1,564z M528,624.8c0,7.3,1.4,12.8,4.1,16.6c2.7,3.8,6.7,5.7,11.8,5.7s9-1.9,11.7-5.7c2.7-3.8,4-9.3,4-16.6
			c0-6.8-1.4-12-4.2-15.7c-2.8-3.7-6.8-5.5-11.9-5.5c-4.8,0-8.6,1.9-11.3,5.6C529.4,613,528,618.2,528,624.8z"/>
		<path class="st0" d="M683,661.1V564h18.7v51l22.8-25.5h23.1l-25,26.6l26.5,45.1h-23L709,630.7l-7.3,7.8v22.7L683,661.1L683,661.1z
			"/>
		<path class="st0" d="M801.5,639.4h19.1c-1.9,7.6-5.8,13.5-11.7,17.8c-5.9,4.3-13,6.4-21.5,6.4c-10.4,0-18.6-3.5-24.7-10.4
			c-6.1-7-9.1-16.4-9.1-28.3c0-11.7,3-21,9-27.8c6-6.8,14.1-10.2,24.5-10.2c11,0,19.5,3.3,25.4,10c6,6.7,9,16.1,9,28.4
			c0,1.4,0,2.4,0,3.1s-0.1,1.3-0.2,1.9h-47.9c0.3,5.6,1.6,9.9,4.1,12.7c2.5,2.9,6.1,4.3,10.7,4.3c3.3,0,6-0.6,8.1-1.9
			C798.6,644.1,800.3,642.1,801.5,639.4z M773.6,617.7h28.2c-0.2-4.8-1.5-8.5-3.9-11s-5.8-3.8-10.3-3.8c-4.2,0-7.5,1.3-9.9,3.8
			C775.4,609.3,774,612.9,773.6,617.7z"/>
		<path class="st0" d="M837.1,689.9v-15.5c0.6,0.1,1.3,0.2,1.9,0.2c0.7,0,1.5,0.1,2.6,0.1c3.8,0,6.6-0.9,8.5-2.7
			c1.9-1.8,2.8-4.4,2.8-8c0-0.3,0-0.6-0.1-1s-0.2-0.7-0.3-1l-25.8-72.5h21.1l15.1,51.7l14.7-51.7h20.2L868.3,674
			c-2.2,6.3-4.9,10.6-8.2,13c-3.3,2.3-8.2,3.5-14.8,3.5c-1.2,0-2.5,0-3.8-0.1C840.1,690.2,838.6,690,837.1,689.9z"/>
		<path class="st0" d="M902.8,637.8h19.1c0.2,3.6,1.5,6.4,4,8.1c2.5,1.8,6.2,2.7,11.1,2.7c3.7,0,6.6-0.6,8.7-1.9
			c2-1.3,3.1-3,3.1-5.3c0-3.3-3.8-5.7-11.5-7.3c-3.1-0.7-5.6-1.2-7.4-1.7c-9.3-2.4-15.8-5.2-19.4-8.4c-3.6-3.3-5.4-7.6-5.4-13.2
			c0-7.3,2.6-13.2,7.9-17.4c5.3-4.3,12.5-6.4,21.5-6.4c9.6,0,17.1,2.1,22.6,6.4c5.5,4.3,8.4,10.3,8.7,18h-18.7
			c-0.1-3-1.3-5.4-3.5-7.1c-2.2-1.7-5.2-2.5-9.1-2.5c-3.6,0-6.4,0.6-8.1,1.6c-1.8,1.1-2.7,2.7-2.7,4.9c0,2.9,4.8,5.4,14.3,7.6
			c2.2,0.5,3.9,0.9,5.2,1.2c9.5,2.2,16.1,4.9,19.5,8.1c3.5,3.2,5.2,7.6,5.2,13.4c0,8.1-2.9,14.3-8.6,18.6c-5.7,4.3-14.1,6.4-25,6.4
			c-9.9,0-17.6-2.2-23.2-6.7c-5.6-4.4-8.4-10.5-8.4-18.3v-0.8H902.8z"/>
	</g>
	<g>
		<g>
			<path class="st1" d="M47,627.3h18.9c-0.8,9.1-4.1,16.3-10,21.6c-5.8,5.3-13.4,7.9-22.5,7.9c-10.4,0-18.6-3.4-24.5-10.2
				C3,639.8,0,630.4,0,618.4s3-21.3,9.1-28.1c6-6.8,14.4-10.2,24.9-10.2c9.3,0,16.7,2.5,22.3,7.4s8.7,11.8,9.4,20.6H46.8
				c-0.5-3.8-1.9-6.7-4-8.8c-2.2-2-5-3-8.5-3c-4.7,0-8.3,1.9-10.6,5.6c-2.4,3.7-3.5,9.3-3.5,16.8c0,6.9,1.2,12.2,3.7,15.9
				c2.4,3.7,5.9,5.6,10.5,5.6c3.6,0,6.4-1.1,8.6-3.2C45,634.8,46.4,631.5,47,627.3z"/>
			<path class="st1" d="M74.5,618.4c0-11.9,3.2-21.3,9.7-28.1c6.5-6.8,15.3-10.2,26.6-10.2c11.2,0,20.1,3.4,26.6,10.2
				c6.5,6.8,9.7,16.2,9.7,28.1c0,12-3.2,21.3-9.7,28.1c-6.5,6.8-15.3,10.2-26.6,10.2s-20.2-3.4-26.6-10.2
				C77.8,639.7,74.5,630.3,74.5,618.4z M93.9,618.4c0,7.1,1.5,12.6,4.4,16.5s7.1,5.8,12.5,5.8c5.3,0,9.4-1.9,12.4-5.8
				c2.9-3.9,4.4-9.4,4.4-16.5s-1.5-12.5-4.4-16.4c-2.9-3.8-7-5.8-12.4-5.8s-9.6,1.9-12.5,5.8S93.9,611.3,93.9,618.4z"/>
			<path class="st1" d="M160.8,654.3v-97.1H180v97.1H160.8z"/>
			<path class="st1" d="M197.9,654.3v-97.1h19.2v97.1H197.9z"/>
			<path class="st1" d="M278.5,632.6h19.1c-1.9,7.6-5.8,13.5-11.7,17.8c-5.9,4.3-13,6.4-21.5,6.4c-10.4,0-18.6-3.5-24.7-10.4
				c-6.1-7-9.1-16.4-9.1-28.3c0-11.7,3-21,9-27.8c6-6.8,14.1-10.2,24.5-10.2c11,0,19.5,3.3,25.4,10c6,6.7,9,16.1,9,28.4
				c0,1.4,0,2.4,0,3.1c0,0.7-0.1,1.3-0.2,1.9h-47.9c0.3,5.6,1.6,9.9,4.1,12.7c2.5,2.9,6.1,4.3,10.7,4.3c3.3,0,6-0.6,8.1-1.9
				C275.6,637.3,277.3,635.3,278.5,632.6z M250.6,610.9h28.2c-0.2-4.8-1.5-8.5-3.9-11s-5.8-3.8-10.3-3.8c-4.2,0-7.5,1.3-9.9,3.8
				C252.4,602.5,251,606.1,250.6,610.9z"/>
			<path class="st1" d="M354.6,627.3h18.9c-0.8,9.1-4.1,16.3-10,21.6c-5.8,5.3-13.4,7.9-22.5,7.9c-10.4,0-18.6-3.4-24.5-10.2
				c-5.9-6.8-8.9-16.2-8.9-28.2s3-21.3,9.1-28.1c6-6.8,14.4-10.2,24.9-10.2c9.3,0,16.7,2.5,22.3,7.4c5.6,4.9,8.7,11.8,9.4,20.6
				h-19.1c-0.5-3.8-1.9-6.7-4-8.8c-2.2-2-5-3-8.5-3c-4.7,0-8.3,1.9-10.6,5.6c-2.4,3.7-3.5,9.3-3.5,16.8c0,6.9,1.2,12.2,3.7,15.9
				c2.4,3.7,5.9,5.6,10.5,5.6c3.6,0,6.4-1.1,8.6-3.2C352.5,634.8,354,631.5,354.6,627.3z"/>
			<path class="st1" d="M417.5,654.8c-1.8,0-3.9,0.1-6.3,0.2c-2.4,0.1-4,0.2-4.6,0.2c-7.3,0-12.4-1.4-15.1-4.1s-4.1-8.2-4.1-16.2
				v-38.8h-9.5v-13.4h9.5v-19.6h19v19.6h11.1v13.4h-11.1v39.7c0,1.9,0.4,3.1,1.3,3.7c0.8,0.6,2.5,0.9,5.1,0.9h4.7V654.8z"/>
			<path class="st1" d="M472.7,632.6h19.1c-1.9,7.6-5.8,13.5-11.7,17.8c-5.9,4.3-13,6.4-21.5,6.4c-10.4,0-18.6-3.5-24.7-10.4
				c-6.1-7-9.1-16.4-9.1-28.3c0-11.7,3-21,9-27.8c6-6.8,14.1-10.2,24.5-10.2c11,0,19.5,3.3,25.4,10c6,6.7,9,16.1,9,28.4
				c0,1.4,0,2.4,0,3.1c0,0.7-0.1,1.3-0.2,1.9h-47.7c0.3,5.6,1.6,9.9,4.1,12.7c2.5,2.9,6.1,4.3,10.7,4.3c3.3,0,6-0.6,8.1-1.9
				C469.8,637.3,471.5,635.3,472.7,632.6z M444.8,610.9H473c-0.2-4.8-1.5-8.5-3.9-11s-5.8-3.8-10.3-3.8c-4.2,0-7.5,1.3-9.9,3.8
				C446.6,602.5,445.2,606.1,444.8,610.9z"/>
			<path class="st1" d="M571.3,557.2v97.1h-18.2v-9.7c-2.8,4.2-5.9,7.2-9.3,9.2c-3.5,2-7.5,2.9-12.2,2.9c-8.8,0-16-3.5-21.5-10.5
				s-8.2-16.1-8.2-27.5s2.7-20.7,8.2-27.9c5.5-7.1,12.5-10.7,21.2-10.7c4.6,0,8.7,1,12.4,2.9c3.6,1.9,6.6,4.7,9,8.4v-34.3
				L571.3,557.2L571.3,557.2z M521.2,618c0,7.3,1.4,12.8,4.1,16.6c2.7,3.8,6.7,5.7,11.8,5.7s9-1.9,11.7-5.7c2.7-3.8,4-9.3,4-16.6
				c0-6.8-1.4-12-4.2-15.7c-2.8-3.7-6.8-5.5-11.9-5.5c-4.8,0-8.6,1.9-11.3,5.6C522.6,606.2,521.2,611.4,521.2,618z"/>
			<path class="st1" d="M676.2,654.3v-97.1h18.6v51l22.8-25.5h23.1l-25,26.6l26.5,45.1h-23l-17.1-30.5l-7.3,7.8v22.7L676.2,654.3
				L676.2,654.3z"/>
			<path class="st1" d="M794.7,632.6h19.1c-1.9,7.6-5.8,13.5-11.7,17.8c-5.9,4.3-13,6.4-21.5,6.4c-10.4,0-18.6-3.5-24.7-10.4
				c-6.1-7-9.1-16.4-9.1-28.3c0-11.7,3-21,9-27.8c6-6.8,14.1-10.2,24.5-10.2c11,0,19.5,3.3,25.4,10c6,6.7,9,16.1,9,28.4
				c0,1.4,0,2.4,0,3.1c0,0.7-0.1,1.3-0.2,1.9h-47.7c0.3,5.6,1.6,9.9,4.1,12.7c2.5,2.9,6.1,4.3,10.7,4.3c3.3,0,6-0.6,8.1-1.9
				C791.8,637.3,793.5,635.3,794.7,632.6z M766.8,610.9H795c-0.2-4.8-1.5-8.5-3.9-11s-5.8-3.8-10.3-3.8c-4.2,0-7.5,1.3-9.9,3.8
				C768.6,602.5,767.2,606.1,766.8,610.9z"/>
			<path class="st1" d="M830.3,683.1v-15.5c0.6,0.1,1.3,0.2,1.9,0.2c0.7,0,1.5,0.1,2.6,0.1c3.8,0,6.6-0.9,8.5-2.7
				c1.9-1.8,2.8-4.4,2.8-8c0-0.3,0-0.6-0.1-1s-0.2-0.7-0.3-1l-25.8-72.5H841l15.1,51.7l14.7-51.7H891l-29.5,84.5
				c-2.2,6.3-4.9,10.6-8.2,13c-3.3,2.3-8.2,3.5-14.8,3.5c-1.2,0-2.5,0-3.8-0.1C833.3,683.4,831.8,683.2,830.3,683.1z"/>
			<path class="st1" d="M896,631h19.1c0.2,3.6,1.5,6.4,4,8.1c2.5,1.8,6.2,2.7,11.1,2.7c3.7,0,6.6-0.6,8.7-1.9c2-1.3,3.1-3,3.1-5.3
				c0-3.3-3.8-5.7-11.5-7.3c-3.1-0.7-5.6-1.2-7.4-1.7c-9.3-2.4-15.8-5.2-19.4-8.4c-3.6-3.3-5.4-7.6-5.4-13.2
				c0-7.3,2.6-13.2,7.9-17.4c5.3-4.3,12.5-6.4,21.5-6.4c9.6,0,17.1,2.1,22.6,6.4s8.4,10.3,8.7,18h-18.7c-0.1-3-1.3-5.4-3.5-7.1
				s-5.2-2.5-9.1-2.5c-3.6,0-6.4,0.6-8.1,1.6c-1.8,1.1-2.7,2.7-2.7,4.9c0,2.9,4.8,5.4,14.3,7.6c2.2,0.5,3.9,0.9,5.2,1.2
				c9.5,2.2,16.1,4.9,19.5,8.1c3.5,3.2,5.2,7.6,5.2,13.4c0,8.1-2.9,14.3-8.6,18.6c-5.7,4.3-14.1,6.4-25,6.4
				c-9.9,0-17.6-2.2-23.2-6.7c-5.6-4.4-8.4-10.5-8.4-18.3V631H896z"/>
		</g>
	</g>
</g>
</svg>
